<svg width="47" height="41" viewBox="0 0 47 41" fill="none" xmlns="http://www.w3.org/2000/svg">
<path opacity="0.4" d="M14.0557 0.5H32.9375C34.3494 0.500079 35.634 1.18707 36.4053 2.25L36.5527 2.46777L45.9814 18.4688V18.4697C46.6369 19.6211 46.677 21.0522 46.0674 22.2344L45.9365 22.4668L45.9336 22.4727L36.4961 38.4883C35.7464 39.723 34.3861 40.4999 32.9375 40.5H14.0557C12.5578 40.4999 11.2484 39.7257 10.4971 38.4883L1.06055 22.4727L1.05664 22.4668C0.31451 21.2444 0.31451 19.7556 1.05664 18.5332L1.06055 18.5273L10.501 2.50586L10.5 2.50488C11.2505 1.27373 12.6095 0.50013 14.0557 0.5Z" stroke="#F4F5F9"/>
</svg>
