<svg width="76" height="68" viewBox="0 0 76 68" fill="none" xmlns="http://www.w3.org/2000/svg">
<path d="M75.0562 30.2221L59.7906 3.65028C58.4336 1.44304 55.9741 -0.000152588 53.2603 -0.000152588H22.7289C20.0998 -0.000152588 17.6403 1.44304 16.2834 3.73518L1.01771 30.307C-0.339237 32.5991 -0.339237 35.4006 1.01771 37.6927L16.2834 64.2645C17.6403 66.5566 20.015 67.9998 22.7289 67.9998H53.2603C55.8893 67.9998 58.3488 66.5566 59.7058 64.2645L74.9714 37.6927C76.3284 35.4006 76.3284 32.5142 75.0562 30.2221Z" fill="#1D3541"/>
<path d="M25.4431 33.8141V30.7632H29.7684C30.7861 30.7632 31.4645 31.3564 31.4645 32.2887C31.4645 33.3057 30.8709 33.8141 29.7684 33.8141H25.4431ZM25.4431 39.577V36.1871H29.8532C32.3974 36.1871 34.1784 34.4921 34.1784 32.2039C34.1784 29.831 32.4823 28.2207 29.8532 28.2207H22.7292V39.577H25.4431Z" fill="#F4F5F9"/>
<path d="M38.5037 28.2207H35.8746V39.577H38.5037V28.2207Z" fill="#F4F5F9"/>
<path d="M40.7089 39.577H50.7164V37.0346H43.4228V35.0854H49.2746V32.6277H43.4228V30.7632H50.6316V28.2207H40.7089V39.577Z" fill="#F4F5F9"/>
<path d="M61.996 39.577H64.6251V28.2207H54.1935V35.9329C54.1935 36.8651 53.9391 37.1193 53.091 37.1193H52.0733V39.6618H53.7695C55.8897 39.6618 56.8226 38.3906 56.8226 35.9329V30.7632H61.9112V39.577H61.996Z" fill="#F4F5F9"/>
</svg>
