<svg width="70" height="79" viewBox="0 0 70 79" fill="none" xmlns="http://www.w3.org/2000/svg">
<path d="M69.6933 76.2324C69.6933 77.6662 68.5294 78.83 67.0937 78.83C65.658 78.83 64.4961 77.6662 64.4961 76.2324C64.4961 74.7986 65.6599 73.6328 67.0937 73.6328C68.328 73.6328 69.3588 74.4935 69.6287 75.6456C69.6718 75.8334 69.6952 76.0309 69.6952 76.2324H69.6933Z" fill="#F2D129"/>
<path d="M5.19522 73.6328C5.19522 75.0665 4.03138 76.2304 2.59761 76.2304C1.16383 76.2304 0 75.0665 0 73.6328C0 72.7115 0.477275 71.9036 1.20101 71.442C1.20296 71.4401 1.20882 71.4401 1.21469 71.4342C1.24012 71.4166 1.26555 71.4009 1.29098 71.3892C1.30076 71.3814 1.31445 71.3716 1.32814 71.3638C1.70174 71.1545 2.13794 71.0332 2.59761 71.0332C4.03138 71.0332 5.19522 72.197 5.19522 73.6328Z" fill="#F2D129"/>
<path d="M40.2846 31.0169C39.9482 33.728 38.3051 35.8679 36.306 36.4801C35.774 36.6424 35.2185 36.6972 34.6571 36.6268C34.4243 36.5994 34.1994 36.5486 33.9784 36.4801C31.6722 35.7622 30.1817 32.9416 30.571 29.8081C30.9954 26.3791 33.5167 23.8676 36.1985 24.1982C38.8821 24.5327 40.711 27.5841 40.2827 31.0169H40.2846Z" fill="#F2D129"/>
<path d="M13.9093 43.504C13.9093 45.8766 11.9845 47.8014 9.60991 47.8014C7.38785 47.8014 5.55504 46.1113 5.33597 43.948V43.9382C5.33205 43.8873 5.3301 43.8404 5.32815 43.7974C5.32228 43.7191 5.31641 43.6428 5.31641 43.5646C5.31446 43.5274 5.31445 43.5059 5.31445 43.5059C5.31445 41.1313 7.2392 39.2065 9.61186 39.2065C10.5449 39.2065 11.4055 39.5019 12.1078 40.0066L12.2271 40.0946C13.252 40.8809 13.9112 42.1152 13.9112 43.5059L13.9093 43.504Z" fill="#F2D129"/>
<path d="M26.1519 71.9331C26.1519 74.3078 24.2272 76.2325 21.8526 76.2325C21.8174 76.2325 21.7802 76.2325 21.7431 76.2306C19.4193 76.1719 17.5532 74.2706 17.5532 71.9331C17.5532 69.5957 19.478 67.6338 21.8526 67.6338C23.8145 67.6338 25.4712 68.9482 25.9857 70.7478C26.0952 71.1253 26.1519 71.5224 26.1519 71.9331Z" fill="#F2D129"/>
<path d="M67.0938 53.4327C67.0938 55.8073 65.1691 57.732 62.7945 57.732C60.4199 57.732 58.4971 55.8073 58.4971 53.4327C58.4971 52.7344 58.6634 52.0771 58.9568 51.4962C59.6648 50.0957 61.1162 49.1333 62.7925 49.1333C65.1672 49.1333 67.0919 51.058 67.0919 53.4327H67.0938Z" fill="#F2D129"/>
<path d="M53.8434 25.4266C53.8434 26.7597 54.9241 27.8403 56.2572 27.8403C57.5902 27.8403 58.6709 26.7597 58.6709 25.4266V2.41581C58.6709 1.08274 57.5902 0.00207138 56.2572 0.00207138C54.9241 0.00207138 53.8434 1.08274 53.8434 2.41581V25.4266Z" fill="#F2D129"/>
<path d="M61.0828 23.1396H58.6691V4.70014H61.0828C62.4149 4.70014 63.4966 5.78182 63.4966 7.11387V20.7259C63.4966 22.058 62.4149 23.1396 61.0828 23.1396Z" fill="#F2D129"/>
<path d="M65.9085 18.5215H63.4948V9.31835H65.9085C67.2406 9.31835 68.3223 10.4 68.3223 11.7321V16.1077C68.3223 17.4398 67.2406 18.5215 65.9085 18.5215Z" fill="#F2D129"/>
<path d="M53.8415 12.2563H17.2227V15.5836H53.8415V12.2563Z" fill="#F2D129"/>
<path d="M5.3125 43.5039C5.3125 43.5039 5.3125 43.5235 5.31446 43.5626C5.32033 43.633 5.32423 43.7601 5.33401 43.9362V43.946" fill="#F2D129"/>
<path d="M1.32831 71.3638C1.31266 71.3716 1.30092 71.3814 1.29114 71.3892C1.25593 71.4088 1.2305 71.4264 1.21485 71.4342C1.20899 71.4401 1.20507 71.44 1.20312 71.442H1.20117" fill="#F2D129"/>
<path d="M69.6289 75.6459C69.3609 74.4918 68.3281 73.6331 67.0939 73.6331C65.6601 73.6331 64.4963 74.797 64.4963 76.2327C64.4963 76.2327 64.4963 74.6815 62.3231 74.6815C60.15 74.6815 56.8834 78.2826 48.6896 78.2826C40.4957 78.2826 23.6426 54.0161 23.6426 54.0161L25.9839 70.746C25.4225 68.7821 23.4978 67.3934 21.2992 67.6672C19.3647 67.9078 17.8116 69.4726 17.5828 71.4091C17.2796 73.9793 19.2474 76.1681 21.7413 76.2288H2.59369C4.02747 76.2288 5.1913 75.0649 5.1913 73.6311C5.1913 72.1974 4.02747 71.0316 2.59369 71.0316C2.13403 71.0316 1.69782 71.1529 1.32422 71.3621C2.12032 70.8516 6.36883 68.0447 6.36883 66.2139C6.36883 64.383 5.48667 46.9587 5.33214 43.9464C5.55122 46.1117 7.38401 47.7998 9.60607 47.7998C11.9807 47.7998 13.9054 45.875 13.9054 43.5024C13.9054 42.1116 13.2462 40.8774 12.2213 40.0911L24.2665 49.1318L19.9007 15.136C19.531 12.2606 21.7726 9.71387 24.6714 9.71387C27.3277 9.71387 29.4813 11.8675 29.4813 14.5237V36.4783H33.9743C34.1934 36.5467 34.4203 36.5976 34.6531 36.625C35.2145 36.6954 35.77 36.6406 36.302 36.4783H41.4738V14.5237C41.4738 11.8675 43.6273 9.71387 46.2836 9.71387H46.7218C49.5463 9.71387 51.7625 12.1354 51.5141 14.9482L46.9154 66.8946L58.9568 51.4947C58.6634 52.0757 58.4971 52.7349 58.4971 53.4312C58.4971 55.8058 60.4218 57.7306 62.7945 57.7306C65.1672 57.7306 67.0939 55.8058 67.0939 53.4312L69.6289 75.6439V75.6459Z" fill="#F2D129"/>
<path d="M37.5402 35.8794C37.239 36.0261 37.3426 36.4799 37.6791 36.4799H38.3911L36.8047 39.2985L35.144 36.0105L37.5421 35.8814L37.5402 35.8794Z" fill="#F2D129"/>
<path d="M32.7947 35.8794C33.096 36.0261 32.9923 36.4799 32.6558 36.4799H31.9438L33.5302 39.2985L35.1909 36.0105L32.7928 35.8814L32.7947 35.8794Z" fill="#F2D129"/>
<path d="M21.5967 47.1266L22.6177 47.8934C23.2358 48.357 24.1063 47.8504 24.0085 47.0836L23.7033 44.709L28.1083 48.2103L21.7571 50.802L21.5986 47.1286L21.5967 47.1266Z" fill="#F2D129"/>
<path d="M24.4484 59.7742L24.1179 57.4074C23.9946 56.5213 25.137 56.0558 25.667 56.7776L27.0265 58.6299L27.3551 52.9496L22.7917 51.0366L20.7046 55.4044L24.4524 59.7723L24.4484 59.7742Z" fill="#F2D129"/>
<path d="M49.7221 63.3092L48.6678 64.6569C48.1514 65.3161 47.0932 64.8995 47.1675 64.0642L47.3886 61.5742L43.1831 64.2344L45.4365 68.4868L53.241 66.7284L49.7241 63.3092H49.7221Z" fill="#F2D129"/>
<path d="M29.4852 35.375V35.7877C29.4852 36.1691 29.7943 36.4782 30.1757 36.4782H30.6138L28.9884 38.757L28.2686 36.6562L29.4872 35.375H29.4852Z" fill="#F2D129"/>
<path d="M41.4758 35.375V35.7877C41.4758 36.1691 41.1667 36.4782 40.7853 36.4782H40.3472L41.9726 38.757L42.6924 36.6562L41.4738 35.375H41.4758Z" fill="#F2D129"/>
<path d="M17.2227 10.4155V11.462C17.2227 11.9002 17.5787 12.2562 18.0168 12.2562H18.6936L16.9058 14.0753L15.9121 10.9124L17.2227 10.4155Z" fill="#F2D129"/>
<path d="M18.6114 15.5835H18.0168C17.5787 15.5835 17.2227 15.9395 17.2227 16.3777V17.8193L15.5815 15.5835L17.3048 13.9209L18.6134 15.5835H18.6114Z" fill="#F2D129"/>
<path d="M53.8417 9.31836V11.4622C53.8417 11.9003 53.4857 12.2563 53.0475 12.2563H51.9541L54.6965 13.919L55.6999 10.4157L53.8417 9.31836Z" fill="#F2D129"/>
<path d="M51.9561 15.5838H53.0495C53.4876 15.5838 53.8436 15.9398 53.8436 16.378V18.0895L55.9346 14.8836L53.0377 14.3809L51.9561 15.5819V15.5838Z" fill="#F2D129"/>
<path d="M58.6693 3.05713V3.90605C58.6693 4.3442 59.0253 4.7002 59.4635 4.7002H60.7994L59.0468 7.61274L56.7876 4.42049L58.6673 3.05713H58.6693Z" fill="#F2D129"/>
<path d="M63.4967 7.37989V8.52416C63.4967 8.96231 63.8527 9.31831 64.2909 9.31831H65.3178L63.4967 12.4793L61.4233 9.01317L63.4967 7.37793V7.37989Z" fill="#F2D129"/>
<path d="M65.3158 18.5219H64.2889C63.8507 18.5219 63.4947 18.8779 63.4947 19.316V20.5796L60.7993 18.3204L64.2263 16.957L65.3158 18.5199V18.5219Z" fill="#F2D129"/>
<path d="M58.6691 25.0177V23.934C58.6691 23.4959 59.0251 23.1399 59.4633 23.1399H61.0829L59.3596 21.3579H56.2554L58.6691 25.0177Z" fill="#F2D129"/>
<path d="M17.223 2.41375C17.223 1.08068 16.1423 0 14.8092 0C13.4762 0 12.3955 1.08068 12.3955 2.41375V25.4245C12.3955 26.7576 13.4762 27.8383 14.8092 27.8383C16.1423 27.8383 17.223 26.7576 17.223 25.4245V2.41375Z" fill="#F2D129"/>
<path d="M9.98356 4.7002H12.3973V23.1397H9.98356C8.6515 23.1397 7.56982 22.058 7.56982 20.726V7.11393C7.56982 5.78187 8.6515 4.7002 9.98356 4.7002Z" fill="#F2D129"/>
<path d="M5.15594 9.31836H7.56969V18.5215H5.15594C3.82388 18.5215 2.74219 17.4398 2.74219 16.1078V11.7321C2.74219 10.4001 3.82388 9.31836 5.15594 9.31836Z" fill="#F2D129"/>
<path d="M12.3953 24.7826V23.9337C12.3953 23.4956 12.0393 23.1396 11.6011 23.1396H10.2651L12.0177 20.2271L14.277 23.4193L12.3972 24.7826H12.3953Z" fill="#F2D129"/>
<path d="M7.5696 20.4602V19.3159C7.5696 18.8778 7.2136 18.5218 6.77545 18.5218H5.74854L7.5696 15.3608L9.64299 18.8269L7.5696 20.4622V20.4602Z" fill="#F2D129"/>
<path d="M5.74854 9.31849H6.77545C7.2136 9.31849 7.5696 8.9625 7.5696 8.52434V7.26074L10.265 9.51997L6.83803 10.8833L5.74854 9.32045V9.31849Z" fill="#F2D129"/>
<path d="M12.3952 2.82275V3.9064C12.3952 4.34456 12.0392 4.70055 11.601 4.70055H9.98145L11.7047 6.4825H14.8089L12.3952 2.82275Z" fill="#F2D129"/>
</svg>
