<svg width="99" height="120" viewBox="0 0 99 120" fill="none" xmlns="http://www.w3.org/2000/svg">
<path d="M71.0079 54.0545L48.6676 81.3469C48.4003 81.6753 48.3596 82.1345 48.5659 82.5036L50.205 85.4157C52.0563 88.7084 49.6906 92.7568 45.9329 92.7568C37.1444 92.7568 23.2352 92.7568 13.0226 92.7568C8.15759 92.7568 5.68729 86.9066 9.07887 83.4162L41.2364 50.3316L33.5959 54.3625C23.8832 59.4862 14.6792 46.7685 22.5783 39.1425L41.8322 20.5571L25.441 24.7596C21.6919 25.7215 17.8877 23.4111 17.01 19.6417C16.0015 15.3143 19.2856 11.1787 23.7292 11.1787H52.7044C58.8569 11.1787 64.6171 14.1925 68.1278 19.2435L68.6277 19.9614L55.0817 36.4862L76.6838 28.1628C83.8622 25.3989 91.6131 30.572 91.8137 38.2619L92.8337 77.3044C92.8715 78.7604 93.1999 80.1931 93.7957 81.5213L95.9202 86.2497C97.2919 89.3042 95.057 92.7597 91.709 92.7597H73.7136C65.7709 92.7597 60.2054 84.9158 62.8297 77.4206L71.0079 54.0573V54.0545Z" fill="#FF693C"/>
<path d="M4.16772 96.1831H94.6767C96.9784 96.1831 98.8442 98.049 98.8442 100.351C98.8442 102.652 96.9784 104.518 94.6767 104.518H4.16772C1.86605 104.518 0.000175476 102.652 0.000175476 100.351C0.000175476 98.049 1.86605 96.1831 4.16772 96.1831Z" fill="#FF693C"/>
<path d="M78.3261 9.2607C79.8664 15.1458 78.7824 18.8368 74.3271 21.0484C69.8718 23.26 64.0681 20.6357 61.3624 15.1865C58.6596 9.73731 60.0807 3.52959 64.536 1.31795C71.0692 -1.92542 76.1231 0.852952 78.3261 9.2607Z" fill="#FF693C"/>
<path d="M76.3674 120C73.0786 120 70.4125 117.334 70.4125 114.045C70.4125 110.756 73.0786 108.09 76.3674 108.09C79.6562 108.09 82.3223 110.756 82.3223 114.045C82.3223 117.334 79.6562 120 76.3674 120Z" fill="#FF693C"/>
<path d="M22.2849 120C18.9961 120 16.33 117.334 16.33 114.045C16.33 110.756 18.9961 108.09 22.2849 108.09C25.5737 108.09 28.2397 110.756 28.2397 114.045C28.2397 117.334 25.5737 120 22.2849 120Z" fill="#FF693C"/>
<path d="M36.8103 25.4047L38.1792 24.0852C39.1702 23.1291 38.2489 21.4812 36.9149 21.8213L34.1685 22.5246L40.1641 15.5845L48.7637 17.7816L43.1837 27.0234L36.8103 25.4047Z" fill="#FF693C"/>
<path d="M38.1296 51.9705C38.6905 51.6741 39.2282 52.3948 38.7893 52.8511L35.6768 56.0538L43.0964 56.3008L46.3892 45.231H35.1362L38.1325 51.9734L38.1296 51.9705Z" fill="#FF693C"/>
<path d="M69.4331 30.9586L60.0053 34.5914C58.6684 35.1058 57.5205 33.5132 58.4272 32.4059L61.781 28.3169L56.4568 25.6489L48.7698 39.3722L59.7495 41.9355L69.436 30.9586H69.4331Z" fill="#FF693C"/>
<path d="M66.7854 66.1153L68.7181 60.5905C69.1685 59.3001 67.4858 58.3556 66.6198 59.4135L60.2725 67.1702L59.1013 51.2702L74.9374 46.5127L77.4077 55.3883L66.7883 66.1182L66.7854 66.1153Z" fill="#FF693C"/>
<path d="M60.2754 12.1028C60.3539 12.4138 60.04 12.6811 59.7436 12.5533H59.7407L58.7961 13.3205L61.1618 14.05L61.3682 11.7715L60.2725 12.0999L60.2754 12.1028Z" fill="#FF693C"/>
</svg>
