<svg width="130" height="42" viewBox="0 0 130 42" fill="none" xmlns="http://www.w3.org/2000/svg">
<rect x="0.375" y="0.875" width="41.25" height="40.25" rx="5.625" stroke="#0A0D18" stroke-width="0.75"/>
<path d="M23.5395 15.9906H25V13.6056C24.748 13.5731 23.8814 13.5 22.8722 13.5C20.7664 13.5 19.3238 14.7419 19.3238 17.0244V19.125H17V21.7913H19.3238V28.5H22.1729V21.7919H24.4027L24.7567 19.1256H22.1722V17.2887C22.1729 16.5181 22.3942 15.9906 23.5395 15.9906Z" fill="#0A0D18"/>
<rect x="44.375" y="0.375" width="41.25" height="41.25" rx="5.625" stroke="#0A0D18" stroke-width="0.75"/>
<path fill-rule="evenodd" clip-rule="evenodd" d="M61.8518 12.4217C62.7031 12.3843 62.9778 12.375 65.1281 12.375C67.2778 12.375 67.5534 12.3843 68.4081 12.4249C69.2813 12.4634 69.8925 12.6057 70.4332 12.8145C71.0035 13.0294 71.5229 13.3678 71.9521 13.8029L71.9497 13.8006L71.7128 14.0431L71.9544 13.8052L71.9521 13.8029C72.3915 14.2329 72.7267 14.7495 72.9445 15.3249C73.1537 15.8634 73.296 16.4779 73.3345 17.3508C73.3719 18.203 73.375 18.4788 73.375 20.6266C73.375 22.7765 73.3657 23.0511 73.3283 23.9023C73.2898 24.7764 73.1471 25.388 72.938 25.929C72.4924 27.0812 71.5812 27.9923 70.4288 28.4379C69.89 28.6474 69.2751 28.7898 68.4014 28.8283C67.55 28.8658 67.2753 28.875 65.1251 28.875C62.9748 28.875 62.7 28.8658 61.8487 28.8283C60.9751 28.7898 60.3639 28.6475 59.823 28.4386C59.2525 28.2237 58.7329 27.8851 58.3036 27.4498L58.3055 27.4516L58.5434 27.21L58.3018 27.4479L58.3036 27.4498C57.8685 27.0209 57.53 26.5047 57.3118 25.9282C57.1026 25.3898 56.9602 24.7753 56.9217 23.9023C56.8843 23.0512 56.875 22.7765 56.875 20.6266C56.875 18.4772 56.8843 18.2017 56.9249 17.3471C56.9634 16.4741 57.1057 15.8631 57.3146 15.3224C57.5296 14.7523 57.8679 14.2329 58.3031 13.8038L58.3009 13.8062L58.5434 14.0431L58.3055 13.8015L58.3031 13.8038C58.7332 13.3644 59.25 13.0293 59.8256 12.8116C60.364 12.6025 60.9787 12.4602 61.8518 12.4217ZM65.1251 16.7171C62.9676 16.7171 61.2172 18.4674 61.2172 20.625C61.2172 22.7826 62.9676 24.5329 65.1251 24.5329C67.2826 24.5329 69.033 22.7826 69.033 20.625C69.033 18.4674 67.2826 16.7171 65.1251 16.7171ZM69.9012 14.1118C68.9421 14.1118 68.1645 14.8893 68.1645 15.8487C68.1645 16.8078 68.9421 17.5855 69.9012 17.5855C70.8605 17.5855 71.6381 16.8079 71.6381 15.8487C71.6381 14.8893 70.8604 14.1118 69.9012 14.1118Z" fill="#0A0D18"/>
<rect x="88.375" y="0.375" width="41.25" height="41.25" rx="5.625" stroke="#0A0D18" stroke-width="0.75"/>
<path fill-rule="evenodd" clip-rule="evenodd" d="M117.867 17.4281L117.867 17.4363C117.873 17.4961 118 18.9171 118 20.3439V21.6776C118 23.1044 117.873 24.5254 117.867 24.5852L117.865 24.6035C117.848 24.7437 117.675 25.9924 117.079 26.6347C116.363 27.4147 115.555 27.4996 115.167 27.5404L115.167 27.5404C115.129 27.5443 115.096 27.5478 115.066 27.5517L115.034 27.555C112.655 27.7263 109.061 27.7497 109.025 27.7499L109.019 27.75L109.014 27.7499C108.831 27.7473 104.523 27.6835 103.149 27.554L103.108 27.5483C103.066 27.541 103.005 27.5342 102.934 27.5261L102.929 27.5255C102.466 27.473 101.605 27.3754 100.924 26.6375C100.3 25.9882 100.149 24.7355 100.133 24.5943L100.132 24.5854C100.127 24.5255 100 23.1044 100 21.6776V20.3439C100 18.9171 100.127 17.4959 100.132 17.4363L100.134 17.418C100.152 17.2777 100.325 16.0289 100.921 15.3868C101.648 14.5958 102.46 14.5029 102.85 14.4583C102.855 14.4577 102.861 14.4571 102.866 14.4565C102.891 14.4537 102.913 14.4511 102.934 14.4483L102.966 14.445C105.367 14.2737 108.961 14.2503 108.997 14.2501L109 14.25L109.003 14.2501C109.039 14.2503 112.633 14.2737 115.012 14.445L115.044 14.4483C115.071 14.4518 115.101 14.4552 115.133 14.4589C115.528 14.5033 116.349 14.5961 117.073 15.3595C117.7 16.0086 117.851 17.2846 117.867 17.4281ZM107.684 18.3078L111.873 20.4015C112.12 20.5254 112.274 20.7626 112.273 21.0207C112.272 21.2788 112.116 21.5149 111.868 21.6371L107.679 23.6947C107.564 23.7513 107.439 23.7794 107.315 23.7794C107.178 23.7794 107.043 23.7458 106.92 23.679C106.685 23.5509 106.545 23.3254 106.545 23.0758V18.9244C106.545 18.6736 106.686 18.4476 106.923 18.3197C107.159 18.1919 107.443 18.1874 107.684 18.3078Z" fill="#0A0D18"/>
</svg>
