<svg width="24" height="24" viewBox="0 0 24 24" fill="none" xmlns="http://www.w3.org/2000/svg">
<path fill-rule="evenodd" clip-rule="evenodd" d="M12 0C7.75756 0 4 2.49057 4 7.24528C4 8.24151 4.56565 9.69811 4.84848 10.3019L12 24V11C9.79087 11 8.00006 9.20911 8.00006 7C8.00006 4.79089 9.79087 3.00005 12 3V0ZM12 11C12 11 12 11 12.0001 11C14.2092 11 16.0001 9.20914 16.0001 7C16.0001 4.79086 14.2092 3 12.0001 3C12 3 12 3 12 3V0C16.2424 0 20 2.49057 20 7.24528C20 8.24151 19.4343 9.69811 19.1515 10.3019L12 24V11Z" fill="#0A0D18"/>
</svg>
