<svg width="197" height="56" viewBox="0 0 197 56" fill="none" xmlns="http://www.w3.org/2000/svg">
<path d="M63.2129 48.3116H63.7689V52.2765H63.2129V48.3116ZM63.4824 48.3116H65.6509V48.8414H63.4824V48.3116ZM63.4995 51.7467H64.7698C64.8981 51.7467 65.005 51.721 65.0949 51.6698C65.1847 51.6185 65.2531 51.5459 65.3002 51.4476C65.3472 51.3493 65.3729 51.2297 65.3729 51.093C65.3729 50.9563 65.3472 50.8324 65.3002 50.7341C65.2531 50.6358 65.1847 50.5632 65.0949 50.5077C65.005 50.4564 64.8981 50.4308 64.7698 50.4308H63.4995V49.901H64.7484C65.0008 49.901 65.2146 49.948 65.3943 50.042C65.5739 50.136 65.7065 50.2684 65.8006 50.4479C65.8947 50.6273 65.9417 50.8409 65.9417 51.093C65.9417 51.3451 65.8947 51.5544 65.8006 51.7339C65.7065 51.909 65.5696 52.0458 65.3943 52.1397C65.2189 52.2337 65.0008 52.2807 64.7484 52.2807H63.4995V51.751V51.7467Z" fill="#0A0D18"/>
<path d="M69.1685 48.3116H69.8015L70.9692 51.1485L70.6099 51.5929L69.1727 48.3116H69.1685ZM71.1745 51.4562C71.1017 51.6484 71.0248 51.8065 70.9349 51.9347C70.8451 52.0628 70.7382 52.1568 70.6141 52.2209C70.4901 52.285 70.3447 52.3192 70.1821 52.3192H69.7202V51.7723H70.1821C70.2677 51.7723 70.3404 51.751 70.4046 51.7125C70.4687 51.6741 70.5243 51.6142 70.5756 51.5373C70.627 51.4604 70.6698 51.3622 70.7125 51.2425L71.7262 48.3159H72.3336L71.1745 51.4604V51.4562Z" fill="#0A0D18"/>
<path d="M75.1919 51.7467H78.6359V52.2765H75.1919V51.7467ZM75.1919 51.7467H75.7481V53.0968H75.1919V51.7467ZM75.1919 51.7467H75.2176C75.4486 51.7467 75.624 51.6527 75.7523 51.469C75.8807 51.2853 75.9406 51.0246 75.9406 50.6871V48.3116H76.4967V50.7341C76.4967 51.0246 76.4497 51.2724 76.3513 51.4775C76.2572 51.6826 76.116 51.8407 75.932 51.9475C75.7481 52.0543 75.5299 52.1098 75.2689 52.1098H75.1919V51.7424V51.7467ZM76.2871 48.3116H78.0882V48.8414H76.2871V48.3116ZM77.7888 48.3116H78.3449V52.2765H77.7888V48.3116ZM78.3193 51.7467H78.8754V53.0968H78.3193V51.7467Z" fill="#0A0D18"/>
<path d="M82.2039 48.3116H82.8369L84.0046 51.1485L83.6453 51.5929L82.2081 48.3116H82.2039ZM84.2099 51.4562C84.1371 51.6484 84.0602 51.8065 83.9703 51.9347C83.8805 52.0628 83.7736 52.1568 83.6496 52.2209C83.5255 52.285 83.3844 52.3192 83.2176 52.3192H82.7556V51.7723H83.2176C83.3031 51.7723 83.3758 51.751 83.44 51.7125C83.5041 51.6741 83.564 51.6142 83.6111 51.5373C83.6624 51.4604 83.7052 51.3622 83.7479 51.2425L84.7616 48.3159H85.369L84.2099 51.4604V51.4562Z" fill="#0A0D18"/>
<path d="M89.7159 52.3149L89.4037 52.1312C89.1941 52.0073 89.0358 51.8364 88.9204 51.6142C88.8049 51.392 88.7493 51.1314 88.7493 50.8366V49.7472C88.7493 49.4524 88.8049 49.196 88.9204 48.9696C89.0358 48.7474 89.1984 48.5722 89.4037 48.4483C89.609 48.3244 89.8528 48.2646 90.1265 48.2646C90.3532 48.2646 90.5628 48.3116 90.7553 48.4099C90.9477 48.5081 91.106 48.6449 91.2343 48.8243C91.3626 49.0037 91.4482 49.2088 91.4952 49.4438H90.9264C90.8921 49.3199 90.8323 49.2088 90.751 49.1106C90.6697 49.0123 90.5756 48.9397 90.4644 48.8841C90.3575 48.8328 90.242 48.803 90.1265 48.803C89.964 48.803 89.8228 48.8414 89.6988 48.9183C89.5748 48.9952 89.4807 49.1063 89.4165 49.2473C89.3481 49.3883 89.3139 49.5506 89.3139 49.7386V50.8281C89.3139 51.0118 89.3481 51.1784 89.4165 51.3194C89.4849 51.4604 89.579 51.5715 89.6988 51.6484C89.8228 51.7253 89.964 51.7638 90.1265 51.7638C90.2463 51.7638 90.3575 51.7381 90.4644 51.6911C90.5714 51.6441 90.6654 51.5672 90.7467 51.4732C90.828 51.3792 90.8836 51.2639 90.9221 51.1314H91.4909C91.4439 51.3664 91.3584 51.5715 91.23 51.7509C91.1017 51.9304 90.9392 52.0671 90.751 52.1654C90.5585 52.2636 90.3532 52.3106 90.1265 52.3106H89.7159V52.3149ZM89.1 50.042H90.9135V50.5717H89.1V50.042Z" fill="#0A0D18"/>
<path d="M98.0239 48.3116H98.5457V52.2765H98.0025V49.3071L98.0282 49.4823L97.0487 51.7253H96.6638L95.6886 49.5378L95.7142 49.3071V52.2765H95.171V48.3116H95.6928L96.8605 50.9306L98.0282 48.3116H98.0239Z" fill="#0A0D18"/>
<path d="M103.047 52.1355C102.838 52.0158 102.671 51.8449 102.555 51.6228C102.44 51.4006 102.38 51.1485 102.38 50.8537V49.7301C102.38 49.4395 102.44 49.1832 102.555 48.961C102.671 48.7389 102.833 48.568 103.047 48.4483C103.257 48.3287 103.501 48.2689 103.779 48.2689C104.057 48.2689 104.3 48.3287 104.51 48.4483C104.72 48.568 104.882 48.7389 104.998 48.961C105.113 49.1832 105.173 49.4395 105.173 49.7301V50.8537C105.173 51.1443 105.113 51.4006 104.998 51.6228C104.882 51.8449 104.72 52.0158 104.51 52.1355C104.3 52.2551 104.057 52.3149 103.779 52.3149C103.501 52.3149 103.257 52.2551 103.047 52.1355ZM104.211 51.657C104.335 51.5843 104.433 51.4775 104.501 51.3451C104.57 51.2083 104.604 51.0545 104.604 50.8751V49.713C104.604 49.5335 104.57 49.3797 104.501 49.243C104.433 49.1063 104.335 49.0038 104.211 48.9311C104.087 48.8585 103.941 48.82 103.779 48.82C103.616 48.82 103.471 48.8585 103.347 48.9311C103.223 49.0038 103.124 49.1106 103.056 49.243C102.987 49.3797 102.953 49.5335 102.953 49.713V50.8751C102.953 51.0545 102.987 51.2083 103.056 51.3451C103.124 51.4818 103.223 51.5843 103.347 51.657C103.471 51.7296 103.616 51.768 103.779 51.768C103.941 51.768 104.087 51.7296 104.211 51.657Z" fill="#0A0D18"/>
<path d="M114.953 48.3116H115.51V52.2764H114.953V48.3116ZM115.223 50.042H116.463V50.5717H115.223V50.042ZM115.971 50.529L116.459 50.2428L117.99 52.2722H117.216L115.967 50.529H115.971ZM115.971 50.0975L117.122 48.3073H117.819L116.249 50.5845L115.967 50.0975H115.971Z" fill="#0A0D18"/>
<path d="M121.478 48.3116H122.034V52.2765H121.478V48.3116ZM121.765 50.2086H123.035C123.155 50.2086 123.262 50.1787 123.351 50.1232C123.441 50.0676 123.514 49.9864 123.565 49.8839C123.617 49.7814 123.642 49.6617 123.642 49.525C123.642 49.3883 123.617 49.2687 123.565 49.1661C123.514 49.0636 123.446 48.9824 123.351 48.9269C123.262 48.8713 123.155 48.8414 123.035 48.8414H121.765V48.3116H123.014C123.249 48.3116 123.458 48.3629 123.638 48.4612C123.818 48.5637 123.959 48.7047 124.057 48.8884C124.156 49.0721 124.207 49.2857 124.207 49.525C124.207 49.7643 124.156 49.9779 124.057 50.1616C123.959 50.3453 123.818 50.4863 123.638 50.5846C123.458 50.6828 123.249 50.7341 123.014 50.7341H121.765V50.2043V50.2086Z" fill="#0A0D18"/>
<path d="M128.978 48.3116H129.452L130.915 52.2765H130.316L129.217 49.0807L128.118 52.2765H127.515L128.978 48.3116ZM128.191 50.8751H130.278V51.4049H128.191V50.8751Z" fill="#0A0D18"/>
<path d="M133.898 47.4315H134.454V47.9869H133.898V47.4315ZM135.014 52.2764H134.458V48.3116H135.014V52.2764ZM135.014 47.4315H135.57V47.9869H135.014V47.4315Z" fill="#0A0D18"/>
<path d="M138.933 48.3116H139.49V52.2765H138.933V48.3116ZM139.28 50.0591H141.483V50.5889H139.28V50.0591ZM141.188 48.3116H141.744V52.2765H141.188V48.3116Z" fill="#0A0D18"/>
<path d="M145.342 48.3116H145.975L147.142 51.1485L146.783 51.5929L145.346 48.3116H145.342ZM147.348 51.4562C147.275 51.6484 147.198 51.8065 147.108 51.9347C147.018 52.0628 146.912 52.1568 146.787 52.2209C146.663 52.285 146.522 52.3192 146.355 52.3192H145.894V51.7723H146.355C146.441 51.7723 146.514 51.751 146.578 51.7125C146.642 51.6741 146.702 51.6142 146.749 51.5373C146.8 51.4604 146.843 51.3622 146.886 51.2425L147.9 48.3159H148.507L147.348 51.4604V51.4562Z" fill="#0A0D18"/>
<path fill-rule="evenodd" clip-rule="evenodd" d="M105.612 34.4921L102.876 34.4743V35.624L105.126 35.6098L102.884 41.5389L103.903 41.546L106.273 35.6523L115.34 35.6169C115.657 36.6991 117.138 40.847 117.671 41.5389L118.677 41.5566L116.403 35.6169H118.684L118.719 34.4637L115.934 34.485L110.828 21.2749L105.619 34.4885L105.612 34.4921ZM106.742 34.453L110.849 24.188L114.776 34.4814L106.742 34.4566V34.453Z" fill="#0A0D18"/>
<path fill-rule="evenodd" clip-rule="evenodd" d="M105.612 34.4921L102.876 34.4743V35.624L105.126 35.6098L102.884 41.5389L103.903 41.546L106.273 35.6523L115.34 35.6169C115.657 36.6991 117.138 40.847 117.671 41.5389L118.677 41.5566L116.403 35.6169H118.684L118.719 34.4637L115.934 34.485L110.828 21.2749L105.619 34.4885L105.612 34.4921ZM106.742 34.453L110.849 24.188L114.776 34.4814L106.742 34.4566V34.453Z" fill="#0A0D18"/>
<path fill-rule="evenodd" clip-rule="evenodd" d="M88.593 30.1455L89.6554 30.1632L89.6909 23.9538C92.7963 24.0567 95.6884 23.4819 96.9071 25.8805C97.5289 27.1011 97.3228 28.7865 96.6193 29.6558C95.6955 30.7983 95.1271 30.7629 93.4713 31.1248L93.4642 32.1325C95.6813 32.4696 96.829 31.9835 98.3568 33.534C101.149 36.3726 99.4689 40.3467 95.9833 41.106C94.5301 41.4218 91.3004 41.2586 89.6767 41.2479L89.6874 33.8676L88.5895 33.8285V42.3443C90.3518 42.4508 93.6561 42.4969 95.3722 42.3372C101.665 41.7482 102.926 33.825 97.2056 31.5364L96.4772 31.2206C97.3868 30.2377 98.1578 30.0497 98.371 28.0768C98.6872 25.1176 96.8041 22.9603 93.7023 22.8574C92.1034 22.8042 90.2345 22.8077 88.6357 22.8609L88.5895 30.1419L88.593 30.1455Z" fill="#0A0D18"/>
<path fill-rule="evenodd" clip-rule="evenodd" d="M180.773 41.5602V33.7718H179.331V41.5602H180.773ZM180.773 29.9432V22.5806H179.331L174.683 29.9432H176.176L179.331 24.926V29.9432H180.773ZM172.271 33.7718L168.871 39.1615V33.7718H167.428V41.5602H168.871L173.77 33.7718H172.271ZM168.871 29.9432V22.5806H167.428V29.9432H168.871Z" fill="#0A0D18"/>
<path fill-rule="evenodd" clip-rule="evenodd" d="M158.183 31.3483H150.206V22.5771H148.767V41.5602H150.206V32.6292H158.183V31.3483Z" fill="#0A0D18"/>
<path d="M161.554 33.7682H160.112V41.5566H161.554V33.7682Z" fill="#0A0D18"/>
<path d="M161.554 22.5771H160.112V30.1029H161.554V22.5771Z" fill="#0A0D18"/>
<path fill-rule="evenodd" clip-rule="evenodd" d="M122.205 41.5602H124.233L133.283 31.6961V41.5602H134.726V31.6961L143.775 41.5602H145.804L136.459 31.6428L145.083 22.5771H143.16L134.726 31.6428V22.5771H133.283V31.6428L124.848 22.5771H122.926L131.549 31.6428L122.205 41.5602Z" fill="#0A0D18"/>
<path d="M64.3467 25.4121H62.9045V41.5566H64.3467V25.4121Z" fill="#0A0D18"/>
<path fill-rule="evenodd" clip-rule="evenodd" d="M197 41.5105L191.127 31.7777L196.573 22.5274H194.918L190.352 30.5003L185.815 22.5274H184.131L189.577 31.7777L183.758 41.5105H185.388L190.352 33.0586L195.319 41.5105H197Z" fill="#0A0D18"/>
<path fill-rule="evenodd" clip-rule="evenodd" d="M160.834 33.0337C161.377 33.0337 161.818 32.5902 161.818 32.0509C161.818 31.5115 161.373 31.068 160.834 31.068C160.294 31.068 159.85 31.5115 159.85 32.0509C159.85 32.5902 160.294 33.0337 160.834 33.0337Z" fill="#0A0D18"/>
<path fill-rule="evenodd" clip-rule="evenodd" d="M63.646 23.5182C64.1242 23.5182 64.5117 23.1262 64.5117 22.6496C64.5117 22.1729 64.1211 21.781 63.646 21.781C63.1709 21.781 62.7803 22.1729 62.7803 22.6496C62.7803 23.1262 63.1709 23.5182 63.646 23.5182Z" fill="#0A0D18"/>
<path fill-rule="evenodd" clip-rule="evenodd" d="M70.1669 39.7364L67.6265 39.708V41.1734C73.3468 41.1344 79.4083 41.1663 85.2602 41.1734L85.3064 39.7009L83.3167 39.7293L81.0818 33.9492H79.6428L81.8457 39.7222L71.6059 39.6902L73.9011 33.9527H72.4515L70.1704 39.7399L70.1669 39.7364ZM79.6002 30.1206L76.8075 22.8964L73.958 30.1206H75.4325L76.8395 26.6043L78.1825 30.1206H79.6037H79.6002Z" fill="#0A0D18"/>
<path d="M70.5681 41.1379H69.0691V43.721H70.5681V41.1379Z" fill="#0A0D18"/>
<path d="M84.684 41.0563H83.1849V43.6394H84.684V41.0563Z" fill="#0A0D18"/>
<path d="M57.5852 27.7506C55.7521 25.1209 53.2468 23.0798 50.315 21.8228C50.7674 20.355 51.0027 18.8332 51.0027 17.2806C51.0027 13.8771 49.891 10.7306 48.014 8.17289C47.5072 7.48396 46.9488 6.84388 46.3438 6.24493C43.5308 3.50209 39.6812 1.80292 35.4359 1.80292H29.7377C30.1824 2.33246 30.5676 2.91342 30.8856 3.53037H35.4359C38.1325 3.53037 40.6533 4.30412 42.7837 5.63827C43.6084 6.15496 44.3789 6.75391 45.0743 7.43255C47.6572 9.92861 49.2653 13.4221 49.2653 17.2806C49.2653 18.625 49.0688 19.9437 48.6887 21.2162C47.0315 20.6943 45.3096 20.4296 43.5567 20.4296H34.425C34.0631 21.0388 33.683 21.6326 33.2797 22.2136H43.5567C45.095 22.2136 46.6075 22.4423 48.0631 22.8922C45.8344 27.856 40.9403 31.0307 35.4359 31.0307H32.0568C31.9482 31.4189 31.8267 31.8071 31.6922 32.1875C31.656 32.3777 31.6198 32.568 31.5759 32.7582H35.4385C38.6186 32.7582 41.6771 31.8096 44.2884 30.0051C46.6747 28.3625 48.531 26.1183 49.6919 23.4937C55.2583 25.9229 58.8236 31.3212 58.8236 37.3904C58.8236 45.7629 51.9722 52.5699 43.5567 52.5699H25.1744V50.5262C24.5875 50.6059 23.9851 50.5828 23.3801 50.5057V54.3539H43.5593C52.9624 54.3539 60.6153 46.7449 60.6153 37.3904C60.6153 33.9304 59.5708 30.5937 57.5877 27.7506H57.5852Z" fill="#0A0D18"/>
<path d="M21.2749 5.53753C20.7195 5.37944 20.1849 5.38981 19.6893 5.52198C19.3649 5.6075 19.0664 5.71635 18.768 5.82261C18.3865 5.95478 18.0258 6.09732 17.6495 6.2295C17.6002 6.25023 17.5483 6.26578 17.4964 6.28392C16.8762 6.48866 16.2144 6.63379 15.4748 6.70635C14.8338 6.76855 14.185 6.77633 13.5025 6.64416C12.7966 6.50421 12.4307 6.22172 12.4515 5.82261C12.4618 5.71376 12.4696 5.59973 12.4774 5.46756C12.4774 5.46756 11.1409 6.35908 12.5267 7.24541C12.5397 7.25319 12.5501 7.25837 12.5527 7.26615C12.9134 7.47088 13.3468 7.60824 13.8087 7.73005C13.9047 7.75078 13.9956 7.7767 14.0812 7.80002C13.6115 7.82075 13.1547 7.8078 12.6902 7.67562C12.4515 7.61083 12.2516 7.52272 12.1971 7.36463C12.1816 7.32057 12.1193 7.28947 12.0882 7.2506C12.0882 7.2506 11.8494 7.61861 12.8511 8.08251V8.08769C13.0432 8.14471 13.23 8.19136 13.4324 8.23023C14.0371 8.34167 14.634 8.35722 15.2179 8.31057C16.2507 8.22764 17.1512 7.99958 17.9739 7.69117C18.0543 7.66266 18.14 7.63675 18.2204 7.61083C18.2334 7.64452 18.2126 7.66267 18.1945 7.67562C17.6547 8.07473 17.0215 8.40646 16.2559 8.66303C15.4566 8.92479 14.595 9.10102 13.6011 9.11657C12.8875 9.12693 12.2283 9.02586 11.6833 8.65526C11.6366 8.61898 11.551 8.59824 11.4705 8.56973C11.3485 8.66303 11.3927 8.75374 11.4757 8.83149C11.5743 8.92997 11.6963 9.02068 11.8468 9.09583C12.2984 9.31612 12.8018 9.46385 13.3468 9.54678C13.6842 9.59602 14.0267 9.62712 14.3745 9.66859C14.4627 9.83445 14.634 9.95366 14.9168 10.0392C15.3943 10.1843 15.8692 10.2724 16.3753 10.288C16.7023 10.288 19.9514 10.1869 20.6339 8.34426C21.3138 6.50421 21.2438 6.90332 21.2438 6.90332C21.2438 6.90332 21.3138 7.95552 21.6097 8.45829C21.6226 8.44274 21.6382 8.42719 21.6538 8.41683C21.6694 8.40128 21.6849 8.38832 21.7031 8.38314C21.5188 7.43201 21.2957 6.47052 21.2775 5.53753H21.2749ZM18.1322 9.13212C18.1322 9.13212 16.98 9.79039 16.6166 9.22801C16.4869 9.02327 18.6331 8.46348 18.6331 8.46348L18.1322 9.12953V9.13212Z" fill="#0A0D18"/>
<path d="M31.2401 20.7452C31.2401 15.0592 30.5601 12.7759 30.0307 11.8559C29.5766 12.1306 29.0835 12.3094 28.5619 12.4261C28.0507 12.5375 27.5316 12.5816 27.01 12.6204C26.395 12.6619 25.8085 12.5349 25.2739 12.211C24.7704 11.9077 24.3837 11.4879 24.0671 10.9955C24.0308 10.9385 23.9945 10.8841 23.9426 10.8063C23.7972 10.91 23.6545 10.9929 23.5351 11.1018C23.286 11.335 23.0057 11.4905 22.6632 11.519C22.5879 11.5268 22.5179 11.5708 22.4348 11.6045C22.4685 11.633 22.4763 11.6434 22.4867 11.6486C22.5256 11.6615 22.5646 11.6771 22.6035 11.69C23.2393 11.8792 23.7246 12.2654 24.0516 12.8381C24.4512 13.5327 24.542 14.2817 24.4019 15.0669C24.2981 15.6449 23.9945 16.0777 23.5092 16.3939C23.3561 16.4975 23.1926 16.5882 23.0291 16.6737C22.536 16.9225 22.0118 17.0729 21.4746 17.1999H21.4772C21.5551 17.1895 21.6744 17.2309 21.8146 17.3139C21.8172 17.3139 21.8198 17.3139 21.8224 17.3165C22.5438 17.6352 24.0438 18.5501 24.2021 19.211C24.3059 19.6463 23.6364 20.1673 22.9409 20.6104C22.9149 20.6441 22.8916 20.6804 22.8682 20.7141C22.8734 20.7115 22.8812 20.7115 22.889 20.7089C22.9746 20.6856 23.0628 20.6726 23.1511 20.67C23.504 20.6467 23.8491 20.6934 24.1917 20.7763C24.8509 20.937 25.51 21.1054 26.1744 21.2687C27.2591 21.5331 28.3595 21.5719 29.465 21.3983C30.08 21.3024 30.6873 21.1599 31.2816 20.994L31.2427 20.7504L31.2401 20.7452ZM26.4261 12.8874C26.722 12.9314 26.9399 13.0843 27.1579 13.2684C27.8119 13.8152 28.3465 14.4631 28.7747 15.1965C29.0991 15.7511 29.2807 16.3628 29.4131 16.9925C29.4468 17.1506 29.4754 17.3113 29.5065 17.472C29.4935 17.4823 29.478 17.4927 29.465 17.5031C29.2159 17.2776 28.959 17.0651 28.7202 16.8267C28.1337 16.2358 27.6225 15.5879 27.1761 14.8803C26.7842 14.2532 26.3794 13.626 25.8967 13.0662C25.7773 12.9288 25.6476 12.7993 25.51 12.6464C25.8318 12.7345 26.1251 12.8407 26.4261 12.8874ZM29.9607 19.2084C28.9174 18.7885 27.8716 18.3713 26.8335 17.9411C26.3327 17.7337 25.8474 17.4927 25.401 17.1739C24.7704 16.7334 24.4979 16.1269 24.5628 15.365C24.5888 15.0721 24.6225 14.7793 24.6484 14.4631C24.7886 14.7456 24.9106 15.0022 25.0403 15.2587C25.619 16.3913 26.4988 17.2465 27.5758 17.8996C28.0091 18.1639 28.4711 18.379 28.92 18.6149C29.2859 18.8015 29.6519 18.9881 30.0541 19.1954C29.9918 19.2058 29.9736 19.2161 29.9581 19.2084H29.9607ZM30.9961 18.6926C30.9806 18.6693 30.9598 18.6538 30.9494 18.6304C30.7548 18.2832 30.5368 17.9462 30.3733 17.586C30.1839 17.161 30.0515 16.7126 29.9659 16.2513C29.8179 15.4764 29.5896 14.7223 29.2263 14.0147C29.0757 13.7193 28.8759 13.4446 28.6164 13.2243C28.5904 13.201 28.5541 13.1932 28.523 13.1802C28.5333 13.1647 28.5463 13.1491 28.5567 13.1362C28.6398 13.131 28.728 13.1206 28.8318 13.1103C28.9564 13.2839 29.0939 13.4498 29.2159 13.6312C29.7842 14.4579 30.2306 15.3391 30.4693 16.3187C30.651 17.0703 30.8352 17.8244 31.0169 18.5734C31.0247 18.6071 31.0247 18.6408 31.0299 18.6745C31.0195 18.6771 31.0065 18.6823 30.9987 18.6874L30.9961 18.6926Z" fill="#0A0D18"/>
<path d="M21.2955 17.2469C21.2955 17.2469 21.2982 17.2599 21.2982 17.2678C21.3952 17.226 21.4582 17.1998 21.4582 17.1998C21.4057 17.2103 21.3533 17.2312 21.2955 17.2469Z" fill="#0A0D18"/>
<path d="M31.7231 20.9681C31.8632 21.2117 31.9073 21.4812 31.8892 21.7611C31.884 21.8466 31.8606 21.9399 31.9463 22.0125C32.1071 21.9322 32.1772 21.7793 32.2602 21.6393C32.9374 20.5327 33.5341 19.382 34.0245 18.1847C34.136 17.9074 34.2294 17.6145 34.2865 17.3217C34.3695 16.8863 34.4084 16.4405 34.4681 15.9999C34.4759 15.9585 34.4707 15.9144 34.4707 15.8289C33.9803 16.3654 33.4744 16.8111 32.8803 17.1558C32.9062 17.2698 32.9348 17.3683 32.9503 17.4694C32.9607 17.5497 32.9659 17.6353 32.9451 17.713C32.8958 17.8918 32.8414 18.0706 32.7687 18.2391C32.5663 18.703 32.3562 19.1643 32.1408 19.623C32.0007 19.9185 31.8451 20.2061 31.6972 20.4964C31.6972 20.4964 31.6972 20.4964 31.6972 20.499C31.5908 20.6623 31.6349 20.8126 31.7283 20.9707L31.7231 20.9681Z" fill="#0A0D18"/>
<path d="M19.4431 24.0133C19.6377 24.1169 19.8427 24.1998 20.0192 24.3294C20.2502 24.4979 20.463 24.6974 20.6732 24.8944C20.9586 25.1587 21.2519 25.4024 21.6489 25.4775C22.0875 25.5579 22.482 25.747 22.8609 25.9725C22.9439 26.0218 23.0295 26.071 23.123 26.0917C23.3046 26.1358 23.4733 26.1954 23.6264 26.312C23.7354 26.395 23.8548 26.3431 23.8652 26.2084C23.8704 26.1358 23.8444 26.0425 23.7977 25.9855C23.6887 25.8533 23.5615 25.7393 23.4396 25.6175C23.3358 25.5164 23.2449 25.4101 23.2553 25.2261C23.3384 25.2313 23.411 25.2287 23.4837 25.2417C23.8081 25.3013 24.1273 25.3739 24.4543 25.4257C24.6359 25.4542 24.8228 25.4827 25.0018 25.3998C25.1368 25.335 25.2717 25.2728 25.4093 25.2132C25.565 25.1458 25.6039 25.0551 25.5235 24.9048C25.5027 24.8633 25.469 24.827 25.4378 24.7907C25.225 24.5394 24.9603 24.3605 24.6697 24.2128C24.4179 24.0858 24.1688 23.9562 23.9197 23.8267C23.8833 23.8085 23.8392 23.793 23.8159 23.7645C23.7951 23.7385 23.7847 23.6893 23.7951 23.6556C23.8003 23.6349 23.8496 23.609 23.8755 23.6115C23.9638 23.6219 24.0494 23.6478 24.1377 23.6582C24.3686 23.6815 24.6022 23.7126 24.8332 23.7152C24.9447 23.7152 25.0641 23.6763 25.1653 23.6271C25.3003 23.5597 25.2951 23.456 25.1575 23.3835C25.0927 23.3498 25.0148 23.3342 24.9421 23.3161C24.5633 23.2202 24.1844 23.1321 23.8055 23.0284C23.5849 22.9688 23.3669 22.9222 23.1359 22.9274C22.9569 22.9325 22.7778 22.9325 22.5987 22.9274C22.3522 22.917 22.2536 22.8107 22.2484 22.5671C22.2484 22.5282 22.2432 22.4868 22.2406 22.4531C22.1057 22.3676 22.0097 22.4427 21.9136 22.5075C21.7605 22.6112 21.6048 22.7123 21.4543 22.8211C21.3194 22.9196 21.187 22.9196 21.0313 22.8755C20.0581 22.5956 19.2355 22.0851 18.6256 21.2713C18.1974 20.7011 17.7848 20.118 17.38 19.5297C17.0426 19.0399 16.604 18.7263 16.0045 18.6512C15.7943 18.6253 15.5867 18.5916 15.3765 18.5605C15.8852 18.4853 16.3912 18.5138 16.8947 18.5864C16.9829 18.5993 17.053 18.5864 17.1282 18.5475C18.0988 18.0318 19.0486 17.4798 19.9491 16.85C20.1334 16.723 20.2398 16.5623 20.2761 16.3498C20.2995 16.215 20.315 16.0751 20.3047 15.9403C20.2502 15.2121 19.8557 14.6471 19.4119 14.0951C19.2822 14.1573 19.1654 14.2117 19.0408 14.2713C18.963 14.0588 18.8955 13.8515 18.9033 13.6286C18.9085 13.4705 18.9915 13.4187 19.1369 13.4809C19.2043 13.5094 19.2692 13.5534 19.3289 13.6001C19.7208 13.9189 20.0685 14.2791 20.3202 14.7197C20.629 15.2535 20.764 15.8237 20.6732 16.4405C20.6524 16.5805 20.6239 16.7204 20.5953 16.8759C20.6446 16.8759 20.6784 16.8811 20.7095 16.8759C21.5841 16.7256 22.4067 16.4276 23.1671 15.9688C23.3306 15.8704 23.4889 15.7537 23.6212 15.6164C24.1377 15.067 24.2856 14.432 24.0183 13.7167C23.8107 13.1569 23.4162 12.7371 22.9595 12.3768C22.7674 12.2239 22.5468 12.1073 22.3366 11.9829C22.2173 11.9129 22.0823 11.9103 21.9604 11.97C21.7424 12.071 21.5244 12.1695 21.3168 12.2913C21.1273 12.4002 20.9534 12.5401 20.7718 12.6593C20.4552 12.8667 20.1438 13.0792 19.7778 13.1958C19.5521 13.2684 19.3263 13.3046 19.0901 13.2399C18.8799 13.1828 18.7294 13.2735 18.7009 13.4886C18.6594 13.7996 18.719 14.0873 18.9656 14.3232C18.9085 14.3568 18.8488 14.3879 18.7891 14.4242C17.8445 14.9685 16.8921 15.5023 15.9552 16.0621C15.1066 16.5701 14.2762 17.1092 13.534 17.7674C13.3212 17.9566 13.1395 18.1873 12.9553 18.4076C12.8437 18.5397 12.8022 18.7082 12.8696 18.8715C12.9345 19.0347 13.0098 19.2006 13.1136 19.3405C13.2407 19.509 13.3938 19.6593 13.5495 19.8044C15.2883 21.4216 17.2009 22.7952 19.2796 23.9459C19.3341 23.9744 19.3938 23.9951 19.4483 24.0236L19.4431 24.0133Z" fill="#0A0D18"/>
<path d="M20.1952 52.1117C20.0291 51.9354 19.8915 51.7385 19.7929 51.5182C19.5801 51.0439 19.3725 50.5645 19.1623 50.0876C19.1415 50.0384 19.1311 49.9684 19.0922 49.9425C18.9158 49.8259 18.8976 49.6393 18.8639 49.4578C18.8223 49.2427 18.7704 49.0328 18.7237 48.8177C18.7004 48.7115 18.6692 48.6026 18.6718 48.4963C18.677 48.3253 18.7185 48.1568 18.7289 47.9858C18.7393 47.8018 18.7393 47.6152 18.7289 47.4312C18.7211 47.3301 18.6796 47.229 18.6381 47.0735C18.5602 47.1694 18.5265 47.2316 18.472 47.2731C18.2825 47.4182 18.0983 47.5763 17.8907 47.6904C17.4391 47.9366 16.9954 47.8951 16.5724 47.6022C16.5075 47.5556 16.4374 47.5167 16.3699 47.4752C16.2765 47.6152 16.2609 47.6696 16.2557 47.8355C16.2454 48.1232 16.2557 48.4134 16.2194 48.6985C16.1571 49.152 16.0767 49.6056 15.9807 50.0539C15.8276 50.7744 15.9547 51.443 16.3232 52.0728C16.4089 52.2205 16.5049 52.3631 16.5879 52.5134C16.7618 52.8295 16.9279 53.1509 17.0966 53.4697C17.0836 53.4775 17.0706 53.4852 17.0576 53.493C17.0161 53.4334 16.972 53.3764 16.9383 53.3168C16.6165 52.7648 16.2973 52.2127 15.9755 51.6607C15.9366 51.5933 15.9184 51.5052 15.8042 51.4871C15.8042 51.6348 15.8795 51.7437 15.9365 51.8551C16.2999 52.5704 16.6658 53.2857 17.0369 53.9958C17.1381 54.1902 17.2445 54.3871 17.3768 54.5608C17.5377 54.7733 17.7142 54.978 17.9114 55.1568C18.1917 55.4108 18.5421 55.5223 18.9209 55.4963C19.5178 55.4575 20.042 55.1983 20.5533 54.9132C20.5896 54.8925 20.6207 54.864 20.6519 54.8381C21.0957 54.4934 21.2306 54.0191 21.0282 53.4982C20.831 52.9928 20.5792 52.5108 20.2003 52.1091L20.1952 52.1117Z" fill="#0A0D18"/>
<path d="M35.1278 50.8495C34.9228 50.2457 34.5906 49.7403 33.9937 49.4501C33.864 49.3879 33.729 49.3309 33.6097 49.2531C33.4436 49.1468 33.2827 49.0276 33.1296 48.9032C33.0102 48.8073 32.9401 48.6933 32.9816 48.5145C33.0309 48.2994 32.9219 48.1854 32.6988 48.1465C32.6572 48.1387 32.6157 48.1413 32.5768 48.1335C32.4548 48.1102 32.3355 48.0558 32.3043 47.9392C32.2602 47.7681 32.1434 47.7137 31.9981 47.6826C31.8917 47.6593 31.8424 47.5996 31.819 47.4908C31.7801 47.3172 31.7282 47.1461 31.6607 46.9828C31.5984 46.8351 31.5491 46.7029 31.5777 46.5345C31.6218 46.2831 31.5024 46.1483 31.2481 46.1121C31.0716 46.0887 30.9263 46.0343 30.9081 45.8192C30.8225 45.8451 30.7498 45.8659 30.6772 45.8866C29.9713 46.0861 29.2654 46.1743 28.5569 45.8995C28.4454 45.8555 28.3805 45.8788 28.3545 45.9954C28.3286 46.1121 28.3234 46.2416 28.339 46.3583C28.3623 46.5189 28.3779 46.6667 28.2948 46.817C28.2611 46.874 28.2481 46.9492 28.2455 47.0165C28.2274 47.4234 28.2611 47.8251 28.3883 48.2139C28.4116 48.2838 28.4428 48.3564 28.4895 48.416C28.5336 48.473 28.5985 48.5197 28.6633 48.5508C28.7853 48.6104 28.9203 48.6467 29.037 48.7115C29.4834 48.9628 29.8753 49.2842 30.2308 49.6522C30.5993 50.0306 30.9626 50.4142 31.3415 50.7822C31.819 51.2435 32.3432 51.64 32.9842 51.8499C32.9894 51.8499 32.9894 51.8655 32.9946 51.8784C32.4341 51.8577 31.954 51.6918 31.5517 51.2746C31.0768 50.7796 30.5708 50.3131 30.0543 49.8595C29.6625 49.5175 29.2369 49.2116 28.8217 48.8981C28.7153 48.8177 28.5855 48.7711 28.435 48.6907C28.3935 48.9343 28.409 49.1417 28.4246 49.3542C28.4454 49.6185 28.5725 49.7637 28.8294 49.8233C29.3147 49.9373 29.7351 50.1809 30.1062 50.5075C30.3839 50.7537 30.6356 51.0258 30.9081 51.2798C31.1131 51.4715 31.3234 51.6607 31.5491 51.8292C31.8372 52.0443 32.1668 52.1816 32.5301 52.2257C33.0595 52.2853 33.5837 52.262 34.1053 52.1428C34.3207 52.0935 34.5361 52.0313 34.71 51.894C35.0941 51.5933 35.2731 51.2694 35.1304 50.8495H35.1278Z" fill="#0A0D18"/>
<path d="M24.9316 8.23256C24.9186 8.2222 24.9082 8.21184 24.9082 8.21184V7.94256L24.9316 8.23256Z" fill="#0A0D18"/>
<path d="M27.1115 4.81965C27.0907 4.77818 27.0726 4.72376 27.0336 4.69266C26.974 4.64342 26.9117 4.67711 26.852 4.70562C26.7689 4.74708 26.6859 4.78596 26.6054 4.83001C26.7196 4.8041 26.8416 4.79114 26.9506 4.83261C27.0207 4.86111 27.0726 4.89481 27.1478 4.87407C27.1348 4.85334 27.1245 4.8352 27.1115 4.81706V4.81965ZM27.1115 4.81965C27.0907 4.77818 27.0726 4.72376 27.0336 4.69266C26.974 4.64342 26.9117 4.67711 26.852 4.70562C26.7689 4.74708 26.6859 4.78596 26.6054 4.83001C26.7196 4.8041 26.8416 4.79114 26.9506 4.83261C27.0207 4.86111 27.0726 4.89481 27.1478 4.87407C27.1348 4.85334 27.1245 4.8352 27.1115 4.81706V4.81965ZM27.1115 4.81965C27.0907 4.77818 27.0726 4.72376 27.0336 4.69266C26.974 4.64342 26.9117 4.67711 26.852 4.70562C26.7689 4.74708 26.6859 4.78596 26.6054 4.83001C26.7196 4.8041 26.8416 4.79114 26.9506 4.83261C27.0207 4.86111 27.0726 4.89481 27.1478 4.87407C27.1348 4.85334 27.1245 4.8352 27.1115 4.81706V4.81965ZM27.1115 4.81965C27.0907 4.77818 27.0726 4.72376 27.0336 4.69266C26.974 4.64342 26.9117 4.67711 26.852 4.70562C26.7689 4.74708 26.6859 4.78596 26.6054 4.83001C26.7196 4.8041 26.8416 4.79114 26.9506 4.83261C27.0207 4.86111 27.0726 4.89481 27.1478 4.87407C27.1348 4.85334 27.1245 4.8352 27.1115 4.81706V4.81965ZM27.1115 4.81965C27.0907 4.77818 27.0726 4.72376 27.0336 4.69266C26.974 4.64342 26.9117 4.67711 26.852 4.70562C26.7689 4.74708 26.6859 4.78596 26.6054 4.83001C26.7196 4.8041 26.8416 4.79114 26.9506 4.83261C27.0207 4.86111 27.0726 4.89481 27.1478 4.87407C27.1348 4.85334 27.1245 4.8352 27.1115 4.81706V4.81965ZM29.5431 7.71709C29.5405 7.69117 29.5405 7.71709 29.5327 7.73005C29.5276 7.73782 29.5198 7.7456 29.512 7.75596C29.4912 7.7741 29.4705 7.78965 29.4471 7.80002C29.486 7.78706 29.5276 7.78188 29.5613 7.7741C29.5535 7.75596 29.5483 7.73523 29.5405 7.71709H29.5431ZM29.5431 7.71709C29.5405 7.69117 29.5405 7.71709 29.5327 7.73005C29.5276 7.73782 29.5198 7.7456 29.512 7.75596C29.4912 7.7741 29.4705 7.78965 29.4471 7.80002C29.486 7.78706 29.5276 7.78188 29.5613 7.7741C29.5535 7.75596 29.5483 7.73523 29.5405 7.71709H29.5431ZM27.1115 4.81965C27.0907 4.77818 27.0726 4.72376 27.0336 4.69266C26.974 4.64342 26.9117 4.67711 26.852 4.70562C26.7689 4.74708 26.6859 4.78596 26.6054 4.83001C26.7196 4.8041 26.8416 4.79114 26.9506 4.83261C27.0207 4.86111 27.0726 4.89481 27.1478 4.87407C27.1348 4.85334 27.1245 4.8352 27.1115 4.81706V4.81965ZM27.1115 4.81965C27.0907 4.77818 27.0726 4.72376 27.0336 4.69266C26.974 4.64342 26.9117 4.67711 26.852 4.70562C26.7689 4.74708 26.6859 4.78596 26.6054 4.83001C26.7196 4.8041 26.8416 4.79114 26.9506 4.83261C27.0207 4.86111 27.0726 4.89481 27.1478 4.87407C27.1348 4.85334 27.1245 4.8352 27.1115 4.81706V4.81965ZM29.5431 7.71709C29.5405 7.69117 29.5405 7.71709 29.5327 7.73005C29.5276 7.73782 29.5198 7.7456 29.512 7.75596C29.4912 7.7741 29.4705 7.78965 29.4471 7.80002C29.486 7.78706 29.5276 7.78188 29.5613 7.7741C29.5535 7.75596 29.5483 7.73523 29.5405 7.71709H29.5431ZM29.5431 7.71709C29.5405 7.69117 29.5405 7.71709 29.5327 7.73005C29.5276 7.73782 29.5198 7.7456 29.512 7.75596C29.4912 7.7741 29.4705 7.78965 29.4471 7.80002C29.486 7.78706 29.5276 7.78188 29.5613 7.7741C29.5535 7.75596 29.5483 7.73523 29.5405 7.71709H29.5431ZM27.1115 4.81965C27.0907 4.77818 27.0726 4.72376 27.0336 4.69266C26.974 4.64342 26.9117 4.67711 26.852 4.70562C26.7689 4.74708 26.6859 4.78596 26.6054 4.83001C26.7196 4.8041 26.8416 4.79114 26.9506 4.83261C27.0207 4.86111 27.0726 4.89481 27.1478 4.87407C27.1348 4.85334 27.1245 4.8352 27.1115 4.81706V4.81965ZM29.486 4.70821C29.4186 4.63564 29.3822 4.51902 29.3563 4.41535C29.3199 4.25208 29.307 4.07844 29.2784 3.90999C29.2784 3.90999 29.281 2.50273 28.3961 2.10881H28.3935C28.1288 1.87038 27.8355 1.67341 27.5008 1.53865C27.4021 1.49977 27.3425 1.44794 27.2983 1.35205C27.2257 1.18619 27.1245 1.02551 26.9584 0.950349C26.6522 0.815584 26.3407 0.678228 26.0189 0.595296C25.4558 0.455348 24.8901 0.473489 24.3243 0.623803C24.3243 0.623803 21.8564 1.16286 21.4697 2.85779C21.327 3.06512 21.218 3.29836 21.1375 3.54716C21.0804 3.71302 21.0467 3.88925 21.1168 4.09399C21.7941 3.58085 22.4377 3.04698 23.1721 2.64268C22.775 3.06512 22.3702 3.47459 21.9602 3.87889C21.8564 3.97737 21.7474 4.07585 21.6254 4.14842C21.4879 4.23653 21.3373 4.3091 21.1842 4.36093C20.9922 4.42313 20.9299 4.46978 20.9688 4.66674C21.0155 4.88703 20.961 5.09954 20.9455 5.31465V5.31983C20.9403 6.50161 21.5994 8.0851 21.7993 8.53863C21.8304 8.60861 21.846 8.65007 21.8538 8.66303C21.916 8.70709 21.9731 8.74596 22.038 8.78484C22.4039 9.00513 22.7828 9.20209 23.1903 9.32649C23.2603 9.34981 23.3356 9.36277 23.4057 9.37055C23.4057 9.37055 23.6522 9.40942 23.9143 9.50013C24.1764 9.59343 24.4567 9.74115 24.519 9.9744C24.5631 10.1273 24.6072 10.2724 24.6461 10.4253C24.6928 10.6119 24.6565 10.7985 24.5761 10.9696C24.5579 11.011 24.5371 11.0499 24.5112 11.1095C24.6046 11.1406 24.6825 11.1691 24.7577 11.1899C25.5103 11.4231 26.2759 11.5657 27.0648 11.5553C27.7473 11.5449 28.4013 11.4127 29.0111 11.094C29.0838 11.0603 29.1487 11.0162 29.2473 10.9566C29.1642 10.8918 29.1045 10.8478 29.0475 10.8037C28.8814 10.6897 28.7438 10.5471 28.6945 10.3424C28.627 10.0677 28.6193 9.78521 28.6426 9.48717L26.7041 10.4383L24.6046 9.30835L24.5216 8.89887C24.4982 8.86 24.4722 8.8263 24.4515 8.79261C24.4722 8.81594 24.4904 8.83926 24.5138 8.8574L24.4385 8.49717C24.6254 8.62416 25.8788 9.40424 28.6426 9.48458C28.7308 9.47421 28.8113 9.46644 28.8892 9.45348C29.0578 9.42238 29.2317 9.40165 29.3926 9.34463C29.8338 9.18913 30.1063 8.71746 30.0621 8.25874C30.0336 8.01253 30.031 7.76374 30.0232 7.51753C30.0076 6.96811 30.0077 6.41609 29.9765 5.87185C29.9557 5.43127 29.8 5.02957 29.4886 4.69784L29.486 4.70821ZM26.6314 1.44794C26.4964 1.43498 26.4238 1.39352 26.3615 1.29504C26.2914 1.1836 26.1798 1.09289 26.0864 0.994406C26.0449 0.950349 26.0008 0.914066 25.9437 0.859642C26.1876 0.895924 26.32 1.00477 26.6314 1.45053V1.44794ZM21.9161 2.38611C21.7422 2.51569 21.5968 2.6686 21.4775 2.83964C21.5994 2.63491 22.6583 0.95294 24.4281 0.758568C24.6487 0.758568 24.8641 0.779301 25.0795 0.838909C25.448 0.939982 25.762 1.13176 26.0008 1.43239C25.9748 1.46608 25.967 1.48422 25.9567 1.48422C25.8035 1.53087 25.6556 1.58011 25.4895 1.62935C25.2975 1.45312 25.0769 1.36242 24.8278 1.35723C24.6695 1.35464 24.5086 1.34946 24.3529 1.37019C23.4446 1.47904 22.6375 1.83669 21.9135 2.38611H21.9161ZM23.0787 4.64342C22.666 4.96478 22.2249 5.24208 21.7552 5.4857C21.6695 5.52975 21.5813 5.56345 21.4879 5.58677C21.4256 5.60232 21.3555 5.59454 21.2699 5.59714C21.2673 5.50125 21.2647 5.43905 21.2673 5.37944C21.9628 5.27059 22.5337 4.90776 23.0994 4.54234C23.0916 4.57604 23.089 4.61232 23.0813 4.64601L23.0787 4.64342ZM23.3408 6.57936L23.3719 6.8463C23.3719 6.8463 22.4273 6.34612 21.9783 7.00698C21.9965 6.94478 22.1678 6.42646 22.6323 6.45237C23.1228 6.48088 23.3408 6.57936 23.3408 6.57936ZM23.8572 9.15803C23.8572 9.15803 22.8321 9.31871 22.2794 8.62157C21.7318 7.92183 21.5449 7.20135 21.5449 7.20135C21.5216 7.14434 21.4982 7.08991 21.4749 7.03549C21.3944 6.84371 21.4334 6.65452 21.519 6.47829C21.5943 6.31761 21.7084 6.18803 21.8616 6.1025C21.9991 6.02476 22.1444 5.96256 22.2846 5.89258C22.5129 5.78114 22.7387 5.67229 22.9878 5.55567C22.9852 5.5764 22.9852 5.59714 22.9852 5.61787C22.9515 5.69044 22.9178 5.75523 22.9126 5.82002C22.9074 5.90554 22.9645 5.99106 23.0008 6.1051C22.9126 6.09473 22.8321 6.09991 22.7569 6.08436C22.4091 6.01957 22.1211 6.14397 21.8745 6.37722C21.6773 6.56381 21.5968 6.79965 21.6306 7.06659C21.6721 7.40868 21.8122 7.69635 22.064 7.92701C22.0666 7.92701 22.0692 7.92701 22.0692 7.93219C22.2067 8.02808 23.2058 8.62934 23.756 8.6734L23.9792 8.64748C24.0155 8.6423 24.2127 9.20987 24.2127 9.20987L23.8598 9.15803H23.8572ZM23.2525 3.94109C23.1332 4.07067 23.0086 4.20543 22.8762 4.35056C22.8762 4.35056 21.2776 5.12546 21.1972 4.99588C21.1168 4.86111 21.1557 4.5553 21.1557 4.5553C21.2958 4.5242 22.4195 4.25727 23.8079 2.56234C23.8079 2.56234 24.3321 1.87556 25.012 1.81595C24.0285 2.30059 23.5172 3.1325 23.2525 3.9385V3.94109ZM27.3347 4.82742C27.3347 4.82742 27.3347 4.8352 27.3347 4.83779C27.3217 4.94923 27.2568 5.04771 27.1271 5.04771C27.0362 5.04771 26.9714 4.98033 26.8857 4.96737C26.7975 4.95182 26.6911 4.96996 26.6028 4.9881C26.4134 5.0218 26.2266 5.08659 26.0579 5.17988C25.9774 5.22394 25.8996 5.27837 25.8269 5.33538C25.7646 5.38462 25.7049 5.45201 25.6219 5.46496C25.5907 5.46756 25.5907 5.33797 25.5933 5.31983C25.6219 5.13842 25.775 5.00365 25.9203 4.91036C26.102 4.79892 26.2966 4.71339 26.4861 4.6175C26.5743 4.57344 26.6573 4.52939 26.7456 4.48792C26.8131 4.45682 26.8935 4.40499 26.9662 4.4309C27.0752 4.46978 27.0855 4.60973 27.1504 4.69007C27.2049 4.76004 27.2724 4.71598 27.2854 4.64083C27.2983 4.56308 27.2594 4.462 27.2361 4.38685C27.2075 4.29096 27.1712 4.19507 27.1271 4.10436C27.1037 4.05253 27.0985 4.03179 27.0388 4.03698C26.9973 4.03698 26.9506 4.05253 26.9091 4.0603C26.5613 4.13546 26.2188 4.26763 25.9281 4.48015C25.666 4.67452 25.4818 4.92072 25.3183 5.20062C25.3183 5.2058 25.2923 5.13324 25.3001 5.11769C25.4065 4.77818 25.6504 4.50865 25.9281 4.29355C26.0968 4.16915 26.2785 4.06548 26.4679 3.98255C26.6573 3.89962 26.8546 3.81669 27.057 3.77263C27.0648 3.77263 27.07 3.78041 27.0726 3.78818C27.2049 4.05253 27.3139 4.35316 27.3425 4.64601C27.345 4.69784 27.3528 4.76782 27.3373 4.83001L27.3347 4.82742ZM28.531 3.39685C28.5466 3.38389 28.5881 3.52383 28.5648 3.55234C28.448 3.68192 28.3779 3.85815 28.3883 4.03698C28.4013 4.20802 28.518 4.36611 28.6322 4.48792C28.7412 4.60454 28.871 4.70043 29.0085 4.78596C29.1357 4.86889 29.2447 4.95701 29.2914 5.10732C29.2966 5.12805 29.3147 5.29651 29.2966 5.27577C29.2862 5.26541 29.2914 5.24468 29.2836 5.23431C29.2732 5.20839 29.2473 5.18507 29.2239 5.16433C29.1045 5.06067 28.9566 4.9881 28.8347 4.88962C28.5933 4.70043 28.4142 4.45164 28.352 4.14323C28.3001 3.88148 28.3208 3.58085 28.5336 3.39425L28.531 3.39685ZM28.5881 7.45793C28.5881 7.45793 28.5648 7.39573 28.5622 7.39054C28.557 7.37499 28.5492 7.33094 28.5622 7.31798C28.6867 7.22209 28.8191 7.13656 28.9644 7.07696C29.1123 7.01994 29.2628 6.98107 29.4186 6.95774C29.4263 6.95774 29.4315 6.99921 29.4263 7.0018C29.2706 7.04845 29.1227 7.11324 28.9826 7.19358C28.845 7.27392 28.7101 7.35944 28.5855 7.46052L28.5881 7.45793ZM29.5301 7.86999C29.486 7.90628 29.4289 7.92701 29.3744 7.93738C29.3199 7.94774 29.2603 7.95033 29.2058 7.95293C29.1902 7.9607 29.1694 7.96588 29.1539 7.97366C29.0864 7.99958 29.0189 8.03586 28.9462 8.04882C28.9125 8.05659 28.8788 8.05918 28.8502 8.06437C28.8321 8.06437 28.8087 8.07473 28.7931 8.06696C28.7698 8.05918 28.7438 8.01253 28.7308 7.99958C28.7101 7.97366 28.7023 7.93219 28.6997 7.90109C28.6945 7.8674 28.6919 7.82853 28.6997 7.80002C28.7101 7.7767 28.7179 7.71968 28.7412 7.70413C28.7568 7.69635 28.7776 7.69376 28.7905 7.68858C28.8243 7.67821 28.8554 7.66785 28.8892 7.66007C28.9566 7.64452 29.0345 7.64711 29.1045 7.64193C29.1409 7.64193 29.1772 7.63934 29.2135 7.63416C29.2473 7.63416 29.2836 7.62638 29.3148 7.63934C29.3537 7.65489 29.3874 7.6834 29.4289 7.67821C29.4679 7.67821 29.5094 7.66266 29.5457 7.65489C29.5587 7.65489 29.5665 7.70413 29.5665 7.7119C29.5769 7.76892 29.5743 7.82594 29.5301 7.8674V7.86999ZM29.3952 5.50125C29.3641 5.58936 29.3225 5.67229 29.2836 5.76041C29.2421 5.84334 29.2006 5.93405 29.1383 6.00661C29.0812 6.07918 29.0163 6.14397 28.9514 6.20617C28.9203 6.23209 28.8866 6.27096 28.8502 6.2891C28.8347 6.29688 28.8061 6.30465 28.7905 6.30724C28.7568 6.31243 28.7464 6.28133 28.7231 6.26059C28.6997 6.23986 28.6945 6.19062 28.6919 6.15952C28.6867 6.12583 28.6841 6.08695 28.6919 6.05585C28.7075 6.01439 28.7049 5.98329 28.7386 5.95478C28.7568 5.94182 28.775 5.9185 28.7957 5.90813C28.8269 5.88481 28.8658 5.87444 28.8995 5.8563C28.9644 5.82002 29.0319 5.78114 29.0916 5.73449C29.1461 5.69303 29.2032 5.66452 29.2551 5.62564C29.3122 5.58159 29.3511 5.52975 29.3874 5.47274C29.39 5.47274 29.3952 5.49606 29.3926 5.50384L29.3952 5.50125ZM29.5327 7.72745C29.5327 7.72745 29.5198 7.743 29.512 7.75337C29.4912 7.77151 29.4705 7.78706 29.4471 7.79743C29.486 7.78447 29.5276 7.77929 29.5613 7.77151C29.5535 7.75337 29.5483 7.73264 29.5405 7.7145C29.5379 7.68858 29.5379 7.7145 29.5301 7.72745H29.5327ZM27.0336 4.69266C26.974 4.64342 26.9117 4.67711 26.852 4.70562C26.7689 4.74708 26.6859 4.78596 26.6054 4.83001C26.7196 4.8041 26.8416 4.79114 26.9506 4.83261C27.0207 4.86111 27.0726 4.89481 27.1478 4.87407C27.1348 4.85334 27.1245 4.8352 27.1115 4.81706C27.0907 4.77559 27.0726 4.72117 27.0336 4.69007V4.69266ZM27.1115 4.81965C27.0907 4.77818 27.0726 4.72376 27.0336 4.69266C26.974 4.64342 26.9117 4.67711 26.852 4.70562C26.7689 4.74708 26.6859 4.78596 26.6054 4.83001C26.7196 4.8041 26.8416 4.79114 26.9506 4.83261C27.0207 4.86111 27.0726 4.89481 27.1478 4.87407C27.1348 4.85334 27.1245 4.8352 27.1115 4.81706V4.81965ZM29.5431 7.71709C29.5405 7.69117 29.5405 7.71709 29.5327 7.73005C29.5276 7.73782 29.5198 7.7456 29.512 7.75596C29.4912 7.7741 29.4705 7.78965 29.4471 7.80002C29.486 7.78706 29.5276 7.78188 29.5613 7.7741C29.5535 7.75596 29.5483 7.73523 29.5405 7.71709H29.5431ZM29.5431 7.71709C29.5405 7.69117 29.5405 7.71709 29.5327 7.73005C29.5276 7.73782 29.5198 7.7456 29.512 7.75596C29.4912 7.7741 29.4705 7.78965 29.4471 7.80002C29.486 7.78706 29.5276 7.78188 29.5613 7.7741C29.5535 7.75596 29.5483 7.73523 29.5405 7.71709H29.5431ZM27.1115 4.81965C27.0907 4.77818 27.0726 4.72376 27.0336 4.69266C26.974 4.64342 26.9117 4.67711 26.852 4.70562C26.7689 4.74708 26.6859 4.78596 26.6054 4.83001C26.7196 4.8041 26.8416 4.79114 26.9506 4.83261C27.0207 4.86111 27.0726 4.89481 27.1478 4.87407C27.1348 4.85334 27.1245 4.8352 27.1115 4.81706V4.81965ZM27.1115 4.81965C27.0907 4.77818 27.0726 4.72376 27.0336 4.69266C26.974 4.64342 26.9117 4.67711 26.852 4.70562C26.7689 4.74708 26.6859 4.78596 26.6054 4.83001C26.7196 4.8041 26.8416 4.79114 26.9506 4.83261C27.0207 4.86111 27.0726 4.89481 27.1478 4.87407C27.1348 4.85334 27.1245 4.8352 27.1115 4.81706V4.81965ZM29.5431 7.71709C29.5405 7.69117 29.5405 7.71709 29.5327 7.73005C29.5276 7.73782 29.5198 7.7456 29.512 7.75596C29.4912 7.7741 29.4705 7.78965 29.4471 7.80002C29.486 7.78706 29.5276 7.78188 29.5613 7.7741C29.5535 7.75596 29.5483 7.73523 29.5405 7.71709H29.5431ZM29.5431 7.71709C29.5405 7.69117 29.5405 7.71709 29.5327 7.73005C29.5276 7.73782 29.5198 7.7456 29.512 7.75596C29.4912 7.7741 29.4705 7.78965 29.4471 7.80002C29.486 7.78706 29.5276 7.78188 29.5613 7.7741C29.5535 7.75596 29.5483 7.73523 29.5405 7.71709H29.5431ZM27.1115 4.81965C27.0907 4.77818 27.0726 4.72376 27.0336 4.69266C26.974 4.64342 26.9117 4.67711 26.852 4.70562C26.7689 4.74708 26.6859 4.78596 26.6054 4.83001C26.7196 4.8041 26.8416 4.79114 26.9506 4.83261C27.0207 4.86111 27.0726 4.89481 27.1478 4.87407C27.1348 4.85334 27.1245 4.8352 27.1115 4.81706V4.81965ZM27.1115 4.81965C27.0907 4.77818 27.0726 4.72376 27.0336 4.69266C26.974 4.64342 26.9117 4.67711 26.852 4.70562C26.7689 4.74708 26.6859 4.78596 26.6054 4.83001C26.7196 4.8041 26.8416 4.79114 26.9506 4.83261C27.0207 4.86111 27.0726 4.89481 27.1478 4.87407C27.1348 4.85334 27.1245 4.8352 27.1115 4.81706V4.81965ZM27.1115 4.81965C27.0907 4.77818 27.0726 4.72376 27.0336 4.69266C26.974 4.64342 26.9117 4.67711 26.852 4.70562C26.7689 4.74708 26.6859 4.78596 26.6054 4.83001C26.7196 4.8041 26.8416 4.79114 26.9506 4.83261C27.0207 4.86111 27.0726 4.89481 27.1478 4.87407C27.1348 4.85334 27.1245 4.8352 27.1115 4.81706V4.81965ZM27.1115 4.81965C27.0907 4.77818 27.0726 4.72376 27.0336 4.69266C26.974 4.64342 26.9117 4.67711 26.852 4.70562C26.7689 4.74708 26.6859 4.78596 26.6054 4.83001C26.7196 4.8041 26.8416 4.79114 26.9506 4.83261C27.0207 4.86111 27.0726 4.89481 27.1478 4.87407C27.1348 4.85334 27.1245 4.8352 27.1115 4.81706V4.81965ZM27.1115 4.81965C27.0907 4.77818 27.0726 4.72376 27.0336 4.69266C26.974 4.64342 26.9117 4.67711 26.852 4.70562C26.7689 4.74708 26.6859 4.78596 26.6054 4.83001C26.7196 4.8041 26.8416 4.79114 26.9506 4.83261C27.0207 4.86111 27.0726 4.89481 27.1478 4.87407C27.1348 4.85334 27.1245 4.8352 27.1115 4.81706V4.81965Z" fill="#0A0D18"/>
<path d="M21.7291 5.3017C20.2214 5.71118 18.6202 6.13102 17.0631 5.71636C16.7076 5.62306 16.3494 5.4883 16.038 5.28874C15.8979 5.19804 15.7681 5.08919 15.6695 4.95442C15.4749 4.68489 15.5969 4.38427 15.7681 4.14584C16.2041 3.53939 16.9671 3.18175 17.6937 3.08327C17.7352 3.07809 17.7249 2.84225 17.6885 2.84225C16.8789 2.87335 15.9368 3.23617 15.5709 4.01625C15.2725 4.65379 15.4801 5.39241 16.0614 5.78115C16.7932 6.26838 17.7923 6.35131 18.6461 6.29948C19.7049 6.23469 20.73 5.91851 21.7369 5.60751C21.8018 5.58678 21.7577 5.29393 21.7291 5.3017Z" fill="#0A0D18"/>
<path d="M19.2115 34.9188C19.2712 34.9603 20.6904 35.8725 21.5051 35.8596L21.7386 36.2768C21.7386 36.2768 19.6915 35.6419 19.0688 35.2583L19.2115 34.9188Z" fill="#0A0D18"/>
<path d="M31.1465 28.3128C31.1569 26.3768 31.1387 24.3735 30.817 22.4583C31.0557 22.8004 31.3359 23.0958 31.476 23.5027C31.6006 23.8629 31.6369 24.2465 31.6524 24.6223C31.694 25.7289 31.655 26.8381 31.5435 27.9396C31.4397 28.984 31.2737 30.0232 31.0427 31.0443C31.1284 30.1373 31.1413 29.225 31.1465 28.3128Z" fill="#0A0D18"/>
<path d="M30.7552 22.1265C30.776 22.238 30.7967 22.3468 30.8175 22.4583C30.7941 22.4272 30.7734 22.3961 30.7526 22.3624C30.7293 22.3261 30.7007 22.1861 30.6877 22.0462C30.7085 22.0021 30.7319 22.0021 30.7552 22.1239V22.1265Z" fill="#0A0D18"/>
<path d="M31.012 31.3242C30.9601 31.7985 30.8874 32.2754 30.7811 32.7418C30.7032 33.0891 30.6254 33.6023 30.3893 33.877C30.3582 33.9133 30.3322 33.7915 30.3167 33.6489C30.3192 33.6411 30.3218 33.6282 30.3218 33.6204C30.6072 32.7755 30.8485 31.9125 31.0431 31.0417C31.0327 31.1376 31.0224 31.2283 31.012 31.3242Z" fill="#0A0D18"/>
<path d="M30.8172 22.4583C31.1389 24.3735 31.1571 26.3768 31.1467 28.3128C31.1415 29.2224 31.1311 30.1347 31.0429 31.0443C30.8483 31.9151 30.6071 32.7781 30.3217 33.623C30.3787 33.2472 30.428 32.8688 30.4669 32.4905C30.6071 31.8374 30.7523 31.1895 30.8094 30.5105C30.8847 29.6423 30.9028 28.7663 30.9028 27.8955C30.9028 26.0088 30.7446 24.1351 30.6563 22.2535C30.6538 22.1939 30.6667 22.098 30.6875 22.0488C30.6979 22.1887 30.729 22.3287 30.7523 22.365C30.7731 22.3987 30.7939 22.4298 30.8172 22.4609V22.4583Z" fill="#0A0D18"/>
<path d="M30.4666 32.4905C30.4277 32.8714 30.3784 33.2472 30.3213 33.623C30.3187 33.6282 30.3187 33.6334 30.3161 33.6386C30.3005 33.4934 30.2928 33.3276 30.3005 33.2965C30.3498 33.0269 30.4095 32.7574 30.4692 32.4905H30.4666Z" fill="#0A0D18"/>
<path d="M30.322 33.623C30.322 33.623 30.3193 33.6445 30.3167 33.6525V33.6418C30.3167 33.6418 30.3193 33.631 30.322 33.6257V33.623Z" fill="#0A0D18"/>
<path d="M31.7745 27.6337C31.5773 30.0362 31.0403 32.3946 30.2178 34.6571C30.2204 34.5845 30.2204 34.4653 30.1919 34.4731C30.1893 34.4731 30.1867 34.4756 30.1841 34.4756C30.2282 34.1983 30.2775 33.9262 30.3164 33.6489C30.332 33.7915 30.3579 33.9133 30.389 33.877C30.6226 33.5997 30.703 33.0865 30.7808 32.7418C30.8872 32.2754 30.9598 31.7985 31.0117 31.3242C31.0221 31.2283 31.0325 31.1376 31.0429 31.0417C31.2712 30.0206 31.4398 28.9814 31.5436 27.937C31.6552 26.8381 31.6941 25.7263 31.6526 24.6197C31.6396 24.2439 31.6033 23.8603 31.4761 23.5001C31.336 23.0932 31.0532 22.8004 30.8171 22.4557C30.7964 22.3442 30.7756 22.2354 30.7549 22.1239C30.7315 22.0021 30.7082 22.0021 30.6874 22.0462C30.677 21.9037 30.6874 21.7611 30.7549 21.7508C31.1622 21.6756 31.4035 22.2561 31.528 22.5801C31.7045 23.0336 31.7823 23.5234 31.8238 24.0029C31.9302 25.2028 31.8705 26.4338 31.7745 27.6312V27.6337Z" fill="#0A0D18"/>
<path d="M30.2123 34.7088C30.1915 34.7736 30.1681 34.8305 30.1343 34.8823C30.1655 34.8072 30.1915 34.7347 30.2175 34.6597C30.2175 34.6855 30.2149 34.7037 30.2123 34.7088Z" fill="#0A0D18"/>
<path d="M30.1113 34.9188C30.1373 34.7711 30.158 34.6259 30.184 34.4782C30.1866 34.4782 30.1892 34.4756 30.1918 34.4756C30.2203 34.4679 30.2203 34.5871 30.2177 34.6596C30.1892 34.7348 30.1658 34.8074 30.1347 34.8825C30.1295 34.8929 30.1217 34.9084 30.1113 34.9188Z" fill="#0A0D18"/>
<path d="M30.104 34.9266C30.078 34.8048 30.0573 34.6804 30.0339 34.556C30.0806 34.5249 30.1325 34.499 30.1844 34.4782C30.1585 34.626 30.1377 34.7711 30.1118 34.9188L30.104 34.9266Z" fill="#0A0D18"/>
<path d="M30.1119 34.9188C30.1119 34.9188 30.1092 34.9351 30.1065 34.9459C30.1065 34.9405 30.1038 34.9351 30.1038 34.9297L30.1119 34.9215V34.9188Z" fill="#0A0D18"/>
<path d="M30.036 35.0001C30.0622 34.9766 30.0832 34.9557 30.1042 34.927C30.1042 34.9322 30.1069 34.9374 30.1069 34.9426C30.1095 34.9348 30.1095 34.927 30.1121 34.9165C30.12 34.9061 30.1278 34.8904 30.1357 34.88C30.1252 34.9165 30.1095 34.9531 30.0964 34.9897C30.0727 35.0524 30.0518 35.0341 30.036 34.9975V35.0001Z" fill="#0A0D18"/>
<path d="M30.1841 34.4782C30.1322 34.5016 30.0803 34.5249 30.0336 34.556L30.0181 34.4731C30.1218 34.1958 30.223 33.921 30.3164 33.6411V33.6515C30.2775 33.9288 30.2308 34.2009 30.1841 34.4782Z" fill="#0A0D18"/>
<path d="M30.0339 34.556C30.0573 34.6804 30.0781 34.8048 30.104 34.9266C30.0832 34.9551 30.0625 34.9758 30.0365 34.9992C30.0236 34.9706 30.0132 34.9318 30.008 34.9162C29.9743 34.8177 29.9795 34.6882 29.995 34.5793C30.0054 34.5715 30.021 34.5638 30.0339 34.556Z" fill="#0A0D18"/>
<path d="M29.6056 35.3698C29.6108 35.3957 29.6186 35.4138 29.616 35.432C29.4551 36.1187 29.437 36.8159 29.4058 37.5182C29.3928 37.8681 29.3617 38.2154 29.2527 38.5523C29.1826 38.77 29.1749 38.9825 29.2294 39.2002C29.5589 40.4623 29.7588 41.7478 30.0183 43.0254C30.1013 43.4323 30.2233 43.834 30.3427 44.2331C30.3868 44.3731 30.3582 44.4664 30.2778 44.57C30.0338 44.8733 29.7017 44.9769 29.3358 45.0054C29.0321 45.0262 28.7337 44.9743 28.4378 44.8992C28.3159 44.8681 28.2224 44.8033 28.1731 44.6944C28.0641 44.4664 27.9474 44.2383 27.8591 44.0025C27.6411 43.4194 27.4491 42.8233 27.2233 42.2428C27.0183 41.7167 26.7899 41.2035 26.5668 40.6878C26.1982 39.8403 26.1334 38.9514 26.2424 38.0469C26.2761 37.7566 26.2683 37.4819 26.1853 37.1994C26.0451 36.7096 25.9465 36.2146 25.9102 35.7067C25.9076 35.6574 25.9076 35.6056 25.9076 35.5486C25.9725 35.5408 26.0374 35.5278 26.097 35.5149C26.6109 35.673 27.1273 35.6756 27.6437 35.6497C28.2614 35.6134 28.8712 35.5175 29.4759 35.3905C29.5148 35.3827 29.5563 35.3801 29.6005 35.3749L29.6056 35.3698Z" fill="#0A0D18"/>
<path d="M30.0149 34.4705L30.0304 34.5534C30.0175 34.5586 30.0019 34.5664 29.9915 34.5767L29.9993 34.5171C30.3158 32.6563 30.6531 30.7256 30.2017 28.857C29.7839 27.131 28.8837 25.5086 28.0041 23.9821C27.9963 23.9692 28.0067 23.9174 28.0067 23.9174C29.0264 25.4749 30.0045 27.0221 30.3677 28.8777C30.6012 30.0751 30.5856 31.2802 30.4637 32.4853C30.404 32.7522 30.347 33.0217 30.2951 33.2913C30.2899 33.325 30.2951 33.4882 30.3106 33.6334C30.2146 33.9133 30.116 34.188 30.0123 34.4653L30.0149 34.4705Z" fill="#0A0D18"/>
<path d="M30.0068 34.9162C30.012 34.9318 30.0198 34.9732 30.0354 34.9992C29.9549 35.0717 29.8538 35.1158 29.724 35.1469C29.4983 35.1961 29.257 35.1832 29.0287 35.1443C28.8626 35.1158 28.7277 35.0406 28.5643 34.9966C28.419 34.9577 28.2763 34.9136 28.1336 34.8592C27.9468 34.7892 27.7652 34.7063 27.5862 34.6104C27.5913 34.5327 27.5836 34.4523 27.5784 34.4005C27.7704 34.4938 27.9727 34.5741 28.1777 34.6389C28.3126 34.6804 28.4449 34.7167 28.5824 34.7452C28.6603 34.7607 28.7225 34.7504 28.8004 34.7478C28.8678 34.7452 28.9327 34.7581 28.995 34.7685C29.2207 34.7944 29.4568 34.7944 29.6773 34.7348C29.7967 34.7011 29.8927 34.6363 29.9939 34.5793C29.9809 34.6882 29.9731 34.8203 30.0068 34.9162Z" fill="#0A0D18"/>
<path d="M27.5786 34.3925V34.4003C27.5058 34.3666 27.4381 34.3304 27.3679 34.2915C27.4095 34.2527 27.4485 34.2164 27.4876 34.1776C27.5474 34.118 27.5734 34.3614 27.576 34.3925H27.5786Z" fill="#0A0D18"/>
<path d="M27.3636 34.2917H27.3668L27.3604 34.298L27.3636 34.2917Z" fill="#0A0D18"/>
<path d="M27.5789 34.4007C27.5841 34.4501 27.5919 34.5332 27.5867 34.6112C27.5113 34.5722 27.4359 34.5306 27.3605 34.4865C27.3241 34.4657 27.3527 34.3254 27.3605 34.2994L27.3657 34.2942H27.3683C27.4385 34.3332 27.5061 34.3696 27.5789 34.4033V34.4007Z" fill="#0A0D18"/>
<path d="M26.1041 35.5128C26.0412 35.5259 25.9782 35.5389 25.9126 35.5467C25.9152 35.5154 25.9152 35.4841 25.9152 35.4475C25.9782 35.4736 26.0412 35.4919 26.1041 35.5128Z" fill="#0A0D18"/>
<path d="M27.5857 34.6104C27.5857 34.6778 27.5753 34.7452 27.5416 34.7763C27.1395 35.1469 26.6361 35.4009 26.1017 35.5123C26.0394 35.4916 25.9771 35.4734 25.9148 35.4475C25.9148 35.4838 25.9148 35.5149 25.9123 35.546C25.3467 35.6263 24.7629 35.5486 24.2492 35.2842C24.2077 35.2635 24.1999 35.165 24.2025 35.0665C24.2336 35.0069 24.2596 34.9473 24.2829 34.8851C25.3363 35.222 26.5272 35.0303 27.36 34.2994C27.3522 34.3253 27.3237 34.4679 27.36 34.486C27.4352 34.5301 27.5105 34.5715 27.5857 34.6104Z" fill="#0A0D18"/>
<path d="M24.2834 34.8852C24.2571 34.9479 24.2335 35.008 24.202 35.0681C24.2073 34.9662 24.2283 34.8722 24.2388 34.8722C24.2519 34.8774 24.2702 34.88 24.2834 34.8852Z" fill="#0A0D18"/>
<path d="M21.8051 36.1317C21.7791 36.1938 21.7661 36.2353 21.7453 36.2689C21.6725 36.2611 21.6022 36.2456 21.5294 36.2301L21.623 36.1964C21.6725 36.1757 21.7245 36.1602 21.8051 36.1317Z" fill="#0A0D18"/>
<path d="M21.5294 36.2302C21.6021 36.2457 21.6722 36.2613 21.7448 36.2691C21.7448 36.2717 21.7448 36.2743 21.7422 36.2768C21.4827 36.733 21.2673 37.2072 21.1012 37.7022C20.9689 38.0962 20.782 38.459 20.5718 38.814C19.8063 40.1176 19.2379 41.5042 18.8409 42.9632C18.6385 43.7019 18.5892 44.4612 18.5917 45.2283C18.5943 45.4331 18.5892 45.6378 18.5788 45.8451C18.5424 46.4879 18.0494 46.8973 17.411 46.8222C17.0788 46.7833 16.77 46.6719 16.4793 46.5086C16.3781 46.449 16.3288 46.3842 16.3314 46.2624C16.347 45.7959 16.347 45.3294 16.3677 44.8629C16.4067 44.0621 16.4482 43.2613 16.5001 42.4605C16.5676 41.4368 16.6324 40.4079 16.8634 39.3998C16.9594 38.9903 17.084 38.5938 17.2708 38.2154C17.4213 37.9096 17.5693 37.5986 17.7198 37.2902C17.7587 37.2124 17.8132 37.1373 17.8495 37.0777C18.0675 37.0751 18.2674 37.0828 18.4646 37.0751C19.1134 37.044 19.7336 36.8677 20.3461 36.6656C20.7457 36.5334 21.135 36.3779 21.5294 36.2276V36.2302Z" fill="#0A0D18"/>
<path d="M26.4002 28.0303C26.6182 27.3927 26.792 26.706 27.0801 26.0995C27.132 25.9829 27.1735 26.4857 27.1502 26.5686C26.9685 27.2632 26.6908 27.9448 26.4573 28.6238C26.2341 29.2768 26.0083 29.9299 25.7825 30.5856C25.3466 31.8555 24.9106 33.1254 24.4668 34.3927C24.4071 34.5586 24.3526 34.7219 24.2851 34.8851C24.2722 34.8799 24.254 34.8774 24.241 34.8722C24.2306 34.8722 24.2099 34.9681 24.2047 35.0665C24.0853 35.3413 23.9244 35.5926 23.6857 35.7922C23.3353 36.0876 22.8942 36.2457 22.4426 36.2898C22.209 36.3131 21.9781 36.3028 21.7497 36.2691C21.7705 36.2354 21.7834 36.1939 21.8094 36.1317C21.729 36.1602 21.677 36.1758 21.6277 36.1965L21.5343 36.2302C20.8544 36.0902 20.2056 35.7456 19.6113 35.3775C19.6139 35.3464 19.6139 35.3153 19.6113 35.2894C20.5118 35.673 21.4357 36.0125 22.4322 35.8311C22.9305 35.743 23.4365 35.5201 23.7817 35.1443C24.1736 34.7167 24.3137 34.118 24.4954 33.5815C24.9158 32.3402 25.344 31.0988 25.7722 29.8574C25.9824 29.2483 26.1926 28.6393 26.4028 28.0329L26.4002 28.0303Z" fill="#0A0D18"/>
<path d="M19.6058 35.2889C19.6084 35.3173 19.6084 35.3483 19.6058 35.3767C19.4709 35.2966 19.3412 35.2114 19.2114 35.1313V35.121C19.3437 35.1778 19.4735 35.232 19.6058 35.2889Z" fill="#0A0D18"/>
<path d="M17.5382 33.9444C17.5798 33.9574 17.5668 34.0977 17.559 34.1314C17.5486 34.1756 17.5304 34.2197 17.5096 34.2665C17.4498 34.2327 17.3926 34.1964 17.3328 34.1652C17.3562 34.1288 17.377 34.0899 17.4056 34.0561C17.4394 34.0171 17.481 33.9807 17.5174 33.9444C17.52 33.9444 17.5226 33.9418 17.5252 33.9392C17.5278 33.9418 17.533 33.9418 17.5382 33.9444Z" fill="#0A0D18"/>
<path d="M17.3639 34.4964C17.2964 34.5922 17.2263 34.6881 17.1563 34.7866C17.0395 34.9473 16.9254 35.1106 16.7957 35.2661C16.8553 35.1494 16.8787 35.0095 16.8709 34.8618C16.9461 34.74 17.0266 34.6182 17.1096 34.4964L17.312 34.1957C17.312 34.1957 17.3223 34.175 17.3327 34.1646C17.3924 34.1957 17.4495 34.232 17.5091 34.2657C17.4702 34.346 17.4209 34.4238 17.3664 34.4964H17.3639Z" fill="#0A0D18"/>
<path d="M17.33 34.1647C17.2651 34.1284 17.1976 34.0921 17.1328 34.0584C16.9226 33.9547 16.7514 33.9573 16.5308 33.9133C16.479 33.9262 16.4374 33.9107 16.4011 33.8614C16.4971 33.7137 16.5931 33.5712 16.6943 33.4286C16.8811 33.4571 17.0939 33.5504 17.208 33.6126C17.6024 33.8226 17.9682 34.0869 18.3392 34.3383C18.7569 34.6208 19.2006 34.8799 19.582 35.2117C19.5924 35.2195 19.5976 35.2506 19.6027 35.2894C19.4704 35.2324 19.3407 35.178 19.2084 35.121V35.1313C19.3381 35.2117 19.4678 35.2972 19.6027 35.3775C19.6027 35.4449 19.5924 35.5097 19.5794 35.5097C18.8322 35.2065 18.1965 34.6778 17.5038 34.2657C17.5271 34.2217 17.5427 34.1776 17.5531 34.131C17.5609 34.0973 17.5764 33.9573 17.5323 33.9444C17.5271 33.9418 17.5219 33.9418 17.5194 33.9392C17.5168 33.9418 17.5142 33.9444 17.5116 33.9444C17.4752 33.9807 17.4337 34.0169 17.4 34.0558C17.3715 34.0895 17.3507 34.1284 17.3274 34.1647H17.33Z" fill="#0A0D18"/>
<path d="M16.8709 34.8618C16.8786 35.0095 16.8553 35.1495 16.7956 35.2661C16.7749 35.2946 16.7515 35.3231 16.7282 35.349C16.7074 35.3698 16.697 35.2791 16.6944 35.2687C16.6918 35.2272 16.6866 35.1676 16.7074 35.1287C16.7593 35.0354 16.8138 34.9499 16.8683 34.8618H16.8709Z" fill="#0A0D18"/>
<path d="M20.8054 26.0399C20.507 29.0306 18.34 31.091 16.6947 33.426C16.6376 33.4183 16.5831 33.4157 16.5338 33.4234C18.0649 31.0391 20.3435 28.8518 20.7742 25.9414C20.7846 25.8714 20.808 26.0166 20.8054 26.0399Z" fill="#0A0D18"/>
<path d="M17.1329 34.0584C17.2004 34.0921 17.2678 34.1284 17.3301 34.1647C17.3223 34.175 17.3171 34.1854 17.3094 34.1958L17.107 34.4964C17.0266 34.6182 16.9461 34.74 16.8683 34.8618V34.8411C16.8475 34.5793 16.736 34.3746 16.5881 34.1595C16.5466 34.0999 16.5051 34.0454 16.4661 33.9832C16.4402 33.9444 16.4194 33.9003 16.3987 33.8588C16.435 33.9081 16.4739 33.9262 16.5284 33.9107C16.7489 33.9547 16.9202 33.9521 17.1303 34.0558L17.1329 34.0584Z" fill="#0A0D18"/>
<path d="M16.5028 36.2746C16.5028 36.2746 16.5055 36.3013 16.5082 36.312C16.5055 36.2986 16.5028 36.2826 16.4974 36.2693V36.2613C16.4974 36.2613 16.5028 36.2693 16.5028 36.2746Z" fill="#0A0D18"/>
<path d="M16.4873 36.2094C16.4873 36.2094 16.4927 36.2255 16.4954 36.239V36.2443C16.4954 36.2443 16.49 36.2202 16.4873 36.2094Z" fill="#0A0D18"/>
<path d="M16.479 36.1809C16.487 36.1942 16.4923 36.218 16.495 36.2418C16.4923 36.2312 16.4896 36.2206 16.487 36.2127C16.487 36.2101 16.4843 36.2074 16.4843 36.2048C16.4817 36.1968 16.4817 36.1915 16.479 36.1809Z" fill="#0A0D18"/>
<path d="M16.4121 35.6471C16.4041 35.6709 16.3988 35.6894 16.3882 35.7106C16.3908 35.6894 16.3935 35.6735 16.3962 35.6523C16.3988 35.6523 16.4041 35.6497 16.4094 35.6471H16.4121Z" fill="#0A0D18"/>
<path d="M16.4017 33.8588C16.3913 33.8718 16.3809 33.8899 16.3705 33.9029C16.3679 33.9029 16.3238 33.75 16.355 33.7007C16.4146 33.6074 16.4691 33.5141 16.534 33.4208C16.5833 33.4131 16.6403 33.4157 16.6948 33.4234C16.5936 33.566 16.4977 33.7085 16.4017 33.8536V33.8588Z" fill="#0A0D18"/>
<path d="M16.3907 35.6555C16.3934 35.632 16.3986 35.611 16.4013 35.5875C16.4013 35.611 16.3986 35.6294 16.396 35.6529C16.3934 35.6555 16.3907 35.6555 16.3907 35.6555Z" fill="#0A0D18"/>
<path d="M16.3916 35.6549C16.3916 35.6549 16.3942 35.6549 16.3968 35.6523C16.3942 35.6731 16.3916 35.6887 16.389 35.7095C16.3863 35.7148 16.3837 35.7226 16.3811 35.7304C16.3863 35.7043 16.3889 35.6835 16.3916 35.6575V35.6549Z" fill="#0A0D18"/>
<path d="M16.2172 35.5641C16.2328 35.463 16.2613 35.3672 16.3236 35.2842C16.3262 35.2816 16.3314 35.2764 16.3366 35.2739C16.3625 35.2868 16.3599 35.2816 16.3781 35.2739C16.3833 35.2764 16.3859 35.279 16.3885 35.2816C16.3807 35.2946 16.3807 35.3024 16.3885 35.292C16.3937 35.2868 16.3988 35.2894 16.4014 35.2946C16.4118 35.3024 16.417 35.3283 16.4222 35.3386C16.4352 35.3983 16.4378 35.4605 16.4326 35.5227C16.43 35.5667 16.4196 35.6056 16.4066 35.6445C16.4014 35.6471 16.3962 35.6496 16.3937 35.6496C16.3962 35.6263 16.3988 35.6082 16.3988 35.5849C16.3962 35.6082 16.3911 35.6289 16.3885 35.6522C16.3288 35.6756 16.2665 35.6911 16.2017 35.6989C16.2043 35.6522 16.2068 35.6056 16.2146 35.5589L16.2172 35.5641Z" fill="#0A0D18"/>
<path d="M16.3187 35.9064V35.9117C16.3187 35.9117 16.3161 35.9249 16.3108 35.9328V35.8932C16.3108 35.8932 16.3161 35.8959 16.3161 35.9012C16.3161 35.9012 16.3187 35.9038 16.3187 35.9064Z" fill="#0A0D18"/>
<path d="M16.3079 35.8809V35.8725H16.3106V35.8864C16.3106 35.8864 16.3106 35.8836 16.3079 35.8809Z" fill="#0A0D18"/>
<path d="M16.3079 35.8803C16.3079 35.8803 16.3111 35.8835 16.3111 35.8867C16.3079 35.8835 16.3079 35.8803 16.3079 35.8803Z" fill="#0A0D18"/>
<path d="M16.3118 35.9412H16.3079L16.3118 35.9373V35.9412Z" fill="#0A0D18"/>
<path d="M16.2535 36.2431C16.3368 36.2691 16.42 36.2951 16.5006 36.3211C16.5032 36.3497 16.5032 36.3782 16.5032 36.4016C16.5032 36.4172 16.5006 36.5497 16.4642 36.5497C16.433 36.5523 16.3914 36.4977 16.3706 36.4744C16.342 36.438 16.3212 36.399 16.2978 36.36C16.2769 36.3237 16.2613 36.2821 16.2535 36.2431Z" fill="#0A0D18"/>
<path d="M16.3084 35.9425H16.311V35.9373H16.3084V35.9425ZM16.3084 35.8803C16.3084 35.8803 16.3084 35.8829 16.311 35.8855V35.8751H16.3084V35.8803ZM16.215 36.0721C16.1942 35.9503 16.1916 35.8233 16.2046 35.7015C16.2694 35.6937 16.3343 35.6756 16.3914 35.6548C16.3888 35.6808 16.3862 35.7015 16.381 35.7274C16.3836 35.7222 16.3862 35.7144 16.3888 35.7067C16.3758 35.7766 16.3499 35.8414 16.3213 35.9114H16.3187V35.9062L16.3161 35.901C16.3161 35.8959 16.3136 35.8933 16.311 35.8907V35.9321C16.311 35.9321 16.3187 35.9218 16.3187 35.9166H16.3213C16.3213 35.9166 16.3239 35.927 16.3265 35.9321C16.3369 35.9658 16.3551 36.0021 16.3732 36.0332C16.394 36.0695 16.4173 36.1006 16.4433 36.1317C16.464 36.1524 16.4744 36.1758 16.4822 36.2043C16.4822 36.2069 16.4848 36.2094 16.4848 36.212C16.4874 36.2224 16.4874 36.2354 16.4926 36.2457C16.4926 36.2509 16.4952 36.2561 16.4952 36.2613V36.2691C16.4952 36.2691 16.4978 36.2898 16.4978 36.2976V36.3235C16.4173 36.2976 16.3369 36.2716 16.2513 36.2457C16.2305 36.1887 16.2202 36.1317 16.2124 36.0747L16.215 36.0721Z" fill="#0A0D18"/>
<path d="M15.8019 32.1199C16.3832 31.5497 16.9334 30.9536 17.455 30.3264C18.506 29.0617 19.3339 27.6182 19.4558 25.9492C19.4662 25.8144 19.5077 25.957 19.5077 26.0114C19.5415 27.6752 18.7526 29.1835 17.7431 30.4586C17.1851 31.161 16.5415 31.8037 15.872 32.4049C15.2543 32.9544 14.5459 33.6023 13.7595 33.8899C13.7544 33.8899 13.7466 33.8303 13.7569 33.8251C14.4421 33.2524 15.1609 32.747 15.7993 32.1199H15.8019Z" fill="#0A0D18"/>
<path d="M15.8562 35.6652C15.9756 35.7015 16.0949 35.7119 16.2039 35.7015C16.1935 35.8233 16.1961 35.9503 16.2143 36.0721C16.2221 36.1291 16.235 36.1861 16.2532 36.2431C15.7706 36.0876 15.2725 35.9192 14.847 35.6445C14.6394 35.5123 14.4474 35.3542 14.284 35.1702C14.1724 35.0458 13.9908 34.8229 13.9233 34.6234C14.7406 34.5171 15.1402 35.4501 15.8537 35.6652H15.8562Z" fill="#0A0D18"/>
<path d="M16.5177 36.5645C15.7835 36.5204 14.961 36.4556 14.3876 35.9399C13.9985 35.59 13.8065 35.1365 13.7598 34.6467L13.8402 34.6389C13.8687 34.6337 13.8999 34.6285 13.9258 34.626C13.9933 34.8281 14.1749 35.0484 14.2865 35.1728C14.4473 35.3568 14.6419 35.5149 14.8495 35.6471C15.275 35.9218 15.7705 36.0876 16.2557 36.2457C16.2635 36.2846 16.2816 36.3261 16.2998 36.3623C16.3231 36.4012 16.3439 36.4401 16.3724 36.4764C16.3932 36.4997 16.4347 36.5541 16.4658 36.5515C16.5022 36.5515 16.5048 36.4194 16.5048 36.4038C16.5048 36.3779 16.5048 36.352 16.5022 36.3235C16.5048 36.3235 16.5073 36.3261 16.5099 36.3261C16.5541 36.339 16.5489 36.5671 16.5177 36.5671V36.5645Z" fill="#0A0D18"/>
<path d="M13.9269 34.6272C13.8981 34.6298 13.8666 34.6351 13.8403 34.6403C13.8613 34.5802 13.8823 34.5254 13.9033 34.4653C13.9007 34.5149 13.9085 34.5698 13.9295 34.6246L13.9269 34.6272Z" fill="#0A0D18"/>
<path d="M16.2039 35.7015C16.0949 35.7119 15.9782 35.7015 15.8562 35.6652C15.1402 35.4501 14.7406 34.5171 13.9259 34.6234C13.9052 34.5664 13.8974 34.5145 13.9 34.4653C13.8792 34.5249 13.8585 34.5793 13.8377 34.6389L13.7573 34.6467C13.7417 34.4679 13.7417 34.2865 13.7573 34.1051C13.7599 34.074 13.7651 33.9288 13.8195 33.9262C14.7276 33.8407 15.0986 34.8903 15.8459 35.1858C16.1261 35.2972 16.5568 35.2583 16.7228 34.9681C16.798 34.8333 16.6657 34.727 16.5749 34.6001C16.4997 34.4912 16.4166 34.3849 16.3622 34.2657C16.2765 34.074 16.2532 33.8174 16.3103 33.6126C16.344 33.4934 16.427 33.4364 16.5334 33.426C16.4685 33.5193 16.4141 33.6126 16.3544 33.7059C16.3232 33.7526 16.3674 33.9081 16.3699 33.9081C16.3803 33.8951 16.3907 33.877 16.4011 33.864C16.4218 33.9055 16.4426 33.9496 16.4685 33.9884C16.5075 34.0506 16.549 34.1051 16.5905 34.1647C16.7384 34.3798 16.8499 34.5845 16.8707 34.8463V34.867C16.8136 34.9551 16.7617 35.0432 16.7098 35.1339C16.6865 35.1728 16.6943 35.2324 16.6969 35.2739C16.6995 35.2842 16.7098 35.375 16.7306 35.3542C16.7539 35.3257 16.7773 35.2972 16.798 35.2713C16.7228 35.4475 16.5853 35.5823 16.4115 35.6523C16.4218 35.6134 16.4348 35.5745 16.4374 35.5304C16.4426 35.4682 16.44 35.4061 16.427 35.3464C16.4244 35.3361 16.4192 35.3102 16.4063 35.3024C16.4037 35.2972 16.3985 35.2946 16.3933 35.2998C16.3855 35.3076 16.3855 35.3024 16.3933 35.2894C16.3907 35.2868 16.3881 35.2842 16.3829 35.2817C16.3622 35.2894 16.3674 35.2946 16.3414 35.2817C16.3362 35.2842 16.331 35.2894 16.3284 35.292C16.2662 35.3724 16.2402 35.4708 16.2221 35.5719C16.2143 35.6186 16.2117 35.6652 16.2091 35.7119L16.2039 35.7015Z" fill="#0A0D18"/>
<path d="M31.1499 21.7456C30.7554 21.7534 27.7399 22.4946 25.9155 22.0203C25.9155 22.0203 30.2286 22.4661 30.6828 24.3398C31.1369 26.2161 31.6248 24.2024 31.6248 24.2024L31.1525 21.7456H31.1499Z" fill="#0A0D18"/>
<path d="M19.9512 24.5342C18.9002 26.9185 16.9798 28.8777 14.6727 30.0854C13.5568 30.6685 12.3449 31.0728 11.1044 31.2802C10.6217 31.3605 9.77051 31.5834 9.34491 31.2257C8.98678 30.9251 9.36567 30.1839 9.53954 29.86C9.71861 29.5256 9.95476 29.2302 10.2091 28.9503C10.2558 28.8985 10.2091 28.6134 10.1831 28.6341C9.45909 29.2276 8.83626 30.3912 9.09578 31.3553C9.36307 32.3583 11.0499 31.8892 11.7506 31.7441C14.0654 31.2646 16.2168 29.9714 17.8154 28.2454C18.7419 27.245 19.4737 26.0865 19.9979 24.8322C20.0264 24.7674 19.9797 24.4668 19.9512 24.5316V24.5342Z" fill="#0A0D18"/>
<path d="M14.6856 48.9162C12.0048 49.4708 8.95813 48.3901 7.30244 46.1976C7.30244 46.1976 7.28687 46.2546 7.29984 46.2701C8.98408 48.5871 11.8802 49.7403 14.6908 49.1002C14.7271 49.0924 14.7063 48.911 14.6856 48.9136V48.9162Z" fill="#0A0D18"/>
<path d="M11.7167 49.9891C11.081 49.8492 10.4298 49.5978 9.96281 49.1261C9.94465 49.108 9.93946 49.1857 9.93946 49.1909C9.93946 49.222 9.93427 49.2764 9.95762 49.3049C10.173 49.5797 10.4324 49.7999 10.7438 49.958C10.889 50.0332 11.0525 50.0772 11.2134 50.1109C11.3872 50.1446 11.5455 50.142 11.7193 50.1187C11.74 50.1161 11.7375 49.9917 11.7167 49.9891Z" fill="#0A0D18"/>
<path d="M0.0181928 39.5164C3.37109 36.8392 8.32519 37.4379 10.967 40.8096C10.967 40.8096 10.9748 40.7759 10.967 40.7681C9.7551 39.1561 7.92813 38.0314 5.91951 37.7489C3.81486 37.4534 1.65572 38.0961 0.00781207 39.4205C-0.0103538 39.436 0.00781176 39.5215 0.0155971 39.5138L0.0181928 39.5164Z" fill="#0A0D18"/>
<path d="M5.67057 36.8522C6.21801 36.7174 6.84329 36.9377 7.22468 37.3446C7.22987 37.3498 7.24544 37.2513 7.22987 37.228C7.14166 37.101 7.04047 36.9895 6.90815 36.9066C6.7914 36.8314 6.66168 36.7744 6.52676 36.7356C6.24396 36.6526 5.93781 36.6863 5.66798 36.7978C5.6576 36.8029 5.66279 36.8548 5.66798 36.8522H5.67057Z" fill="#0A0D18"/>
<path d="M21.3551 44.2072C22.2348 43.8055 23.2521 43.8185 24.1682 44.101C25.2478 44.4353 26.0652 45.1065 26.8697 45.8684C28.5306 47.439 31.2192 47.439 33.2927 46.7937C33.3238 46.7833 33.3056 46.6382 33.2901 46.6407C32.1456 46.8947 30.9363 46.9802 29.7711 46.8377C29.2131 46.7703 28.6396 46.6641 28.1128 46.4567C27.5289 46.2261 27.0929 45.8192 26.6465 45.3942C25.2607 44.0673 23.1898 43.0617 21.3525 44.1061C21.3317 44.1191 21.3525 44.2072 21.3525 44.2046L21.3551 44.2072Z" fill="#0A0D18"/>
<path d="M5.83362 34.294C5.83102 34.2293 5.84923 34.1464 5.87003 34.0558C5.87263 34.0558 5.87784 34.0584 5.88044 34.061C5.85703 34.1361 5.83882 34.2112 5.83622 34.294C5.83622 34.307 5.83362 34.2992 5.83362 34.2914V34.294Z" fill="#0A0D18"/>
<path d="M6.40117 35.0613C6.33111 35.1676 6.15988 35.2143 6.04572 35.2479C5.88745 35.2946 5.72141 35.3205 5.56055 35.3516C4.98197 35.4656 4.4008 35.463 3.95714 35.0251C3.9312 34.9991 3.91044 34.9758 3.88709 34.9499C3.51607 34.5171 2.9375 33.5167 2.9375 33.5167C3.67175 33.7915 4.43194 33.5323 5.16878 33.4001C5.42044 33.3561 5.84335 33.2705 5.93156 33.5893C5.97826 33.7629 5.92637 33.9081 5.88486 34.061C5.88227 34.0584 5.87708 34.0558 5.87448 34.0558C5.92118 33.8407 5.97307 33.5997 5.71881 33.5867C5.57352 33.5815 5.42304 33.6308 5.28034 33.6541C5.1117 33.68 4.94565 33.7059 4.777 33.7344C4.28664 33.82 3.77293 33.8899 3.29295 33.7655C3.38894 33.8407 3.47197 33.9366 3.5524 34.0402C3.63802 34.0791 3.72882 34.1076 3.82742 34.1232C4.21659 34.1932 4.52793 34.0351 4.89116 33.9288C5.24142 33.8277 5.58909 33.8822 5.87448 34.0584C5.85373 34.1465 5.83556 34.232 5.83816 34.2968C5.83816 34.3046 5.84075 34.3124 5.84075 34.2994C5.84335 34.2165 5.8641 34.1413 5.88486 34.0662C6.05869 34.1724 6.21177 34.3253 6.32333 34.5145C6.40635 34.6596 6.51014 34.9033 6.40376 35.0639L6.40117 35.0613Z" fill="#0A0D18"/>
<path d="M7.21438 34.6778C7.14693 34.7244 7.07688 34.7659 6.99904 34.7996C6.92899 34.8255 6.85894 34.8462 6.78629 34.8566C6.6877 34.8722 6.58132 34.8851 6.48533 34.8644C6.47754 34.8255 6.46717 34.7866 6.45679 34.7504C6.58132 34.74 6.70327 34.74 6.8278 34.7115C6.90564 34.6959 6.98088 34.6726 7.05352 34.6441C7.12098 34.6182 7.18584 34.5923 7.25071 34.5612C7.26627 34.5534 7.25071 34.6026 7.25071 34.6078C7.24552 34.6285 7.23514 34.6648 7.21698 34.6778H7.21438Z" fill="#0A0D18"/>
<path d="M14.9899 44.1321C14.9899 44.1321 15.0579 44.1113 15.0343 44.1295C15.0213 44.1399 15.0056 44.1477 14.9925 44.1608C14.9846 44.1634 14.9794 44.1608 14.9716 44.1608C14.9637 44.1608 14.9611 44.1555 14.9532 44.1555L14.9899 44.1347V44.1321Z" fill="#0A0D18"/>
<path d="M16.0436 44.2201C16.015 44.2279 15.9864 44.2408 15.963 44.2512C15.9578 44.2538 15.9526 44.2564 15.9473 44.259C15.9057 44.2227 15.8667 44.1916 15.8225 44.158C15.8355 44.1632 15.8537 44.1658 15.8667 44.1683C15.8667 44.1683 15.8667 44.1709 15.8693 44.1709C15.9291 44.1865 15.9864 44.202 16.0462 44.2175L16.0436 44.2201Z" fill="#0A0D18"/>
<path d="M16.0462 44.2202C16.0462 44.2202 16.0021 44.2487 15.9709 44.2565H15.9683C15.9683 44.2565 15.9476 44.2616 15.945 44.2616C15.3195 44.0958 14.7045 43.8859 14.1102 43.6215C14.4035 43.8366 14.7278 43.9999 15.0782 44.1061C15.0782 44.1087 15.0263 44.1502 14.99 44.1554C15.0029 44.145 15.0185 44.1347 15.0315 44.1243C15.0548 44.1087 14.9951 44.1243 14.9874 44.1269C14.977 44.1347 14.964 44.1424 14.951 44.1502C14.9588 44.1528 14.9614 44.1554 14.9666 44.1554C14.9744 44.158 14.9796 44.158 14.99 44.1554C14.746 44.3161 14.4761 44.4482 14.1855 44.4897C13.8585 44.5364 13.5652 44.4327 13.3031 44.2357C13.0177 44.0128 12.7841 43.7226 12.5402 43.4505C12.2365 43.1213 11.9044 42.8026 11.6396 42.4449H11.6371C11.6241 42.4242 11.7486 42.3853 11.7668 42.3879C12.2703 42.476 12.7945 42.4864 13.3031 42.4475C13.682 42.419 14.1388 42.305 14.4683 42.5589C14.6189 42.673 14.7201 42.844 14.7823 43.0177C14.8187 43.1187 14.842 43.2198 14.8576 43.3235C14.8654 43.3831 14.8706 43.4427 14.8861 43.4997C14.8861 43.4997 14.8135 43.7615 15.3351 43.9066C15.5635 43.9714 15.7374 44.0725 15.8671 44.1632C15.8541 44.1606 15.836 44.158 15.823 44.1528C15.8671 44.1865 15.906 44.2176 15.9476 44.2539C15.9527 44.2513 15.9579 44.2487 15.9631 44.2461C15.9891 44.2357 16.015 44.2228 16.0436 44.215H16.0462V44.2202Z" fill="#0A0D18"/>
<path d="M12.6638 44.1013C12.6638 44.1013 12.6192 44.1301 12.5877 44.1379H12.5851C12.5851 44.1379 12.5825 44.1327 12.5799 44.1327C12.551 44.1066 12.5169 44.0804 12.4828 44.0543C12.5431 44.07 12.6009 44.0857 12.6612 44.1013H12.6638Z" fill="#0A0D18"/>
<path d="M30.0314 11.8559C30.0314 11.8559 33.0436 12.9444 31.2404 20.7452L30.0547 20.4212L31.2793 18.0162C31.2793 18.0162 31.3182 15.1291 31.2793 15.0747C31.2404 15.0203 30.7993 13.613 30.7345 13.4368C30.6696 13.2606 30.0314 11.8559 30.0314 11.8559Z" fill="#0A0D18"/>
<path d="M31.1492 11.9181C31.1492 11.9181 32.2933 13.797 32.2933 14.4579V15.3132L34.4572 13.9189C34.4572 13.9189 32.5502 11.8248 31.1492 11.9181Z" fill="#0A0D18"/>
<path d="M32.9478 17.7078L32.9115 17.472L32.6598 15.8237L34.2035 14.7067C34.2035 14.7067 34.5771 15.2821 34.4344 16.3006C34.2917 17.3191 33.5653 17.9929 33.5653 17.9929" fill="#0A0D18"/>
</svg>
