<svg width="471" height="420" viewBox="0 0 471 420" fill="none" xmlns="http://www.w3.org/2000/svg">
<path d="M331.85 12.1731C342.812 12.1731 353.021 18.0642 358.502 27.5604L454.949 194.613C460.429 204.099 460.429 215.891 454.949 225.387L358.502 392.44C353.021 401.926 342.812 407.827 331.85 407.827H138.957C127.995 407.827 117.786 401.926 112.305 392.44L15.8586 225.387C10.3778 215.901 10.3778 204.109 15.8586 194.613L112.305 27.5604C117.786 18.0642 127.995 12.1731 138.957 12.1731H331.85ZM330.17 0H140.637C124.254 0 109.111 8.74389 100.914 22.9295L6.14759 187.07C-2.0492 201.266 -2.0492 218.744 6.14759 232.939L100.914 397.07C109.111 411.266 124.254 420 140.637 420H330.17C346.554 420 361.697 411.256 369.893 397.07L464.66 232.939C472.856 218.744 472.856 201.266 464.66 187.07L369.893 22.9295C361.697 8.73413 346.554 0 330.17 0Z" fill="#66D432"/>
<path d="M157.471 209.296V190.147H184.386C190.834 190.147 194.664 193.674 194.664 199.721C194.664 205.769 190.834 209.296 184.386 209.296H157.471ZM157.471 245.278V224.312H184.787C200.311 224.312 211.595 213.829 211.595 199.516C211.595 185.204 200.907 174.721 184.787 174.721H141.038V245.278H157.471Z" fill="#66D432"/>
<path d="M239.009 174.73H222.478V245.287H239.009V174.73Z" fill="#66D432"/>
<path d="M252.422 245.278H314.206V229.656H268.953V217.366H305.032V202.242H268.953V190.352H313.395V174.73H252.422V245.278Z" fill="#66D432"/>
<path d="M383.757 245.278H400.287V174.721H335.778V222.299C335.778 227.839 334.166 229.656 329.124 229.656H323.077V245.278H333.462C346.564 245.278 352.308 237.315 352.308 222.192V190.342H383.757V245.278Z" fill="#66D432"/>
</svg>
