<svg width="1472" height="355" viewBox="0 0 1472 355" fill="none" xmlns="http://www.w3.org/2000/svg">
<path d="M156.665 354.162C261.744 354.162 311.452 317.089 311.452 251.437C311.452 181.076 258.913 164.179 167.9 148.712C102.218 137.447 93.3077 130.891 93.3077 113.517C93.3077 97.5735 104.096 85.3848 152.88 85.3848C187.122 85.3848 211.052 96.1729 214.807 116.825H307.22C303.465 45.0639 244.37 11.7461 157.589 11.7461C60.9434 11.7461 6.55611 45.0638 6.55611 112.116C6.55611 188.586 59.0957 202.176 153.387 218.119C208.727 227.507 224.701 231.709 224.701 252.361C224.701 270.182 210.158 280.493 159.973 280.493C113.066 280.493 89.1353 266.427 86.781 237.818H0C5.1556 315.688 52.5397 354.162 156.665 354.162Z" fill="#6975FF"/>
<path d="M403.419 89.1055C368.7 89.1055 352.279 74.5626 352.279 44.5528C352.279 14.543 368.7 0 403.419 0C438.137 0 454.557 14.543 454.557 44.5528C454.557 74.5626 438.137 89.1055 403.419 89.1055ZM398.74 112.559H323.7V181.042H372.485V347.094H450.356V164.145C450.356 130.827 432.058 112.559 398.77 112.559H398.74Z" fill="#6975FF"/>
<path d="M602.79 351.802C686.77 351.802 727.567 324.116 727.567 275.809C727.567 223.746 679.706 213.435 617.333 203.57C582.614 197.938 564.793 195.137 564.793 184.796C564.793 175.408 568.072 169.776 599.989 169.776C621.088 169.776 633.306 174.455 637.508 182.918H724.289C720.534 134.134 675.028 107.879 603.266 107.879C526.797 107.879 481.767 132.733 481.767 183.395C481.767 236.858 524.919 246.723 596.681 257.034C634.677 262.189 644.988 265.02 644.988 276.732C644.988 285.643 635.124 289.875 607.469 289.875C578.383 289.875 564.317 282.365 561.038 266.421H477.059C480.337 322.239 516.456 351.802 602.76 351.802H602.79Z" fill="#6975FF"/>
<path d="M801.237 56.2976V112.592H740.263V182.953H801.237V295.542C801.237 328.859 819.534 347.127 852.822 347.127H963.534V278.644H879.107V182.953H963.534V112.592H879.107V37.5527L801.237 56.3274V56.2976Z" fill="#6975FF"/>
<path d="M1060.62 205.448C1063.42 182.471 1080.32 171.683 1115.96 171.683C1151.61 171.683 1169.43 181.547 1172.74 205.448H1060.62ZM1249.21 232.656C1249.21 151.031 1202.77 107.879 1115.04 107.879C1032.49 107.879 982.276 153.862 982.276 229.855C982.276 305.848 1031.06 351.831 1116.92 351.831C1185.4 351.831 1232.31 322.745 1243.1 276.315H1159.59C1152.08 284.302 1138.02 288.504 1115.96 288.504C1080.77 288.504 1063.9 278.193 1060.62 252.385H1249.21V232.686V232.656Z" fill="#6975FF"/>
<path d="M1277.34 164.17V347.119H1355.21V182.945H1472V112.584H1328.92C1295.61 112.584 1277.34 130.882 1277.34 164.17Z" fill="#6975FF"/>
</svg>
