<svg width="490" height="553" viewBox="0 0 490 553" fill="none" xmlns="http://www.w3.org/2000/svg">
<g clip-path="url(#clip0_4226_2203)">
<path d="M51.7416 38.5469H262.809L45.7574 160.318C23.5137 172.798 -3.37151 154.29 0.350377 129.054L8.15904 76.1598C11.3555 54.5437 29.8919 38.5323 51.7416 38.5323" fill="#A4BAD2"/>
<path d="M69.7526 237.661L190.181 117.48C221.679 86.0411 273.187 122.107 254.402 162.464L176.709 329.394L357.33 223.284C394.506 201.449 441.197 228.932 440.146 272.033L435.519 461.952C435.242 473.453 436.731 484.925 439.927 495.974L446.627 519.108C451.925 537.411 431.243 552.182 415.655 541.221L349.04 494.398L333.335 531.967C328.971 542.417 313.383 539.177 313.529 527.851L316.229 328.912L281.871 484.21C272.603 526.1 232.085 553.32 189.802 546.081L114.196 533.135C97.2216 530.23 79.7652 532.697 64.2647 540.213L42.7945 550.62C29.7022 556.969 14.4498 547.584 14.2016 533.032V532.565C13.5594 495.668 30.6801 460.711 60.1925 438.57L28.8849 421.142C18.1133 415.144 23.2655 398.694 35.5405 399.92L210.965 422.149L87.1652 360.235C38.591 333.554 33.1322 274.223 69.7526 237.661Z" fill="#A4BAD2"/>
<path d="M185.89 229.312L337.043 132.718C357.506 119.64 384.8 129.025 392.9 151.926C400.169 172.491 388.536 194.896 367.533 200.792L192.984 249.761L185.89 229.312Z" fill="#A4BAD2"/>
<path d="M409.159 30.2712L412.501 5.83812C413.567 -2.01433 424.952 -1.91216 425.886 5.95488L428.776 30.4464C429.286 34.8105 434.526 36.7663 437.767 33.818L456.026 17.2519C461.893 11.9245 470.548 19.3245 466.199 25.9509L452.669 46.5745C450.26 50.2526 453.004 55.113 457.398 54.9378L482.035 53.9745C489.961 53.668 491.829 64.8921 484.239 67.1836L460.623 74.2917C456.42 75.5615 455.398 81.0494 458.872 83.735L478.357 98.8415C484.619 103.702 478.839 113.51 471.555 110.372L448.903 100.637C444.86 98.8999 440.554 102.447 441.488 106.752L446.714 130.85C448.392 138.6 437.664 142.395 434.088 135.316L422.996 113.291C421.025 109.365 415.435 109.321 413.392 113.204L401.905 135.024C398.212 142.03 387.543 138.045 389.367 130.324L395.031 106.329C396.038 102.053 391.79 98.4182 387.733 100.082L364.905 109.409C357.564 112.401 351.973 102.49 358.322 97.7469L378.085 82.9907C381.603 80.3634 380.683 74.8609 376.509 73.5181L353.024 65.9867C345.478 63.5639 347.551 52.369 355.476 52.8215L380.099 54.2227C384.478 54.4708 387.324 49.6688 384.974 45.9469L371.823 25.0898C367.591 18.3904 376.392 11.1509 382.157 16.5805L400.11 33.4823C403.306 36.489 408.575 34.6353 409.174 30.2712" fill="#A4BAD2"/>
<path d="M193.699 292.891L184.197 313.31C181.906 318.229 187.335 323.147 192.006 320.403L213.345 307.866L186.153 346.208L158.436 329.059L193.699 292.861V292.891Z" fill="#A4BAD2"/>
<path d="M305.633 376.815L309.632 358.746C310.449 355.068 315.879 355.696 315.82 359.461L315.529 381.048L351.726 339.392L299.999 307.136L305.633 376.815Z" fill="#A4BAD2"/>
<path d="M167.193 400.256L189.101 411.203C193.29 413.305 191.363 419.654 186.707 419.07L162.055 415.947L216.22 437.607L222.189 407.189L167.178 400.242L167.193 400.256Z" fill="#A4BAD2"/>
<path d="M45.1299 430.177L54.3251 435.3C57.1421 436.862 57.4924 440.774 54.9965 442.817L52.6612 444.729L69.2127 448.845L71.5626 427.302L45.1299 430.192V430.177Z" fill="#A4BAD2"/>
<path d="M343.508 507.622L347.084 499.054C348.091 496.646 351.054 495.799 353.185 497.288L369.62 508.833C369.912 509.038 370.291 508.789 370.247 508.454L365.504 475.847C365.474 475.628 365.27 475.482 365.051 475.511L336.385 479.408C336.152 479.438 335.991 479.671 336.05 479.905L342.749 507.578C342.837 507.958 343.362 508.001 343.508 507.636" fill="#A4BAD2"/>
<path d="M249.366 173.265L242.828 187.32C241.747 189.641 244.36 191.933 246.52 190.561L265.874 178.183L267.494 197.815L225.006 217.519L220.671 201.931L249.352 173.25L249.366 173.265Z" fill="#A4BAD2"/>
<path d="M204.354 269.99L213.272 250.826C215.563 245.893 219.898 242.215 225.138 240.74L259.481 231.107L218.511 221.007L188.196 241.587L204.354 270.005V269.99Z" fill="#A4BAD2"/>
<path d="M307.661 69.3002C320.17 94.5215 313.602 123.26 292.978 133.492C272.355 143.723 245.484 131.58 232.976 106.359C220.467 81.1373 227.035 52.3985 247.659 42.1669C268.282 31.9354 295.153 44.079 307.661 69.3002Z" fill="#A4BAD2"/>
<path d="M218.979 63.1408L222.861 60.966C225.868 59.2875 229.429 61.9585 228.67 65.3155L227.78 69.2272L246.55 57.0252L234.8 49.3187L218.453 58.6891L218.993 63.1554L218.979 63.1408Z" fill="#A4BAD2"/>
<path d="M222.934 105.863L225.663 106.242C228.728 106.665 231.21 103.775 230.348 100.798L229.371 97.4847L238.989 96.1127L247.892 97.9517L237.792 116.225L219.898 109.891L222.919 105.863H222.934Z" fill="#A4BAD2"/>
<path d="M258.255 141.651L257.876 138.586C257.54 135.9 260.065 133.754 262.663 134.499L267.261 135.812L265.349 128.427L252.402 124.384L245.615 133.01L258.255 141.636V141.651Z" fill="#A4BAD2"/>
</g>
<defs>
<clipPath id="clip0_4226_2203">
<rect width="489.085" height="552.62" fill="white"/>
</clipPath>
</defs>
</svg>
