<svg width="491" height="464" viewBox="0 0 491 464" fill="none" xmlns="http://www.w3.org/2000/svg">
<path d="M469.486 453.076C407.452 452.689 381.851 415.175 381.064 414.014C380.33 411.893 378.342 410.372 375.981 410.372C373.62 410.372 371.499 412 370.845 414.214C370.164 416.109 364.508 432.011 363.974 433.532C359.572 443.27 343.39 440.869 342.242 429.903C341.829 426.968 342.509 424.1 344.137 421.725C344.11 421.712 390.682 284.383 390.669 284.37C394.671 278.513 384.973 272.523 381.584 278.727C372.566 292.854 313.667 452.809 248.124 452.809C123.215 452.809 78.2439 441.47 27.2692 462.895C-18.3959 472.046 -2.13366 411.56 42.3041 388.32C42.3175 388.32 42.3175 388.307 42.3308 388.307C46.5065 385.479 44.2519 378.462 39.1958 378.608L19.3315 377.915C4.36329 378.061 4.28325 354.582 19.3315 354.755L222.964 349.872C228.34 349.739 231.648 343.802 228.78 339.267C212.571 315.173 227.259 278.967 256.302 273.924C262.986 273.497 273.071 271.803 268.469 262.718C241.774 206.767 94.2661 234.142 51.7227 243.988C44.1719 245.749 36.1541 244.921 29.3503 241.213C1.89524 226.178 7.91188 177.031 46.3997 176.47C46.3997 176.47 56.3386 173.402 119.32 173.402C193.694 173.402 206.781 198.603 208.089 184.542L221.283 68.5044C222.497 65.6761 220.509 62.5011 217.427 62.3543L46.3864 69.0246C26.9357 69.0246 11.2471 52.9358 11.8874 33.3517C12.5144 14.608 28.4565 0 47.2002 0C452.903 2.48136 323.112 218.053 355.716 199.27C357.064 197.735 406.251 119.132 407.465 117.531L408.452 115.37C431.198 69.4916 498.889 89.169 488.536 146.707C483.64 196.028 472.968 379.462 472.968 386.933C473.154 402.955 481.279 416.189 488.483 424.914C494.873 437.921 483.96 453.569 469.486 453.076Z" fill="#F9F2EB"/>
<path d="M230.034 235.009C203.099 225.097 208.089 184.528 208.089 184.528L208.035 185.062" fill="#F9F2EB"/>
<path d="M166.986 88.8885C190.386 77.2821 217.04 83.3788 226.539 102.509C236.037 121.64 224.765 146.56 201.365 158.18C177.966 169.786 151.311 163.69 141.812 144.559C132.314 125.429 143.587 100.495 166.986 88.8885Z" fill="#F9F2EB"/>
<path d="M115.264 151.403C132.513 151.403 146.495 137.421 146.495 120.172C146.495 102.924 132.513 88.9419 115.264 88.9419C98.0163 88.9419 84.0339 102.924 84.0339 120.172C84.0339 137.421 98.0163 151.403 115.264 151.403Z" fill="#F9F2EB"/>
<path d="M212.064 87.8883C212.064 87.8883 213.372 88.4219 215.306 89.7293C216.84 90.7699 218.921 89.8093 219.175 87.9817L219.855 83.1523L228.5 86.4875L220.522 106.365L211.17 100.375L212.064 87.875V87.8883Z" fill="#F9F2EB"/>
<path d="M206.981 154.965L207.969 154.258C209.476 153.191 211.53 154.418 211.317 156.259L211.09 158.127L219.175 154.391L216.32 143.292L201.725 145.787L206.981 154.978V154.965Z" fill="#F9F2EB"/>
</svg>
