<svg width="726" height="175" viewBox="0 0 726 175" fill="none" xmlns="http://www.w3.org/2000/svg">
<path d="M77.7652 174.393C129.508 174.393 153.985 156.137 153.985 123.809C153.985 89.1624 128.114 80.8419 83.2973 73.2259C50.9548 67.6788 46.567 64.4504 46.567 55.8952C46.567 48.0442 51.8793 42.0423 75.9015 42.0423C92.7623 42.0423 104.546 47.3545 106.395 57.5241H151.901C150.067 22.1729 120.967 5.78142 78.2346 5.78142C30.6451 5.78142 3.84933 22.1729 3.84933 55.2054C3.84933 92.8602 29.7206 99.5522 76.151 107.403C103.402 112.025 111.268 114.095 111.268 124.264C111.268 133.039 104.106 138.117 79.3937 138.117C56.2963 138.117 44.5126 131.19 43.3533 117.103H0.620926C3.15963 155.447 26.4922 174.393 77.7652 174.393Z" fill="#F9F2EB"/>
<path d="M199.272 43.8917C182.175 43.8917 174.09 36.7305 174.09 21.9532C174.09 7.1759 182.175 3.05176e-05 199.272 3.05176e-05C216.367 3.05176e-05 224.453 7.16123 224.453 21.9386C224.453 36.7158 216.367 43.877 199.272 43.877V43.8917ZM196.953 55.4406H160.002V89.1632H184.024V170.93H222.369V80.8427C222.369 64.4362 213.359 55.4406 196.967 55.4406H196.953Z" fill="#F9F2EB"/>
<path d="M297.444 173.234C338.797 173.234 358.887 159.601 358.887 135.813C358.887 110.177 335.319 105.099 304.605 100.242C287.509 97.4682 278.734 96.0895 278.734 90.9967C278.734 86.3748 280.348 83.601 296.065 83.601C306.454 83.601 312.471 85.9047 314.54 90.0726H357.272C355.423 66.0502 333.015 53.122 297.678 53.122C260.024 53.122 237.851 65.3605 237.851 90.3077C237.851 116.633 259.1 121.491 294.435 126.568C313.146 129.107 318.223 130.501 318.223 136.268C318.223 140.656 313.366 142.74 299.748 142.74C285.425 142.74 278.499 139.041 276.885 131.191H235.531C237.146 158.677 254.932 173.234 297.43 173.234H297.444Z" fill="#F9F2EB"/>
<path d="M395.161 27.7207V55.4411H365.137V90.088H395.161V145.528C395.161 161.934 404.172 170.93 420.564 170.93H475.079V137.208H433.506V90.088H475.079V55.4411H433.506V18.4758L395.161 27.7207Z" fill="#F9F2EB"/>
<path d="M522.89 101.167C524.269 89.8522 532.59 84.5405 550.14 84.5405C567.691 84.5405 576.466 89.3975 578.096 101.167H522.89ZM615.75 114.565C615.75 74.3707 592.888 53.122 549.685 53.122C509.037 53.122 484.31 75.7649 484.31 113.185C484.31 150.605 508.333 173.248 550.61 173.248C584.332 173.248 607.43 158.925 612.742 136.063H571.624C567.926 139.996 560.999 142.065 550.14 142.065C532.809 142.065 524.504 136.987 522.89 124.279H615.75V114.579V114.565Z" fill="#F9F2EB"/>
<path d="M629.602 80.8427V170.93H667.947V90.088H725.457V55.4412H655.004C638.598 55.4412 629.602 64.4514 629.602 80.8427Z" fill="#F9F2EB"/>
</svg>
