<svg width="24" height="25" viewBox="0 0 24 25" fill="none" xmlns="http://www.w3.org/2000/svg">
<path fill-rule="evenodd" clip-rule="evenodd" d="M20.8667 8.42809L20.8675 8.43625C20.8728 8.49609 20.9999 9.91712 21 11.3439V12.6776C21 14.1044 20.8728 15.5254 20.8675 15.5852L20.8654 15.6035C20.8478 15.7437 20.6752 16.9924 20.0785 17.6347C19.3626 18.4147 18.555 18.4996 18.1668 18.5404L18.1665 18.5404C18.1294 18.5443 18.0956 18.5478 18.0656 18.5517L18.0341 18.555C15.6545 18.7263 12.0609 18.7497 12.0249 18.7499L12.0194 18.75L12.0139 18.7499C11.8313 18.7473 7.52345 18.6835 6.14948 18.554L6.10787 18.5483C6.06601 18.541 6.00515 18.5342 5.93439 18.5261L5.92866 18.5255C5.46559 18.473 4.60468 18.3754 3.92381 17.6375C3.3002 16.9882 3.14859 15.7355 3.13335 15.5943L3.13238 15.5854C3.12703 15.5255 3 14.1044 3 12.6776V11.3439C3 9.91712 3.12703 8.49595 3.13238 8.43625L3.13444 8.41803C3.15216 8.27769 3.32464 7.02895 3.92133 6.38683C4.64752 5.59581 5.45968 5.50293 5.84997 5.45833C5.85544 5.4577 5.86084 5.45708 5.86616 5.45647C5.89058 5.45367 5.91331 5.45106 5.93429 5.44827L5.96601 5.445C8.36705 5.27366 11.9608 5.25027 11.9968 5.25014L11.9999 5.25L12.0031 5.25014C12.0391 5.25027 15.6328 5.27366 18.0124 5.445L18.0439 5.44827C18.0707 5.4518 18.1006 5.4552 18.1333 5.45887C18.5281 5.50334 19.349 5.59608 20.0732 6.3595C20.6997 7.00855 20.8514 8.28463 20.8667 8.42809ZM10.6841 9.30781L14.8725 11.4015C15.1204 11.5254 15.2738 11.7626 15.2727 12.0207C15.2716 12.2788 15.1164 12.5149 14.8677 12.6371L10.6792 14.6947C10.5642 14.7513 10.4392 14.7794 10.3145 14.7794C10.1784 14.7794 10.0426 14.7458 9.9201 14.679C9.68549 14.5509 9.54547 14.3254 9.54547 14.0758V9.92438C9.54547 9.67358 9.68635 9.44761 9.92255 9.3197C10.1586 9.19192 10.4433 9.18743 10.6841 9.30781Z" fill="#0A0D18"/>
</svg>
