<svg xmlns="http://www.w3.org/2000/svg" id="remoteness" viewBox="0 0 56 56"><path fill="white" d="M38.7 19.7c0-1.4-1.1-2.5-2.5-2.5s-2.5 1.1-2.5 2.5 1.1 2.5 2.5 2.5 2.5-1.1 2.5-2.5zm-3.3 0c0-.5.4-.8.8-.8.5 0 .8.4.8.8s-.4.8-.8.8c-.4.1-.8-.3-.8-.8z"/><path fill="white" d="M37.9 33.7h-6.6c-1.4 0-2.5-1.1-2.5-2.5 0-1.3 1.2-2.5 2.5-2.5h5.3l4.2-5.6c.7-1 1.1-2.2 1.1-3.4 0-3.2-2.6-5.7-5.7-5.7-3.2 0-5.7 2.6-5.7 5.7 0 1.3.4 2.4 1.1 3.4l3 4h-3.3c-2.3 0-4.2 1.8-4.2 4.1s1.9 4.1 4.2 4.1h6.6c1.4 0 2.5 1.1 2.5 2.5s-1.1 2.5-2.5 2.5H15.6v-5H25l-4-4 4.1-4.1H14V42h23.9c2.3 0 4.1-1.9 4.1-4.2 0-2.2-1.8-4.1-4.1-4.1zM33 22.2c-.5-.7-.8-1.6-.8-2.5 0-2.3 1.8-4.1 4.1-4.1s4.1 1.8 4.1 4.1c0 .9-.3 1.7-.8 2.5l-3.3 4.4-3.3-4.4zm-17.4 6.6h5.5l-2.5 2.5 2.5 2.5h-5.5v-5z"/></svg>