<svg xmlns="http://www.w3.org/2000/svg" viewBox="0 0 56 56">
  <path fill="white" d="M29.8 35.9l-8.1.7v-2l8.2-1.3 6.6 1.2c.4.1.8-.3.9-.7.1-.5-.2-.9-.6-1L30 31.6h-.1l-8.1 1.3v-2L30 29l6.6 1.9c.4.1.8-.3.9-.7.1-.5-.2-.9-.6-1L30 27.3h-.1l-8.1 1.9v-2.1l8.2-2.4 6.6 2.6c.4.1.8-.2.9-.7.1-.5-.2-.9-.6-1L30 23h-.2l-8.1 2.4v-2.1l8.2-3.1 6.6 3.3c.4.1.8-.1.9-.6.1-.5-.2-.9-.6-1l-6.7-3.4h-.2l-8.1 3V20l8.2-4.1 6.5 3.9c.4.1.8-.1.9-.6.1-.4-.2-.9-.6-1.1l-6.6-3.9c-.2-.1-.1-.1-.3 0l-9 4.3c-.8.4-.9 1.1-.9 1.4v20.2h-2.5c-.4 0-.8.4-.8.9s.3.9.8.9h21.1c.4 0 .8-.4.8-.9s-.3-.9-.8-.9H21.7v-1.8l8.2-.7 6.6.4c.4 0 .9-.3.9-.8s-.2-.9-.6-.9l-7-.4z"/>
</svg>
