<svg xmlns="http://www.w3.org/2000/svg" id="kids" viewBox="0 0 56 56"><path fill="white" fill-rule="evenodd" clip-rule="evenodd" d="M46.8 25.5c-.5-.5-1.1-.8-1.8-1-1.5-4.6-5.8-7.7-10.6-7.7h-.5c-1.3 0-2.3-1-2.3-2.3H30c0 .9.3 1.7.8 2.3h-.5c-1.3 0-2.3-1-2.3-2.3h-1.6c0 1.7 1.1 3.2 2.7 3.7-.5.3-1 .6-1.5 1 .5.3 1 .5 1.5.9 1.5-1 3.4-1.6 5.3-1.6 1.4 0 2.6 1.2 2.6 2.6 0 1.4-1.2 2.6-2.6 2.6-1.4 0-2.6-1.2-2.6-2.6h-1.5c1.3 1.1 2.3 2.5 3 4 .3.1.7.1 1.1.1 2.3 0 4.2-1.9 4.2-4.2 0-.7-.2-1.3-.4-1.8 2.7 1.1 4.7 3.4 5.5 6.3l.2.6h.6c.5 0 1 .2 1.3.6.4.4.6.9.6 1.4 0 1-.8 1.9-1.9 1.9h-.6l-.2.6c-1.1 4.2-4.9 7.1-9.3 7.1-.7 0-1.4-.1-2-.2-.3.5-.7.9-1.1 1.4 1 .3 2 .4 3.1.4 4.9 0 9.2-3.2 10.6-7.7.7-.1 1.3-.5 1.8-1 .6-.7 1-1.5 1-2.5s-.4-1.9-1-2.6zM36.2 28c.1.1.1.2.2.3h1.4c0-.6.5-1 1-1 .6 0 1 .5 1 1h1.6c0-1.4-1.2-2.6-2.6-2.6-1.3 0-2.4 1-2.6 2.3zm-2.4 6.2c0 .1-.1.2-.1.3h.6c1.6 0 3-.8 3.8-2.2l-1.3-.8c-.2.6-.5 1.1-.9 1.5-.6.7-1.3 1.1-2.1 1.2zm-14-3.6c0-1.4-1.2-2.6-2.6-2.6-1.4 0-2.6 1.2-2.6 2.6h1.6c0-.6.5-1 1-1 .6 0 1 .5 1 1h1.6zm3.8 0c0-1.4 1.2-2.6 2.6-2.6 1.4 0 2.6 1.2 2.6 2.6h-1.6c0-.6-.5-1-1-1-.6 0-1 .5-1 1h-1.6zm-1.9 4.7c-1 0-1.9-.5-2.4-1.4l-1.4.8c.8 1.3 2.3 2.2 3.8 2.2 1.6 0 3-.8 3.8-2.2l-1.4-.8c-.5.8-1.4 1.4-2.4 1.4zm10.7-8.4c.7.1 1.3.5 1.8 1 .7.7 1 1.5 1 2.5 0 .9-.4 1.8-1 2.5-.5.5-1.1.9-1.8 1-1.5 4.6-5.8 7.7-10.6 7.7-4.9 0-9.2-3.2-10.6-7.7-.7-.1-1.3-.5-1.8-1-.6-.7-1-1.5-1-2.5 0-.9.4-1.8 1-2.5.5-.5 1.1-.8 1.8-1 .9-2.8 2.8-5 5.3-6.4-1.5-.5-2.7-2-2.7-3.7h1.6c0 1.3 1 2.3 2.3 2.3h.3c-.5-.6-.8-1.4-.8-2.3h1.6c0 1.3 1 2.3 2.3 2.3h.5c5 0 9.3 3.2 10.8 7.8zm-1.3 5.4h.6c1 0 1.9-.9 1.9-1.9 0-.5-.2-1-.6-1.4-.4-.4-.8-.6-1.3-.6h-.6l-.1-.6c-.8-2.9-2.9-5.2-5.5-6.3.3.6.4 1.2.4 1.8 0 2.3-1.9 4.2-4.2 4.2s-4.2-1.9-4.2-4.2h1.6c0 1.4 1.2 2.6 2.6 2.6s2.6-1.2 2.6-2.6-1.2-2.6-2.6-2.6c-4.3 0-8.1 2.9-9.3 7.1l-.2.6h-.6c-.5 0-1 .2-1.3.6-.4.4-.6.9-.6 1.4 0 1 .8 1.9 1.9 1.9h.6l.2.6c1.1 4.2 4.9 7.1 9.3 7.1 4.3 0 8.1-2.9 9.3-7.1l.1-.6z"/></svg>