<svg xmlns="http://www.w3.org/2000/svg" id="no-cars" viewBox="0 0 56 56"><path fill="white" d="M42.8 41.4h-2.9c.2-2 .9-2.6 1.4-2.6.3 0 .5-.2.7-.4.1-.3 0-.6-.2-.8-1.4-1.4-3.2-1.3-4.5-.8.4-1.2 1.4-1.6 1.4-1.6.3-.1.5-.4.5-.7 0-.3-.2-.6-.4-.7-2.1-.8-3.6-.3-4.5.2-.1.1-.3.2-.4.3-.2-.4-.4-.7-.8-1-1.6-1.4-4.6-1-4.7-1-.6.1-.8.9-.3 1.3.9.7 1.4 1.5 1.7 2.1-.2-.1-.4-.2-.7-.3-1.8-.6-3.7.5-3.7.6-.3.2-.4.5-.3.8.1.3.4.5.7.5.5 0 .9.2 1.2.5.6.8.6 2.5.4 3.5h-5.1v-12c4.2-.4 7.5-3.9 7.5-8.2 0-4.5-3.7-8.3-8.3-8.3s-8.3 3.7-8.3 8.3c0 4.2 3.2 7.8 7.4 8.2v12h-4.3V43h26.5v-1.6zM15.2 21.2c0-3.4 2.8-6.3 6.3-6.3s6.3 2.8 6.3 6.3-2.8 6.3-6.3 6.3-6.3-2.8-6.3-6.3zM28 37c-.1-.1-.2-.2-.2-.3.3 0 .6 0 .9.1.6.2 1 .7 1.4 1.5.1.3.4.5.7.4.3 0 .6-.2.6-.5 0-.1.6-2.3-1.1-4.4.7.1 1.5.3 1.9.7.4.3.6.8.6 1.5 0 .3.2.6.5.7.3.1.7-.1.8-.4 0 0 .3-.6 1-1 .5-.3 1.1-.5 1.7-.4-.6.6-1.2 1.7-1.2 3.2 0 .6.7.9 1.1.6.1-.1 1.6-1.2 3.1-.7-.6.5-1.2 1.5-1.4 3.4h-1.3c.1-.3.2-.5.4-.7l-1-1c-.5.5-.7 1.2-.8 1.7H34c-.1-.7 0-1.8.7-2.9l-1.2-.8c-.9 1.4-1.1 2.8-1 3.7h-1.4c-.1-.6-.3-1.2-.8-1.7l-1 1c.2.2.3.4.4.7h-1.1c.3-1.2.3-3.2-.6-4.4z"/><path fill="white" d="M18 20.5h7v2h-7z"/></svg>