<svg xmlns="http://www.w3.org/2000/svg" id="park" viewBox="0 0 56 56"><path fill="white" d="M40.8 25.4c.8-.8 1.2-1.8 1.2-2.9 0-1.1-.4-2.1-1.2-2.9-.6-.6-1.3-1-2.1-1.1v-.4c0-2.3-1.8-4.1-4.1-4.1s-4.1 1.8-4.1 4.1v.4c-.3.1-.6.1-.8.3-.3-.1-.6-.2-.8-.3v-.4c0-2.3-1.8-4.1-4.1-4.1s-4.1 1.8-4.1 4.1v.4c-.8.2-1.5.5-2.1 1.1-.8.8-1.2 1.8-1.2 2.9 0 1.1.4 2.1 1.2 2.9 0 0 .1.1.2.1-.2.4-.3.9-.3 1.3 0 2 1.6 3.6 3.6 3.6.7 0 1.4-.2 1.9-.6v2.3h-8c-.5 0-.8.4-.8.8V37h-.3c-.5 0-.8.4-.8.8 0 .5.4.8.8.8h1.4v2.5c0 .5.4.8.8.8.5 0 .8-.4.8-.8v-2.5H24v2.5c0 .5.4.8.8.8.5 0 .8-.4.8-.8v-2.5h1.6v2.5c0 .5.4.8.8.8.5 0 .8-.4.8-.8v-2.5h1.4c.5 0 .8-.4.8-.8 0-.5-.4-.8-.8-.8H30v-4c0-.5-.4-.8-.8-.8h-3.6v-2.3c.6.4 1.2.6 1.9.6.8 0 1.6-.3 2.2-.8.6.5 1.4.8 2.2.8.7 0 1.4-.2 1.9-.6v11.3c0 .5.4.8.8.8.5 0 .8-.4.8-.8V29.8c.6.4 1.2.6 1.9.6 2 0 3.6-1.6 3.6-3.6 0-.5-.1-.9-.3-1.3.1 0 .1-.1.2-.1zM28.3 37.1H16.7v-3.3h11.6v3.3zm-.8-8.3c-1.1 0-1.9-.9-1.9-1.9V24l1.9-1.4c.4-.3.4-.8.2-1.1-.3-.4-.8-.4-1.1-.2l-.9.7v-1.6c0-.5-.4-.8-.8-.8-.5 0-.8.4-.8.8v3.8l-.9-.7c-.4-.3-.9-.2-1.1.2-.3.4-.2.9.2 1.1l1.9 1.4v.7c0 1.1-.9 1.9-1.9 1.9-1.1 0-1.9-.9-1.9-1.9 0-.4.1-.8.4-1.1.1-.2.2-.4.1-.6 0-.2-.2-.4-.4-.5-.2-.1-.4-.2-.5-.4-.5-.5-.7-1.1-.7-1.7 0-.7.3-1.3.7-1.7.5-.5 1.2-.7 1.9-.7.3 0 .5-.1.7-.3.2-.2.2-.5.1-.8-.1-.3-.1-.6-.1-.8 0-1.4 1.1-2.5 2.5-2.5s2.5 1.1 2.5 2.5c0 .3-.1.6-.1.8-.1.3-.1.5.1.8.2.2.4.3.7.3.7 0 1.4.2 1.9.7.5.5.7 1.1.7 1.7 0 .7-.3 1.3-.7 1.7-.1.1-.3.2-.5.4-.2.1-.3.3-.4.5 0 .2 0 .5.1.6.2.3.4.7.4 1.1-.4 1-1.2 1.9-2.3 1.9zm12.1-4.6c-.1.1-.3.2-.5.4-.2.1-.3.3-.4.5 0 .2 0 .5.1.6.2.3.4.7.4 1.1 0 1.1-.9 1.9-1.9 1.9-1.1 0-1.9-.9-1.9-1.9V24l1.9-1.4c.4-.3.4-.8.2-1.1-.3-.4-.8-.4-1.1-.2l-.9.7v-1.6c0-.5-.4-.8-.8-.8-.5 0-.8.4-.8.8V27c0 1.1-.9 1.9-1.9 1.9-.4 0-.8-.1-1.2-.4.2-.5.3-1 .3-1.5s-.1-.9-.3-1.3c.1 0 .1-.1.2-.1.8-.8 1.2-1.8 1.2-2.9 0-.9-.3-1.7-.8-2.4h.1c.3 0 .5-.1.7-.3.2-.2.2-.5.1-.8-.1-.3-.1-.6-.1-.8 0-1.4 1.1-2.5 2.5-2.5s2.5 1.1 2.5 2.5c0 .3-.1.6-.1.8-.1.3-.1.5.1.8.2.2.4.3.7.3.7 0 1.4.2 1.9.7.5.5.7 1.1.7 1.7-.1.4-.4 1.1-.9 1.5z"/></svg>