<svg xmlns="http://www.w3.org/2000/svg" id="shop" viewBox="0 0 56 56"><path fill="white" d="M37.8 28.3c0-.4-.3-.7-.7-.7H26.9c-.4 0-.7.3-.8.7l-1.1 8c-.2 1.5.8 3 2.4 3.2h8.9c1.5 0 2.8-1.2 2.8-2.8v-.4l-1.3-8zm-1.4 9.6h-8.7c-.7 0-1.2-.5-1.2-1.2v-.2l1-7.3h8.9l1 7.3c.1.6-.4 1.3-1 1.4z"/><path fill="white" d="M23.7 37.9h-3.8c-.7 0-1.2-.5-1.2-1.2v-.2l1.7-13.6h12.7l.4 3.3c.1.4.4.7.8.7h.1c.2 0 .4-.1.5-.3.1-.1.1-.3.1-.5l-.5-3.9c-.1-.4-.4-.7-.8-.7h-2.9v-.8c0-2.2-1.8-4.1-4.1-4.1s-4.1 1.8-4.1 4.1v.8h-2.9c-.4 0-.7.3-.8.7L17 36.3c-.2 1.5.8 3 2.4 3.2h.4v.1h3.9c.5 0 .8-.4.8-.8 0-.6-.4-.9-.8-.9zm.5-17.3c0-1.3 1.1-2.6 2.6-2.6s2.6 1.1 2.6 2.6v.8h-5.1v-.8z"/><path fill="white" d="M34.5 30.4c-.5 0-.8.4-.8.8v.5c0 .9-.6 1.7-1.6 1.7-.9 0-1.6-.6-1.6-1.5v-.6c0-.5-.3-.8-.8-.8s-.8.4-.8.8v.5c0 1.7 1.4 3.2 3.2 3.2 1.7 0 3.2-1.4 3.4-3.2v-.6c-.2-.5-.5-.8-1-.8zm-10.4-5.8c-.1-.1-.2-.1-.3-.1-.3 0-.7.2-.8.6-.2.5.1 1 .5 1.1.1.1.2.1.3.1.4 0 .8-.2.9-.6.2-.5-.1-1-.6-1.1zm5.7-.2c-.4 0-.8.2-.9.6-.1.2-.1.5 0 .7.1.3.3.4.5.5.1.1.2.1.3.1.4 0 .7-.3.8-.6.2-.5-.1-1-.4-1.2-.1-.1-.2-.1-.3-.1z"/></svg>