<?xml version="1.0" standalone="no"?>
<!DOCTYPE svg PUBLIC "-//W3C//DTD SVG 20010904//EN"
 "http://www.w3.org/TR/2001/REC-SVG-20010904/DTD/svg10.dtd">
<svg version="1.0" xmlns="http://www.w3.org/2000/svg"
 width="1480.000000pt" height="1480.000000pt" viewBox="0 0 1480.000000 1480.000000"
 preserveAspectRatio="xMidYMid meet">
<metadata>
Created by potrace 1.14, written by Peter Selinger 2001-2017
</metadata>
<g transform="translate(0.000000,1480.000000) scale(0.100000,-0.100000)"
fill="#000000" stroke="none">
<path d="M9318 14765 c-38 -6 -68 -9 -68 -8 0 2 -9 -1 -19 -7 -11 -5 -36 -13
-57 -16 -52 -8 -177 -55 -271 -102 -139 -69 -159 -81 -173 -96 -7 -9 -16 -16
-20 -16 -10 0 -61 -43 -114 -97 -52 -54 -60 -64 -76 -94 -7 -13 -16 -26 -19
-29 -9 -7 -41 -78 -58 -130 -8 -25 -23 -56 -32 -70 -18 -26 -59 -117 -68 -154
-10 -36 -11 -116 -2 -121 7 -5 113 65 129 85 10 13 276 203 298 213 12 6 22
14 22 19 0 4 6 8 14 8 8 0 21 6 28 13 7 7 22 16 33 21 20 7 -54 -72 -221 -238
-106 -105 -134 -130 -166 -147 -12 -6 -25 -15 -28 -19 -3 -3 -32 -17 -65 -30
-33 -13 -65 -27 -71 -32 -7 -5 -12 -49 -13 -111 0 -56 -3 -113 -5 -127 -2 -14
-5 -28 -5 -31 -1 -4 -18 -3 -39 1 -39 7 -169 5 -212 -3 -70 -14 -127 -30 -254
-72 -137 -45 -141 -46 -240 -41 -56 3 -114 8 -131 11 -16 3 -43 7 -60 10 -28
5 -68 13 -90 19 -5 1 -26 6 -45 10 -19 5 -39 11 -45 14 -5 4 -17 7 -25 9 -8 1
-55 22 -105 47 -79 41 -116 68 -169 127 -14 16 -37 84 -31 91 2 2 6 16 9 31
12 69 147 221 229 258 15 7 27 16 27 21 0 4 4 8 10 8 5 0 33 11 62 24 67 30
142 54 193 62 52 8 56 11 51 37 -3 12 -5 25 -5 28 -1 8 -95 4 -109 -5 -7 -4
-12 -5 -12 -2 0 2 -15 0 -32 -5 -18 -6 -44 -12 -58 -15 -40 -8 -157 -62 -178
-81 -7 -7 -17 -13 -21 -13 -5 0 -35 -27 -68 -59 -53 -54 -106 -139 -120 -194
-10 -42 -11 -149 -1 -180 5 -18 10 -38 11 -44 0 -7 4 -13 9 -13 4 0 8 -7 8
-16 0 -36 133 -177 167 -176 4 0 19 -8 33 -17 30 -21 127 -57 195 -72 46 -10
59 -13 105 -18 15 -2 -18 -19 -50 -26 -8 -2 -15 -4 -15 -5 0 -2 -15 -6 -155
-38 -119 -28 -159 -35 -295 -50 -81 -9 -410 -8 -460 2 -22 4 -53 9 -70 11 -16
2 -32 4 -35 6 -3 1 -9 3 -15 4 -44 7 -140 49 -183 82 -48 36 -63 74 -61 149 1
35 0 66 -3 69 -2 3 -26 -16 -52 -42 -211 -212 -65 -428 367 -543 48 -12 87
-26 87 -30 0 -7 -127 -5 -207 5 -128 15 -263 71 -263 111 0 7 -4 14 -10 14 -5
0 -13 0 -17 0 -13 0 -10 -34 6 -60 115 -194 571 -267 1101 -175 57 10 196 40
205 45 6 3 9 4 50 14 17 5 82 26 146 47 64 21 122 39 128 39 56 0 -332 -219
-419 -236 -16 -4 -30 -10 -30 -15 0 -5 -3 -8 -7 -7 -5 1 -47 -11 -95 -26 -105
-32 -95 -30 -238 -61 -117 -25 -157 -31 -290 -42 -145 -12 -321 -7 -410 11
-54 11 -116 30 -126 38 -7 5 -22 11 -34 13 -12 2 -43 18 -69 34 -66 42 -97 48
-104 21 -7 -26 37 -75 93 -106 19 -10 37 -21 40 -24 3 -3 10 -6 15 -7 6 -1 45
-15 88 -32 74 -28 163 -53 200 -57 9 -1 18 -2 20 -4 5 -4 82 -15 177 -25 19
-2 55 -7 80 -10 25 -3 54 -6 66 -6 12 0 26 -10 34 -25 14 -26 108 -76 170 -90
48 -11 49 -11 55 -14 7 -4 15 -5 68 -14 27 -4 59 -10 70 -13 29 -8 329 -12
341 -5 6 3 24 7 40 8 108 9 301 49 389 80 23 9 49 17 57 19 20 4 144 58 150
65 3 3 25 16 50 29 69 37 153 109 208 177 27 33 87 157 97 199 6 21 95 242
113 279 22 44 26 39 36 -44 13 -97 40 -219 60 -264 8 -17 17 -40 21 -51 6 -19
7 -19 19 -2 18 24 21 22 36 -23 14 -42 35 -60 153 -124 100 -55 199 -94 285
-111 97 -20 175 -45 184 -59 4 -6 8 -8 8 -3 0 12 53 -25 80 -56 49 -57 82
-253 49 -293 -5 -6 -6 -14 -2 -17 3 -4 1 -7 -4 -7 -16 0 -10 -30 8 -41 8 -4
39 -14 69 -20 30 -6 60 -14 65 -17 6 -4 15 -7 20 -8 6 -1 24 -5 40 -9 164 -37
250 -48 420 -49 193 -1 247 4 353 35 37 11 76 21 86 24 11 3 59 23 108 46 85
41 88 43 71 61 -10 11 -29 26 -43 35 -30 17 -97 110 -87 119 3 4 2 15 -4 26
-6 10 -11 59 -13 108 -3 99 -3 99 68 105 150 14 242 68 287 171 32 72 35 95
25 229 -3 50 -8 191 -11 315 -5 225 -9 288 -21 345 -10 49 -66 156 -102 195
-35 38 -58 103 -67 190 -5 50 -11 103 -20 170 -1 14 -10 50 -19 80 -9 30 -18
64 -21 75 -3 11 -9 21 -15 23 -6 2 -8 8 -4 13 3 5 0 9 -5 9 -6 0 -11 5 -11 11
0 20 -58 85 -102 115 -24 16 -72 50 -107 77 -35 26 -99 66 -142 87 -67 34 -81
46 -104 89 -15 27 -39 57 -53 68 -42 30 -229 105 -292 116 -14 3 -42 8 -62 12
-62 12 -199 12 -270 0z m42 -69 c95 -18 177 -57 243 -116 26 -23 47 -48 47
-54 0 -7 -28 -21 -63 -32 l-63 -21 -40 27 c-49 34 -81 42 -169 46 -166 6 -401
-59 -580 -159 -86 -49 -171 -107 -208 -142 -16 -15 -31 -24 -35 -20 -3 3 -2 9
3 13 6 4 30 32 55 62 152 187 403 357 570 386 14 2 39 8 55 12 34 9 132 8 185
-2z m355 -48 c28 -19 105 -109 105 -122 0 -16 -49 22 -110 85 -65 68 -63 82 5
37z m-417 -278 c-65 -43 -208 -170 -208 -185 0 -4 -52 -77 -79 -111 -4 -5 -14
-27 -20 -47 -7 -20 -17 -37 -22 -37 -5 0 -9 -6 -9 -12 0 -7 -11 -39 -24 -71
-32 -80 -105 -156 -186 -194 -123 -58 -275 -121 -327 -137 -50 -14 -53 -14
-63 4 -5 10 -10 39 -10 63 0 43 1 44 43 56 54 17 193 86 234 117 17 13 36 24
41 24 6 0 12 3 14 8 2 4 35 33 75 65 84 66 171 152 263 257 128 145 184 192
276 229 82 33 83 23 2 -29z m1052 -396 c0 -8 -7 -22 -15 -30 -22 -22 -38 -92
-30 -133 9 -48 58 -111 124 -158 53 -37 110 -90 112 -102 0 -3 2 -14 4 -23 3
-18 -10 -25 -17 -10 -1 5 -30 27 -63 49 -97 66 -145 127 -168 214 -18 71 -14
125 13 182 14 29 40 37 40 11z m-386 -124 c51 -106 68 -243 34 -276 -18 -17
-48 -19 -83 -5 -27 11 -79 9 -132 -6 -7 -1 -19 -4 -26 -6 -24 -5 -122 -56
-143 -74 -11 -10 -30 -24 -42 -31 -21 -12 -22 -10 -22 25 0 53 59 105 200 175
177 88 166 86 198 33 30 -50 37 -53 51 -27 11 20 -27 149 -47 161 -12 7 -49 7
-72 -2 -8 -3 -33 -11 -55 -18 -60 -18 -160 -66 -174 -83 -8 -9 -17 -16 -22
-16 -14 0 -87 -80 -122 -133 -35 -54 -47 -49 -23 8 20 47 80 123 128 160 21
17 48 38 59 48 12 9 28 17 36 17 7 0 13 5 13 10 0 6 6 10 13 10 6 0 26 7 42
16 22 12 125 52 162 63 2 1 14 -22 27 -49z m-1115 -201 c-73 -57 -269 -179
-287 -179 -6 0 -12 -4 -14 -9 -5 -15 -32 -17 -34 -3 -1 6 -2 17 -3 22 0 6 -13
8 -28 5 -16 -3 2 5 39 18 108 39 285 134 328 175 11 12 15 12 18 2 3 -7 -6
-21 -19 -31z m-419 -179 c0 -5 -12 -10 -27 -9 l-28 1 25 8 c14 4 26 8 28 9 1
1 2 -3 2 -9z m2122 -77 c-34 -72 -51 -98 -89 -135 -49 -48 -83 -44 -83 8 0 36
-1 35 108 105 34 22 62 45 62 50 0 5 4 9 10 9 5 0 1 -17 -8 -37z m-1713 -5
c-14 -26 -13 -76 2 -94 5 -7 6 -14 2 -17 -10 -6 -60 -3 -68 4 -11 11 -131 -13
-165 -34 -77 -45 -136 -133 -133 -197 6 -102 45 -195 107 -253 49 -45 242
-148 341 -182 73 -25 95 -29 147 -28 51 2 43 11 84 -97 19 -48 18 -50 -15 -45
-16 2 -76 5 -133 6 -57 1 -121 8 -143 15 -54 17 -114 43 -131 57 -50 41 -84
76 -84 85 0 6 -4 12 -8 14 -23 9 -152 235 -152 266 0 7 -5 20 -10 30 -6 9 -21
48 -34 85 -20 58 -22 76 -13 115 18 87 76 143 207 202 30 14 61 31 68 38 8 7
17 11 20 9 4 -3 25 6 47 18 22 13 48 23 58 24 15 1 16 -2 6 -21z m50 -229 c28
-7 51 -18 51 -23 0 -6 3 -22 7 -35 5 -21 4 -23 -18 -16 -13 5 -30 8 -36 8 -7
0 -13 4 -13 9 0 4 -3 7 -7 6 -5 -1 -28 2 -53 7 -90 17 -142 6 -209 -44 -36
-27 -35 -19 7 37 41 56 75 71 153 67 37 -1 91 -9 118 -16z m1624 -153 c-39
-19 -92 -48 -116 -65 -36 -24 -46 -28 -51 -16 -8 22 56 66 133 92 98 33 116
27 34 -11z m72 -155 c22 -5 34 -9 28 -10 -7 0 -13 -6 -13 -12 0 -5 5 -7 10 -4
6 3 10 2 10 -4 0 -17 -43 -40 -78 -43 -19 -1 -36 -6 -38 -10 -3 -5 -10 -6 -15
-3 -5 4 -9 1 -9 -6 0 -7 -3 -10 -6 -6 -3 3 -16 2 -28 -3 -29 -10 -52 3 -60 35
-9 35 8 63 41 68 48 7 117 6 158 -2z m-2933 -241 c-21 -23 -27 -30 -76 -98
-28 -39 -53 -60 -90 -77 -165 -75 -283 -81 -339 -17 -24 27 -16 38 46 67 66
30 330 118 387 129 14 2 36 9 50 14 34 13 43 5 22 -18z m1683 -34 c86 -42 235
-98 235 -89 0 3 6 0 14 -6 7 -6 26 -13 42 -16 16 -2 67 -13 114 -24 90 -21
139 -31 180 -36 14 -1 43 -5 65 -9 36 -5 67 -9 185 -21 19 -2 68 -4 108 -5 39
-2 72 -5 72 -9 0 -3 -113 -61 -251 -128 -246 -121 -250 -123 -279 -108 -17 9
-31 14 -33 13 -2 -2 -12 3 -21 11 -9 8 -45 28 -79 46 -90 46 -180 96 -194 107
-7 6 -13 7 -13 3 0 -5 -8 -1 -17 7 -10 8 -33 21 -50 29 -18 8 -33 17 -33 21 0
5 -9 8 -20 8 -11 0 -20 5 -20 10 0 6 -6 10 -12 10 -25 1 -50 29 -54 62 -3 18
-9 47 -14 63 -13 45 -22 121 -13 110 4 -6 44 -28 88 -49z"/>
<path d="M9895 13653 c-11 -2 -31 -12 -44 -22 l-25 -19 26 5 c14 3 42 0 63 -6
22 -6 41 -8 43 -6 6 6 -27 55 -36 54 -4 -1 -16 -4 -27 -6z"/>
<path d="M9051 11977 c-24 -18 -60 -47 -80 -65 -20 -18 -46 -35 -58 -38 -13
-4 -23 -9 -23 -13 0 -9 -54 -28 -98 -36 -19 -3 -48 -12 -65 -19 l-32 -13 30
-13 c17 -7 45 -18 63 -26 18 -8 37 -14 43 -14 19 0 143 -85 184 -127 57 -57
95 -105 95 -120 0 -7 3 -13 8 -13 11 0 69 -126 91 -200 11 -36 23 -92 26 -125
3 -33 7 -72 8 -87 2 -15 -2 -30 -7 -32 -7 -3 -7 -5 0 -5 7 -1 10 -14 8 -33
-16 -147 -44 -247 -90 -320 -30 -47 -116 -138 -131 -138 -6 0 -13 -3 -15 -8
-5 -12 -223 -142 -223 -133 0 2 -17 -4 -39 -13 -21 -9 -44 -16 -50 -16 -7 0
-17 -5 -24 -12 -7 -7 -12 -9 -12 -5 0 4 -15 1 -32 -6 -18 -8 -67 -22 -108 -32
-41 -11 -67 -21 -57 -23 46 -9 281 -137 389 -210 115 -79 224 -170 248 -208 8
-13 18 -24 22 -24 5 0 8 -7 8 -15 0 -8 4 -15 9 -15 13 0 33 -55 33 -93 0 -19
-12 -55 -26 -79 -26 -45 -128 -148 -146 -148 -5 0 -10 -3 -10 -7 0 -5 -17 -19
-38 -33 -20 -14 -39 -27 -42 -30 -3 -3 -24 -18 -47 -33 -47 -30 -56 -49 -20
-40 42 10 197 4 262 -10 11 -3 40 -8 65 -12 25 -4 50 -10 55 -13 6 -4 18 -8
27 -9 9 -2 72 -17 140 -34 68 -17 130 -33 138 -34 13 -3 138 -34 205 -51 11
-3 29 -7 40 -8 11 -2 49 -9 85 -15 183 -33 565 -36 710 -6 13 2 42 7 65 11 31
4 235 46 290 59 36 8 75 19 109 30 l39 12 2 59 c2 56 9 101 21 133 2 8 7 30
10 50 3 20 10 43 15 52 4 9 6 19 3 21 -2 3 0 25 5 49 14 62 22 109 26 146 2
17 8 57 14 90 13 75 21 134 27 192 2 25 6 66 9 91 2 25 7 90 9 145 3 55 6 100
6 100 1 0 2 35 3 78 1 42 -2 77 -7 77 -5 0 -4 6 1 13 6 6 9 21 7 32 -2 11 -6
62 -9 112 -2 51 -7 105 -9 120 -3 16 -7 48 -10 73 -6 44 -11 71 -21 120 -3 14
-7 34 -10 45 -3 18 -30 113 -39 140 -1 6 -9 24 -15 40 -7 17 -14 37 -16 45 -2
8 -4 17 -5 20 -1 3 -2 8 -1 13 0 4 -3 7 -9 7 -5 0 -10 9 -10 20 0 11 -4 20
-10 20 -5 0 -10 6 -10 13 0 19 -73 131 -126 194 -44 52 -127 119 -154 125 -8
2 -18 7 -22 12 -3 5 -19 1 -35 -10 -55 -37 -231 -109 -293 -120 -14 -3 -34 -8
-45 -11 -11 -4 -29 -8 -40 -9 -11 -1 -29 -4 -40 -7 -11 -3 -45 -8 -75 -12 -30
-4 -64 -9 -74 -11 -49 -9 -190 -18 -281 -18 -108 1 -177 9 -210 26 -11 6 -22
10 -25 9 -20 -8 -160 63 -240 122 -80 59 -220 207 -220 232 0 3 -6 12 -12 20
-29 30 -48 56 -48 65 0 16 -12 11 -59 -23z m559 -486 c48 -14 150 -39 182 -45
34 -6 96 -34 128 -59 114 -87 286 -261 349 -356 14 -20 27 -38 30 -41 16 -14
122 -184 143 -230 51 -109 116 -305 123 -370 1 -8 4 -24 8 -35 3 -11 9 -36 12
-55 3 -19 8 -48 11 -64 5 -32 3 -31 -60 24 -41 35 -288 282 -306 306 -8 10
-41 51 -72 89 -52 66 -228 319 -228 329 0 9 -64 101 -72 104 -4 2 -8 8 -8 13
0 14 -159 236 -200 280 -135 143 -133 137 -40 110z m1280 -91 c18 -41 70 -187
115 -325 62 -185 81 -254 74 -267 -5 -10 -6 -18 -2 -18 4 0 8 -94 8 -210 0
-115 -3 -210 -6 -210 -4 0 -3 -16 1 -34 4 -19 5 -37 3 -40 -3 -3 -5 -49 -5
-103 2 -186 -24 -208 -32 -28 -2 61 -5 110 -6 110 -1 0 -3 25 -5 55 -3 68 -14
201 -20 255 -3 22 -7 60 -10 85 -2 25 -6 61 -9 80 -3 19 -8 55 -11 80 -3 25
-9 71 -15 104 -5 32 -9 61 -8 65 1 3 -2 17 -5 31 -7 24 -13 58 -22 110 -6 35
-13 69 -19 88 -3 9 -8 31 -11 47 -8 38 -13 60 -15 60 -1 0 -3 7 -5 15 -4 23
-25 99 -32 118 -15 42 8 0 37 -68z m-450 -34 c8 -13 45 -67 83 -119 37 -52 67
-99 67 -105 0 -6 4 -12 8 -14 15 -6 106 -176 163 -303 49 -110 118 -345 145
-489 2 -16 7 -33 10 -38 3 -5 8 -21 10 -36 3 -15 16 -72 30 -127 14 -55 27
-113 30 -129 3 -16 9 -39 13 -50 12 -30 3 -50 -15 -35 -8 6 -14 17 -14 24 0 8
-3 15 -7 17 -12 5 -153 273 -162 308 -2 8 -13 40 -23 70 -15 42 -76 294 -102
420 -2 8 -6 22 -9 30 -4 12 -21 63 -41 125 -2 6 -9 26 -17 45 -7 19 -12 38
-11 43 1 4 -3 7 -10 7 -6 0 -9 3 -5 6 5 5 -60 139 -103 214 -8 14 -43 53 -76
87 -62 63 -63 71 -9 72 21 1 34 -6 45 -23z m-1097 -435 c20 -43 37 -81 37 -84
0 -11 130 -223 150 -244 11 -12 20 -26 20 -32 0 -5 3 -11 8 -13 4 -1 29 -29
55 -60 57 -68 133 -145 189 -190 22 -18 52 -43 66 -56 75 -64 289 -194 464
-282 45 -23 90 -45 98 -50 8 -5 29 -16 45 -24 17 -8 55 -26 85 -42 30 -15 57
-28 60 -29 3 -1 31 -14 63 -30 58 -30 80 -54 30 -34 -16 7 -39 16 -53 21 -14
6 -37 17 -52 25 -16 8 -28 12 -28 9 0 -5 -32 7 -105 39 -16 7 -84 34 -150 61
-66 26 -167 67 -225 92 -58 24 -109 45 -115 46 -5 2 -23 9 -40 15 -46 20 -70
29 -75 29 -3 0 -38 17 -77 36 -40 20 -74 36 -77 36 -11 0 -181 103 -184 111
-2 5 -10 9 -17 9 -8 0 -47 33 -88 73 -71 69 -129 158 -141 218 -3 13 -8 35
-11 49 -8 35 -4 265 5 265 1 0 3 20 5 45 2 25 3 51 4 58 2 27 18 7 54 -67z"/>
<path d="M8515 11673 c-44 -19 -87 -42 -96 -49 -8 -8 -19 -14 -22 -14 -4 0
-60 -36 -125 -79 -221 -150 -321 -188 -461 -177 -104 8 -122 -8 -123 -112 0
-47 36 -152 52 -152 4 0 10 -6 13 -14 4 -10 -8 -22 -38 -36 -25 -12 -60 -32
-79 -45 -19 -13 -43 -26 -55 -30 -12 -3 -21 -11 -21 -16 0 -5 -9 -9 -19 -9
-11 0 -21 -4 -23 -8 -1 -4 -34 -26 -73 -47 -38 -22 -79 -45 -90 -52 -11 -7
-27 -15 -35 -19 -8 -4 -80 -46 -160 -92 -80 -47 -161 -94 -180 -105 -19 -10
-47 -28 -62 -38 -14 -11 -31 -19 -37 -19 -6 0 -11 -4 -11 -10 0 -5 -5 -10 -11
-10 -15 0 -279 -175 -382 -253 -122 -94 -133 -103 -212 -182 -167 -167 -177
-193 -120 -311 38 -78 117 -167 269 -299 38 -33 74 -65 80 -71 6 -5 56 -47
111 -92 55 -46 115 -96 133 -112 19 -17 36 -30 38 -30 2 0 39 -27 82 -60 98
-77 82 -65 187 -140 50 -35 92 -67 95 -70 3 -3 17 -11 33 -19 15 -8 27 -18 27
-23 0 -4 4 -8 9 -8 4 0 63 -36 129 -80 67 -44 125 -80 130 -80 5 0 17 -9 27
-20 10 -11 22 -20 26 -20 7 0 109 -60 119 -70 3 -3 19 -12 35 -20 17 -8 57
-31 90 -50 67 -40 191 -100 205 -100 6 0 10 -3 10 -8 0 -4 13 -13 29 -20 16
-7 39 -22 52 -32 44 -37 133 -115 155 -136 108 -103 200 -151 344 -179 10 -2
40 -13 66 -24 26 -12 53 -21 60 -21 8 0 14 -4 14 -10 0 -5 9 -10 19 -10 11 0
21 -3 23 -7 6 -14 106 -63 170 -84 35 -12 70 -26 78 -32 38 -30 56 -35 74 -21
31 22 15 80 -36 129 -75 72 -108 115 -108 140 0 24 3 25 43 20 48 -6 83 -11
113 -18 12 -3 39 -8 60 -12 22 -4 46 -8 54 -10 97 -20 230 -11 230 17 0 5 4 7
9 3 5 -3 12 -1 16 5 3 5 14 10 23 10 9 1 30 11 46 24 35 29 31 55 -16 111 -48
56 -118 104 -248 171 -63 32 -117 62 -118 67 -2 4 -7 5 -11 3 -4 -3 -20 6 -36
18 -24 20 -27 26 -17 39 10 11 21 13 50 6 20 -5 71 -12 112 -15 41 -3 84 -6
95 -8 26 -4 105 19 122 37 20 19 6 44 -30 56 -33 11 -297 80 -332 86 -11 3
-37 8 -57 14 -21 5 -38 7 -38 4 0 -3 -6 -1 -12 4 -7 5 -39 9 -70 8 -32 0 -58
3 -58 8 0 4 -6 5 -12 0 -16 -10 -98 -11 -98 -2 0 4 -9 5 -19 2 -24 -6 -70 37
-72 67 -1 11 -3 25 -4 30 -1 6 -3 14 -4 19 -3 24 -87 6 -99 -21 -2 -5 -8 -8
-14 -8 -6 0 -27 -13 -47 -29 -84 -66 -113 -69 -238 -25 -88 30 -256 111 -261
125 -2 5 -8 9 -13 9 -6 0 -24 10 -41 23 -146 103 -246 221 -509 597 -51 74
-97 137 -101 138 -5 2 -8 7 -8 12 0 22 -116 122 -177 152 -37 18 -70 33 -73
34 -3 0 -30 5 -60 12 -48 10 -131 22 -167 25 -7 0 -10 3 -8 7 2 3 38 7 79 7
42 1 80 5 86 8 5 3 10 3 10 -2 0 -4 28 -9 63 -10 34 -1 91 -4 127 -6 55 -3 71
0 103 20 20 13 37 20 37 16 0 -5 4 -3 8 3 4 5 23 18 42 28 19 9 44 23 55 29
11 7 54 31 96 54 68 38 250 147 289 173 8 5 60 39 115 76 118 77 158 118 175
180 17 59 14 172 -5 234 -1 3 -5 19 -10 35 -18 66 -91 194 -172 302 -37 49
-41 51 -64 40 -79 -40 -75 -41 -94 15 -17 52 -24 143 -12 155 16 15 55 8 92
-17 40 -28 148 -130 195 -186 75 -88 154 -243 175 -341 12 -54 12 -227 1 -277
-16 -72 -15 -81 14 -80 34 1 110 13 119 18 4 3 22 8 39 11 118 20 468 170 520
222 7 7 19 13 26 13 16 0 137 128 156 166 8 16 17 31 20 34 6 6 29 65 36 95
15 54 9 187 -10 250 -2 6 -4 13 -5 17 -5 23 -51 110 -83 158 -36 55 -124 149
-189 203 -57 48 -213 137 -239 137 -14 0 -61 -17 -105 -37z"/>
<path d="M11059 11681 c13 -18 33 -51 46 -74 12 -23 32 -59 43 -79 30 -53 65
-122 65 -128 -1 -3 8 -17 18 -32 10 -14 19 -31 19 -37 0 -6 8 -25 19 -44 18
-32 68 -170 77 -211 6 -27 8 -176 2 -181 -2 -2 -2 -22 0 -45 4 -36 7 -40 25
-34 12 4 26 12 32 18 6 6 28 20 48 31 20 11 37 23 37 27 0 5 5 8 10 8 6 0 44
23 85 50 41 28 77 49 79 48 2 -2 15 6 28 18 13 11 41 31 63 45 22 13 46 29 53
36 8 7 18 11 23 8 5 -4 9 -2 9 3 0 5 12 15 28 23 70 36 70 40 -5 115 -69 70
-166 155 -206 183 -12 8 -24 18 -27 22 -8 11 -129 99 -137 99 -3 0 -14 6 -22
14 -30 26 -152 87 -224 113 -40 14 -103 28 -141 31 l-69 5 22 -32z"/>
<path d="M11834 10942 c-12 -9 -34 -26 -50 -37 -15 -11 -47 -35 -71 -52 -24
-18 -47 -33 -52 -33 -5 0 -11 -4 -13 -8 -2 -6 -132 -103 -190 -143 -9 -6 0
-75 28 -239 3 -14 7 -43 9 -65 2 -22 4 -40 5 -40 1 0 3 -13 6 -30 2 -16 7 -46
10 -65 10 -68 11 -85 5 -95 -3 -5 -6 -15 -7 -20 -1 -6 -15 -44 -32 -85 -27
-70 -41 -101 -109 -250 -14 -30 -62 -129 -107 -220 -46 -91 -86 -175 -90 -187
-5 -15 3 -45 23 -91 27 -61 34 -86 46 -162 1 -8 -1 -29 -6 -47 -4 -18 -3 -36
2 -39 5 -3 7 -10 3 -16 -4 -6 3 -8 17 -6 17 2 38 25 71 73 26 39 47 76 47 83
1 6 6 12 12 12 5 0 8 4 4 9 -3 5 -1 12 5 16 6 4 22 27 35 53 14 26 43 79 65
117 45 77 200 386 242 480 14 33 36 81 47 107 12 26 21 49 21 51 0 3 8 22 17
43 9 22 18 44 19 49 1 6 11 44 23 85 11 41 22 89 25 105 2 17 7 48 11 70 3 22
8 56 10 75 3 19 8 58 12 85 20 130 0 309 -43 401 -19 39 -21 40 -50 16z"/>
<path d="M10943 9072 c-13 -2 -23 -7 -23 -11 0 -4 -6 -8 -12 -8 -16 -1 -54 -7
-183 -28 -155 -25 -183 -29 -275 -40 -185 -22 -487 -34 -509 -21 -5 4 -12 2
-16 -4 -3 -5 2 -10 12 -10 53 0 406 -104 503 -147 116 -52 162 -76 218 -113
153 -98 236 -204 267 -340 0 -3 6 -27 13 -55 12 -48 14 -86 29 -430 8 -199 8
-705 -1 -885 -13 -282 -27 -407 -61 -570 -3 -14 -8 -36 -10 -50 -2 -14 -6 -34
-9 -45 -2 -11 -5 -28 -5 -37 -1 -10 -6 -18 -12 -18 -5 0 -8 3 -6 8 7 10 19
239 20 342 0 86 -11 274 -18 333 -3 18 -7 54 -11 82 -6 53 -20 128 -40 215 -9
43 -12 55 -14 55 -1 0 -3 7 -5 15 -12 55 -39 147 -55 185 -4 11 -14 36 -21 55
-7 19 -22 58 -34 85 -26 58 -35 83 -34 91 0 4 -3 10 -8 13 -4 3 -37 65 -73
136 -36 72 -68 132 -72 135 -3 3 -17 24 -30 48 -44 81 -141 237 -150 240 -4 2
-8 8 -8 13 0 12 -103 168 -111 169 -4 0 35 -73 86 -162 100 -177 103 -183 155
-284 19 -38 38 -70 43 -72 4 -2 7 -8 7 -14 0 -6 22 -56 49 -112 74 -155 138
-306 160 -381 7 -22 16 -49 21 -60 10 -24 41 -121 44 -138 1 -7 5 -18 9 -24 5
-7 6 -13 3 -13 -2 0 0 -15 5 -32 16 -51 33 -141 44 -223 29 -223 25 -521 -11
-790 -4 -33 -8 -75 -8 -92 -1 -18 -4 -33 -7 -33 -3 0 -6 -6 -6 -12 -1 -19 -11
-92 -28 -208 -3 -19 -8 -51 -11 -70 -2 -18 -7 -36 -9 -39 -3 -2 1 -11 8 -19 9
-13 9 -14 0 -8 -13 7 -15 0 -16 -51 -1 -12 -3 -21 -5 -18 -2 2 -22 -6 -43 -17
-43 -22 -92 -32 -154 -31 -74 2 -200 12 -225 18 -14 4 -37 9 -52 12 -16 3 -28
8 -28 12 0 4 -10 7 -22 8 -11 1 -46 15 -76 30 -42 21 -57 34 -59 52 -5 35 -8
36 -35 9 -12 -12 -26 -22 -30 -21 -5 2 -8 -1 -8 -6 0 -11 -110 -82 -170 -108
-116 -52 -228 -76 -359 -76 -104 0 -255 25 -267 44 -3 5 12 55 33 112 21 56
38 104 39 107 0 3 3 12 7 20 3 8 13 40 22 70 10 30 24 65 31 78 8 12 12 22 9
22 -2 0 16 57 41 128 25 70 47 134 49 142 2 8 30 87 60 175 31 88 61 176 67
195 5 19 15 41 20 48 6 7 8 15 5 19 -4 3 -2 12 3 19 6 6 12 20 15 30 2 11 24
78 50 149 25 72 48 137 50 145 5 20 94 279 105 305 15 36 23 60 27 80 2 11 8
24 13 29 6 6 10 16 10 22 0 7 5 25 12 41 6 15 12 30 13 33 0 3 18 57 39 120
38 114 53 222 35 251 -10 17 -19 8 -35 -34 -6 -17 -28 -77 -49 -132 -20 -55
-38 -107 -40 -115 -2 -8 -22 -71 -45 -140 -23 -69 -43 -132 -45 -140 -2 -8 -9
-28 -16 -45 -6 -16 -13 -36 -15 -42 -2 -11 -14 -47 -42 -123 -3 -8 -6 -19 -8
-25 -1 -5 -17 -48 -34 -95 -17 -47 -33 -92 -35 -100 -2 -8 -17 -52 -33 -97
-17 -46 -28 -83 -25 -83 3 0 1 -6 -4 -12 -6 -7 -16 -31 -22 -53 -7 -22 -16
-49 -21 -60 -5 -11 -23 -60 -39 -110 -17 -49 -71 -209 -121 -355 -50 -146 -93
-272 -95 -280 -14 -62 -94 -263 -107 -268 -4 -2 -8 -10 -8 -18 0 -8 -9 -22
-20 -31 -11 -10 -20 -21 -20 -26 0 -24 -192 -167 -222 -167 -4 0 -19 -5 -35
-12 -34 -13 -50 -18 -83 -22 -14 -2 -41 -8 -60 -13 -37 -10 -257 -9 -300 2
-14 3 -36 8 -50 11 -14 3 -38 9 -55 14 -16 6 -33 10 -37 10 -8 1 -104 43 -158
69 -128 63 -359 203 -368 224 -2 4 -8 7 -13 7 -12 0 -163 101 -167 112 -2 4
-8 8 -13 8 -5 0 -36 18 -68 40 -32 22 -64 40 -70 40 -6 0 -11 4 -11 8 0 14
-164 92 -196 95 l-30 2 45 60 c25 33 49 65 53 70 5 6 25 33 45 60 21 28 41 55
45 60 5 6 38 48 74 95 36 47 71 92 77 100 104 129 327 435 327 448 0 6 4 12 8
14 8 3 112 155 112 163 0 2 19 36 43 77 66 111 140 270 177 378 12 36 26 74
31 85 9 22 35 122 43 170 3 17 8 41 11 55 15 70 24 170 15 170 -4 0 -10 -19
-13 -42 -9 -68 -17 -112 -24 -128 -3 -8 -7 -22 -8 -30 -5 -34 -52 -171 -101
-290 -36 -89 -141 -285 -224 -417 -30 -48 -62 -99 -70 -113 -8 -14 -18 -27
-21 -30 -3 -3 -25 -34 -49 -70 -24 -36 -47 -66 -52 -68 -4 -2 -8 -10 -8 -17 0
-7 -3 -15 -8 -17 -6 -3 -70 -87 -112 -148 -13 -19 -28 -38 -58 -75 -25 -31
-236 -322 -282 -390 -30 -44 -60 -85 -67 -92 -6 -7 -17 -26 -25 -43 -7 -16
-20 -30 -29 -30 -25 0 -48 -32 -55 -75 -7 -47 -7 -48 -4 -55 1 -3 3 -18 5 -35
3 -42 34 -105 73 -150 38 -43 51 -78 39 -100 -39 -71 -165 -92 -261 -45 -54
27 -89 57 -208 171 -49 48 -115 101 -148 118 -58 31 -143 47 -168 32 -13 -8
-19 -179 -8 -227 29 -132 66 -204 146 -285 60 -61 162 -124 216 -134 10 -2 20
-4 22 -5 1 -2 7 -4 12 -5 6 -1 11 -3 13 -5 3 -2 25 -7 77 -15 82 -14 94 -15
179 -20 l84 -6 -7 42 c-7 41 -32 98 -50 110 -12 9 15 99 30 99 21 0 68 46 89
86 11 21 30 49 43 63 13 14 37 47 54 73 17 27 34 48 37 48 4 0 17 20 30 44 30
54 27 55 191 -54 66 -44 125 -80 130 -80 4 0 10 -4 12 -8 8 -21 184 -115 293
-156 65 -25 120 -47 170 -66 11 -4 40 -17 65 -28 43 -19 219 -83 230 -83 18
-1 1 -10 -73 -38 -46 -17 -86 -31 -89 -31 -3 0 -23 -8 -44 -17 -22 -9 -41 -17
-44 -18 -3 0 -42 -13 -88 -28 -88 -29 -258 -72 -332 -83 -92 -14 -214 -19
-230 -9 -6 4 -10 2 -10 -2 0 -5 -15 -7 -32 -5 l-33 4 -91 -189 c-88 -180 -147
-329 -159 -402 -3 -19 -8 -37 -10 -40 -5 -9 -43 -226 -50 -283 -3 -26 -7 -62
-9 -80 -12 -84 -31 -332 -41 -518 -3 -52 -7 -122 -10 -155 -3 -33 -7 -107 -10
-165 -3 -58 -7 -152 -10 -210 -3 -58 -8 -183 -10 -278 l-4 -174 27 -25 c55
-51 192 -96 297 -97 65 -1 89 4 129 23 88 43 140 119 151 219 3 26 8 142 11
257 6 246 6 255 14 255 3 0 5 16 4 36 -1 46 28 190 60 298 10 32 20 66 21 75
2 9 4 16 5 16 1 0 3 7 5 15 6 28 128 365 134 370 3 3 7 12 9 20 2 8 10 31 19
50 10 19 18 40 19 46 2 13 146 307 154 314 3 3 13 21 22 40 25 51 72 134 79
140 13 10 108 217 130 280 26 80 39 109 97 230 25 52 45 98 44 103 -1 4 3 7 8
7 6 0 10 7 10 15 0 15 9 19 45 17 52 -3 172 -2 190 2 164 35 257 83 348 181
20 22 43 52 49 68 7 15 16 27 20 27 5 0 8 10 9 23 1 20 1 20 10 -4 20 -54 179
-101 347 -103 l112 -1 1 -37 c1 -21 2 -41 3 -45 1 -5 6 -35 10 -68 4 -32 10
-67 12 -77 2 -10 6 -28 9 -40 2 -13 9 -44 15 -69 6 -26 13 -53 14 -60 2 -8 6
-21 9 -29 23 -52 25 -343 3 -378 -3 -6 -2 -13 4 -17 6 -4 7 -11 4 -17 -7 -11
-6 -85 1 -168 5 -45 9 -75 20 -138 14 -73 57 -196 127 -357 95 -218 137 -321
188 -470 23 -66 45 -129 50 -140 19 -46 64 -170 63 -175 0 -3 22 -50 51 -104
46 -91 55 -101 91 -114 81 -28 257 -37 335 -16 99 27 190 103 190 160 0 11
-15 72 -34 136 -19 64 -37 129 -40 145 -3 15 -10 46 -15 68 -5 22 -12 54 -15
70 -2 17 -19 100 -36 185 -17 85 -33 170 -36 189 -3 18 -8 43 -10 55 -3 11 -9
44 -14 71 -6 28 -13 61 -16 75 -3 14 -7 34 -8 45 -2 11 -4 20 -5 20 -1 0 -4
15 -7 33 -2 18 -19 94 -38 170 -34 137 -36 151 -36 197 0 44 2 59 21 130 19
76 29 152 34 274 10 232 25 393 46 486 12 57 11 64 -10 60 -10 -2 -34 -6 -52
-9 -19 -3 -43 -8 -55 -10 -83 -17 -225 -37 -236 -33 -7 2 -22 0 -33 -6 -25
-13 -354 -18 -420 -7 -89 16 -110 21 -117 28 -4 4 1 8 11 9 25 2 105 29 142
48 16 9 29 12 29 8 0 -5 4 -3 8 3 4 6 23 19 42 29 70 36 150 105 150 130 0 19
2 19 45 -5 20 -11 104 -43 188 -72 135 -46 163 -52 246 -55 58 -1 100 2 108 9
7 6 13 8 13 4 0 -4 15 1 33 11 17 9 36 16 42 14 5 -1 7 1 3 5 -4 4 2 20 14 37
12 17 16 27 9 23 -9 -6 -10 -4 -3 10 19 37 62 153 62 167 0 4 7 21 15 37 9 17
13 30 9 30 -4 0 -1 6 5 14 6 8 11 18 10 22 -1 5 1 17 4 27 4 9 10 25 14 35 3
9 7 19 8 22 0 3 7 29 14 58 7 28 17 52 23 52 5 0 7 4 3 9 -3 5 1 29 9 53 18
52 66 230 72 266 3 14 7 29 9 32 2 4 7 22 10 41 3 19 10 51 16 72 6 21 12 51
14 67 2 16 6 33 8 37 3 4 8 24 11 43 3 19 8 45 10 56 2 12 7 37 10 55 8 46 15
84 26 144 11 62 18 107 26 165 5 45 9 76 18 140 6 41 16 136 21 200 2 25 7 77
10 115 20 254 31 572 20 583 -2 3 0 12 5 22 5 10 6 20 3 24 -4 3 -8 54 -9 114
-2 59 -6 130 -8 157 -3 28 -8 75 -10 105 -3 30 -8 66 -11 80 -3 14 -8 36 -11
50 -4 21 -10 48 -19 83 -2 4 -4 9 -5 12 -1 3 -3 8 -5 13 -14 52 -22 73 -47
125 -17 34 -38 73 -48 87 -18 26 -20 30 -20 54 0 14 -61 24 -107 18z m-76
-2844 c-3 -8 -6 -5 -6 6 -1 11 2 17 5 13 3 -3 4 -12 1 -19z m-17 -148 c0 -5
-2 -10 -4 -10 -3 0 -8 5 -11 10 -3 6 -1 10 4 10 6 0 11 -4 11 -10z"/>
<path d="M9713 8983 c9 -2 23 -2 30 0 6 3 -1 5 -18 5 -16 0 -22 -2 -12 -5z"/>
<path d="M9778 8973 c6 -2 18 -2 25 0 6 3 1 5 -13 5 -14 0 -19 -2 -12 -5z"/>
<path d="M8023 8313 c-7 -3 -13 -11 -13 -18 0 -15 -125 -260 -140 -275 -3 -3
-23 -34 -44 -70 -22 -36 -43 -66 -48 -68 -4 -2 -8 -10 -8 -17 0 -8 -6 -18 -14
-22 -8 -4 -16 -12 -17 -18 -2 -11 -74 -107 -101 -136 -10 -11 -18 -22 -18 -25
0 -24 -301 -330 -420 -428 -19 -15 -54 -45 -78 -65 -46 -38 -92 -71 -207 -149
-38 -26 -73 -51 -77 -57 -4 -5 -8 -6 -8 -2 0 5 -15 -2 -32 -15 -46 -33 -187
-111 -277 -154 -120 -57 -309 -133 -315 -126 -3 3 -6 0 -6 -6 0 -7 -3 -11 -7
-10 -5 1 -42 -9 -83 -22 -41 -13 -79 -25 -85 -26 -5 -2 -37 -10 -70 -20 -33
-9 -67 -18 -75 -19 -8 -2 -17 -4 -20 -5 -3 -1 -9 -3 -15 -4 -5 -1 -23 -5 -40
-9 -37 -9 -58 -13 -165 -32 -47 -8 -96 -17 -110 -20 -33 -7 -147 -17 -185 -17
-88 1 -159 32 -193 82 -20 30 -23 43 -18 90 11 115 127 337 229 442 43 43 62
108 37 123 -13 8 -86 -65 -147 -145 -108 -144 -165 -310 -162 -465 2 -49 6
-97 10 -105 4 -8 15 -32 25 -54 27 -56 105 -103 187 -112 9 -1 20 -3 25 -4 29
-8 190 3 285 21 34 6 71 13 82 15 11 1 31 6 45 9 14 3 43 10 65 14 181 40 407
111 532 167 49 22 103 44 110 46 1 0 30 15 65 33 35 19 83 44 108 56 25 12 69
37 98 56 29 18 57 33 62 33 6 0 10 5 10 10 0 6 7 10 15 10 8 0 15 4 15 8 0 5
11 14 25 20 14 7 31 16 38 22 7 5 57 42 112 82 55 40 105 77 111 83 6 5 38 32
70 59 61 52 300 288 344 341 14 17 43 53 65 80 22 28 43 52 47 53 5 2 8 10 8
17 0 7 4 15 8 17 5 2 34 41 66 88 31 47 60 90 65 96 5 6 29 46 55 89 59 101
59 89 9 -165 -3 -14 -6 -29 -7 -35 -1 -5 -4 -14 -7 -20 -4 -5 -9 -23 -13 -40
-16 -72 -143 -368 -165 -385 -3 -3 -17 -25 -30 -50 -32 -59 -122 -194 -133
-198 -4 -2 -8 -8 -8 -14 0 -10 -187 -243 -238 -297 -15 -15 -58 -63 -97 -106
-155 -173 -352 -360 -515 -488 -8 -7 -58 -46 -110 -87 -52 -41 -99 -78 -105
-83 -36 -27 -66 -59 -62 -64 13 -13 242 113 293 161 7 6 24 20 39 30 14 11 36
28 48 38 62 52 124 106 148 128 15 14 61 55 101 92 140 125 294 286 402 418
95 116 97 119 118 151 9 14 23 33 30 41 15 16 21 25 80 123 23 39 47 73 53 77
5 4 6 8 1 8 -5 0 -3 7 4 15 11 13 85 152 88 165 0 3 6 19 13 35 7 17 13 32 14
35 1 3 5 13 8 23 4 9 10 25 14 35 3 9 7 19 8 22 0 3 9 32 19 65 27 88 36 125
42 170 2 21 7 51 10 65 3 14 7 75 9 137 l5 112 66 137 c41 86 66 150 66 171 0
39 -2 42 -19 36z"/>
<path d="M4088 5954 c-2 -1 -21 -5 -43 -8 -22 -3 -69 -12 -105 -20 -71 -16
-134 -27 -165 -30 -11 -1 -24 -4 -30 -7 -13 -8 -211 -3 -233 6 -9 4 -28 9 -41
11 -23 5 -23 4 -9 -18 8 -13 32 -52 53 -88 21 -36 41 -67 45 -70 3 -3 21 -30
40 -60 19 -30 37 -57 40 -60 3 -3 17 -21 31 -40 61 -80 95 -107 184 -139 46
-18 80 -22 145 -22 74 1 135 6 135 11 0 1 34 7 78 13 13 2 29 7 36 11 7 4 15
5 18 2 3 -3 12 -1 20 5 7 6 13 9 13 5 0 -9 55 20 74 39 39 40 1 154 -76 227
-64 60 -138 91 -223 92 -75 0 -111 -6 -144 -24 -12 -6 -21 -8 -21 -4 0 3 -7 1
-15 -6 -9 -7 -18 -10 -21 -7 -3 3 -17 -1 -31 -8 -29 -15 -153 -17 -197 -3 -30
10 -86 62 -86 79 0 5 11 4 25 -1 26 -10 255 -8 271 3 5 2 36 8 69 12 32 3 62
8 65 10 3 2 28 6 55 9 61 7 77 10 90 16 6 3 19 5 30 4 11 0 30 -2 43 -3 16 -1
28 -11 37 -33 l15 -33 -4 35 c-7 73 -31 93 -113 96 -29 1 -54 0 -55 -2z"/>
<path d="M4542 5610 c-29 -11 -73 -20 -98 -21 -35 -2 -44 -6 -42 -18 8 -38
191 4 206 47 5 15 -2 15 -66 -8z"/>
<path d="M4329 5066 c-2 -2 -27 -6 -55 -9 -42 -4 -94 -21 -94 -30 0 -1 39 -2
87 -3 99 -1 125 -6 191 -36 46 -21 124 -75 130 -90 2 -5 8 -5 13 -2 11 6 -12
47 -42 76 -31 31 -126 77 -170 83 -24 4 -46 8 -50 11 -3 2 -8 2 -10 0z"/>
<path d="M3848 4795 c-1 -1 -37 -5 -78 -8 -41 -4 -102 -12 -135 -18 -33 -7
-69 -13 -80 -15 -11 -1 -21 -3 -22 -4 -3 -3 -2 -2 -58 -15 -46 -10 -53 -12
-60 -15 -3 -1 -8 -3 -12 -4 -5 -2 -28 -8 -53 -16 -25 -7 -49 -14 -55 -16 -58
-14 -366 -160 -373 -176 -2 -5 -9 -8 -15 -8 -11 0 -171 -104 -195 -128 -8 -6
-22 -17 -33 -22 -10 -6 -19 -17 -19 -25 0 -20 19 -19 26 0 4 8 12 15 18 15 7
0 23 11 36 25 13 14 28 25 34 25 6 0 24 11 40 25 16 14 35 25 43 25 7 0 13 4
13 9 0 23 418 208 513 226 10 3 27 7 37 10 10 3 28 8 39 10 12 3 31 7 44 10
12 3 33 7 47 10 14 3 34 7 45 9 22 4 81 12 165 22 65 7 352 8 395 0 26 -4 58
-8 160 -21 11 -1 20 -4 20 -5 0 -1 11 -3 25 -4 14 -1 34 -5 45 -9 11 -3 35 -9
54 -12 19 -3 42 -10 52 -16 11 -5 19 -8 19 -5 0 5 137 -40 220 -74 57 -22 213
-98 265 -128 156 -90 373 -261 459 -361 12 -13 32 -35 46 -49 14 -14 33 -37
42 -51 10 -14 18 -21 18 -15 0 31 -246 280 -370 375 -47 35 -86 67 -88 72 -2
4 -8 7 -14 7 -6 0 -41 19 -77 43 -75 50 -267 145 -356 177 -95 35 -275 85
-335 94 -14 2 -41 7 -60 10 -19 3 -53 9 -75 12 -45 6 -351 14 -357 9z"/>
<path d="M5590 3980 c0 -5 5 -10 11 -10 5 0 7 5 4 10 -3 6 -8 10 -11 10 -2 0
-4 -4 -4 -10z"/>
<path d="M5812 3529 l-24 -9 30 -37 c17 -21 47 -56 67 -78 345 -375 375 -402
482 -429 80 -20 220 11 292 66 13 10 28 15 34 11 5 -3 7 -1 3 5 -3 5 0 12 6
15 7 2 0 8 -17 12 -42 10 -175 76 -175 87 0 12 6 10 50 -12 22 -11 45 -20 52
-20 7 0 25 -6 39 -14 14 -7 37 -16 52 -20 14 -3 39 -11 54 -18 15 -6 33 -12
38 -13 6 -2 30 -9 55 -16 25 -7 48 -13 53 -15 4 -1 8 -2 10 -3 10 -9 47 -9 52
-1 3 6 -2 10 -13 10 -11 0 -31 9 -45 20 -14 11 -62 34 -107 51 -45 17 -93 41
-106 53 -25 22 -27 28 -38 111 -9 65 -45 143 -85 184 -55 56 -128 71 -276 55
-124 -12 -426 -6 -453 10 -4 2 -18 0 -30 -5z"/>
<path d="M8675 3174 c-25 -7 -48 -12 -50 -13 -3 -1 -7 -2 -10 -2 -3 -1 -8 -2
-12 -3 -37 -8 -179 -67 -202 -83 -3 -2 0 -8 6 -14 6 -6 25 -3 56 10 26 11 47
18 47 14 0 -3 7 0 15 7 9 7 18 10 22 7 3 -4 12 -2 20 4 7 6 13 9 13 6 0 -3 15
-1 33 5 17 5 93 11 167 13 172 4 290 -16 460 -78 30 -11 59 -24 65 -29 5 -4
15 -8 23 -8 8 0 26 -9 42 -20 15 -11 29 -17 32 -14 3 2 11 -2 18 -11 7 -8 17
-15 22 -15 10 0 197 -126 208 -139 3 -4 18 -17 35 -30 36 -28 130 -110 194
-170 25 -24 71 -62 101 -85 30 -22 57 -43 60 -46 11 -11 70 -44 151 -83 82
-41 86 -43 77 -67 -6 -14 -7 -74 -4 -135 5 -111 9 -135 30 -205 16 -52 41 -90
71 -104 16 -8 53 -24 80 -37 48 -22 146 -84 188 -118 70 -57 125 -109 312
-297 184 -185 339 -324 361 -324 4 0 15 -6 23 -14 18 -16 124 -70 180 -92 l36
-14 -55 4 c-75 7 -106 14 -164 38 -84 36 -109 55 -255 198 -139 136 -219 210
-368 337 -40 34 -58 48 -98 78 -22 17 -44 34 -50 38 -109 88 -231 164 -243
152 -8 -8 -7 -151 2 -198 8 -43 47 -83 91 -93 16 -4 39 -10 50 -14 11 -4 23
-8 27 -9 5 -1 32 -12 61 -25 95 -42 192 -113 313 -231 66 -64 141 -134 168
-158 27 -23 65 -57 85 -74 20 -18 44 -35 54 -39 9 -3 17 -10 17 -15 0 -5 6 -9
13 -9 7 0 18 -5 25 -12 6 -6 18 -13 26 -14 7 -1 29 -9 47 -17 57 -26 148 -40
264 -40 120 0 173 6 280 30 39 8 74 16 80 17 5 0 14 4 20 9 5 4 35 24 65 44
63 42 72 52 104 113 42 82 16 199 -76 343 -62 95 -114 139 -243 207 -101 53
-220 138 -237 169 -7 13 -13 44 -14 70 -1 25 -2 52 -3 58 -1 17 -48 40 -91 46
-54 8 -65 15 -86 55 -11 20 -31 42 -44 48 -14 7 -37 18 -52 25 -16 7 -28 20
-28 30 0 10 -5 21 -10 24 -6 4 -8 11 -5 16 4 5 3 15 -2 22 -4 6 -9 21 -10 32
-3 17 3 20 34 23 38 2 78 9 78 12 0 1 14 3 30 5 17 1 30 3 30 4 0 2 11 5 25 7
105 19 210 51 222 68 17 26 -6 29 -88 12 -12 -2 -39 -7 -60 -11 -22 -3 -52 -8
-69 -11 -30 -6 -42 -7 -167 -19 -77 -7 -78 -6 -81 95 -3 71 -14 86 -86 105
-55 14 -91 39 -91 62 0 16 -4 16 -54 2 -120 -33 -223 -50 -316 -51 -83 0 -199
16 -230 32 -8 4 -30 10 -48 13 -28 5 -33 2 -39 -21 -4 -15 -7 -55 -6 -89 1
-35 0 -63 -2 -63 -12 0 -159 67 -180 82 -122 90 -168 127 -246 199 -106 98
-175 157 -209 179 -13 8 -30 23 -39 33 -8 9 -19 17 -23 17 -4 0 -43 24 -88 53
-45 28 -84 52 -88 53 -4 0 -41 17 -82 36 -172 82 -340 121 -507 116 -56 -1
-123 -8 -148 -14z"/>
<path d="M6035 3080 c-3 -5 1 -10 10 -10 9 0 13 5 10 10 -3 6 -8 10 -10 10 -2
0 -7 -4 -10 -10z"/>
<path d="M4620 2503 c0 -9 56 -84 105 -141 92 -108 276 -271 385 -340 30 -20
57 -38 60 -41 17 -20 260 -140 325 -161 22 -7 45 -16 50 -20 6 -3 30 -12 55
-20 25 -7 63 -19 85 -26 22 -7 58 -15 80 -19 22 -4 47 -9 55 -12 8 -3 31 -7
50 -9 19 -2 46 -6 60 -10 87 -21 384 -21 520 0 14 2 47 7 75 11 71 10 94 21
91 42 -3 20 -21 21 -96 9 -82 -13 -184 -19 -300 -19 -101 0 -236 8 -250 13 -3
1 -8 2 -11 2 -13 -2 -190 33 -249 48 -19 5 -39 10 -45 11 -14 3 -161 53 -215
74 -77 30 -210 95 -277 136 -35 21 -66 39 -69 39 -3 0 -12 6 -19 13 -31 27
-44 37 -50 37 -6 0 -70 46 -91 65 -6 6 -34 30 -63 55 -79 66 -159 148 -234
238 -15 19 -27 29 -27 25z"/>
<path d="M7657 2256 c-3 -8 -30 -33 -59 -55 -29 -23 -58 -46 -65 -51 -7 -6
-15 -10 -18 -10 -4 0 -13 -6 -21 -14 -8 -8 -39 -24 -71 -36 -80 -30 -159 -26
-245 13 -38 16 -68 33 -68 37 0 4 -11 12 -23 17 -37 17 -53 -22 -56 -137 -3
-134 -13 -255 -21 -255 -1 0 -3 -16 -5 -35 -1 -20 -8 -60 -14 -91 -6 -30 -14
-66 -16 -80 -3 -13 -7 -35 -10 -49 -30 -146 -30 -270 1 -377 19 -67 81 -202
118 -256 14 -20 40 -65 58 -100 18 -34 38 -65 43 -69 6 -4 6 -8 2 -8 -5 0 0
-12 11 -28 23 -34 52 -92 52 -106 0 -14 -14 2 -37 41 -10 17 -47 80 -82 140
-35 59 -77 133 -94 163 -17 30 -34 56 -39 58 -4 2 -8 9 -8 15 0 7 -14 33 -30
60 -29 46 -50 60 -50 34 0 -14 72 -160 89 -181 6 -7 8 -16 4 -19 -3 -4 0 -7 7
-7 7 0 10 -3 7 -7 -4 -3 -3 -11 2 -17 5 -6 33 -58 62 -116 30 -58 57 -106 61
-108 5 -2 8 -11 8 -21 0 -9 4 -21 9 -27 4 -5 28 -47 52 -94 95 -186 186 -308
291 -391 79 -63 218 -88 334 -60 29 7 59 13 68 15 8 1 19 5 22 9 4 4 14 7 22
7 24 0 254 117 283 143 87 78 128 190 105 285 -4 12 -8 30 -10 40 -19 87 -150
313 -226 391 -42 44 -95 121 -123 181 -26 57 -40 95 -39 102 1 3 -5 12 -13 18
-8 7 -15 18 -15 25 0 11 -47 121 -86 199 -8 16 -14 34 -14 40 0 6 -14 24 -30
40 -16 16 -27 32 -25 37 3 4 1 10 -4 13 -5 3 -12 26 -16 52 -3 25 -8 53 -10
62 -2 10 -12 55 -23 102 -10 47 -17 99 -16 115 14 147 15 257 5 308 -12 56
-24 71 -34 43z"/>
<path d="M5330 1709 c0 -54 162 -194 260 -224 100 -30 190 -40 214 -22 25 19
7 31 -84 56 -110 31 -256 101 -323 157 -56 46 -67 51 -67 33z"/>
</g>
</svg>
